<?xml version="1.0" encoding="UTF-8" standalone="no"?>
<svg
   xmlns:dc="http://purl.org/dc/elements/1.1/"
   xmlns:cc="http://creativecommons.org/ns#"
   xmlns:rdf="http://www.w3.org/1999/02/22-rdf-syntax-ns#"
   xmlns:svg="http://www.w3.org/2000/svg"
   xmlns="http://www.w3.org/2000/svg"
   xmlns:xlink="http://www.w3.org/1999/xlink"
   xmlns:sodipodi="http://sodipodi.sourceforge.net/DTD/sodipodi-0.dtd"
   xmlns:inkscape="http://www.inkscape.org/namespaces/inkscape"
   width="680.719"
   height="451.2"
   viewBox="0 0 180.107 119.38"
   version="1.1"
   id="svg913"
   sodipodi:docname="suggtype-sm.svg"
   inkscape:version="0.92.4 (5da689c313, 2019-01-14)">
  <metadata
     id="metadata917">
    <rdf:RDF>
      <cc:Work
         rdf:about="">
        <dc:format>image/svg+xml</dc:format>
        <dc:type
           rdf:resource="http://purl.org/dc/dcmitype/StillImage" />
      </cc:Work>
    </rdf:RDF>
  </metadata>
  <sodipodi:namedview
     pagecolor="#ffffff"
     bordercolor="#666666"
     borderopacity="1"
     objecttolerance="10"
     gridtolerance="10"
     guidetolerance="10"
     inkscape:pageopacity="0"
     inkscape:pageshadow="2"
     inkscape:window-width="1920"
     inkscape:window-height="1017"
     id="namedview915"
     showgrid="false"
     inkscape:zoom="2.6093766"
     inkscape:cx="283.98143"
     inkscape:cy="331.31456"
     inkscape:window-x="-8"
     inkscape:window-y="-8"
     inkscape:window-maximized="1"
     inkscape:current-layer="svg913" />
  <defs
     id="defs75">
    <linearGradient
       id="linearGradient1732-7"
       inkscape:collect="always">
      <stop
         id="stop1743"
         offset="0"
         style="stop-color:#666666;stop-opacity:1;" />
      <stop
         id="stop1745"
         offset="1"
         style="stop-color:#666666;stop-opacity:0;" />
    </linearGradient>
    <clipPath
       id="A">
      <path
         d="M0 0h510.24v338.4H0z"
         clip-rule="evenodd"
         id="path2" />
    </clipPath>
    <path
       d="M1089.2 8.373q-.296 0-.504-.202-.208-.202-.208-.5 0-.3.208-.5.208-.208.504-.208.302 0 .5.208.215.202.215.5 0 .296-.215.504-.208.208-.5.208zm.537 8.627h-1.102v-6.88h1.102z"
       id="B" />
    <path
       d="M1096.648 16.684q-.793.477-1.88.477-1.47 0-2.378-.954-.9-.96-.9-2.486 0-1.7.974-2.728.974-1.035 2.6-1.035.907 0 1.6.336v1.13q-.766-.538-1.64-.538-1.055 0-1.733.76-.672.753-.672 1.982 0 1.2.632 1.908.638.7 1.707.7.9 0 1.693-.598z"
       id="C" />
    <path
       d="M1104.025 17h-1.102v-3.964q0-2.15-1.6-2.15-.806 0-1.357.625-.55.618-.55 1.592V17h-1.102V6.814h1.102v4.448h.027q.793-1.303 2.258-1.303 2.325 0 2.325 2.802z"
       id="D" />
    <path
       d="M1116.7 11.235q-.3-.222-.833-.222-.705 0-1.182.665-.47.665-.47 1.814V17h-1.102v-6.88h1.102v1.418h.027q.235-.726.72-1.13.484-.4 1.082-.4.43 0 .658.094z"
       id="E" />
    <path
       d="M1123.758 17h-1.102v-1.17h-.027q-.766 1.33-2.365 1.33-1.297 0-2.076-.92-.773-.927-.773-2.52 0-1.707.86-2.735.86-1.028 2.3-1.028 1.418 0 2.063 1.115h.027v-4.26h1.102zm-1.102-3.1v-1.015q0-.833-.55-1.4-.55-.578-1.397-.578-1.008 0-1.586.74-.578.74-.578 2.043 0 1.2.55 1.88.558.685 1.492.685.92 0 1.492-.665.578-.665.578-1.68z"
       id="F" />
    <path
       d="M1143.175 13.835h-4.858q.027 1.15.618 1.774.6.625 1.626.625 1.162 0 2.137-.766v1.035q-.907.658-2.4.658-1.458 0-2.3-.934-.833-.94-.833-2.64 0-1.606.907-2.614.914-1.015 2.264-1.015 1.35 0 2.1.873.74.873.74 2.425zm-1.13-.934q-.007-.954-.464-1.485-.45-.53-1.256-.53-.78 0-1.324.558-.544.558-.672 1.458z"
       id="G" />
    <path
       d="M1216.498 16.82V15.1q.524.316 1.04.47.524.155.988.155.564 0 .887-.155.33-.155.33-.47 0-.202-.148-.336-.148-.134-.383-.235-.228-.1-.504-.18-.275-.08-.53-.18-.4-.155-.726-.33-.3-.18-.524-.417-.208-.235-.322-.544-.108-.3-.108-.732 0-.578.25-.994.255-.417.672-.68.423-.27.96-.4.544-.128 1.13-.128.457 0 .927.074.47.067.927.202v1.64q-.403-.235-.867-.35-.457-.12-.9-.12-.208 0-.396.04-.18.034-.322.107-.14.067-.222.18-.08.108-.08.25 0 .188.12.323.12.134.316.235.195.094.43.175.242.074.477.155.423.148.766.323.343.175.585.4.25.235.376.55.134.316.134.752 0 .6-.27 1.048-.262.43-.705.705-.437.27-1.015.4-.57.128-1.2.128-1.135 0-2.103-.35z"
       id="H" />
    <path
       d="M1288.15 17h-1.102v-3.924q0-2.2-1.6-2.2-.826 0-1.37.625-.537.618-.537 1.565V17h-1.102v-6.88h1.102v1.142h.027q.78-1.303 2.257-1.303 1.13 0 1.727.732.598.726.598 2.103z"
       id="I" />
    <path
       d="M94.822 42.52h-.345v-1.24q0-.673-.5-.673-.252 0-.425.195-.172.193-.172.498v1.22h-.345v-3.186h.345v1.4h.008q.248-.408.706-.408.727 0 .727.876z"
       id="J" />
    <path
       d="M97.2 41.53h-1.52q.008.36.193.555.185.195.5.195.364 0 .668-.24v.324q-.284.206-.75.206-.456 0-.717-.292-.26-.294-.26-.826 0-.502.284-.818.286-.317.708-.317.422 0 .654.273.23.273.23.76zm-.353-.292q-.002-.298-.145-.464-.14-.166-.393-.166-.244 0-.414.174-.17.174-.2.456z"
       id="K" />
    <path
       d="M101.978 42.52h-.345v-.336h-.008q-.225.387-.662.387-.322 0-.504-.17-.18-.17-.18-.452 0-.603.7-.702l.645-.1q0-.55-.443-.55-.4 0-.702.265v-.353q.317-.202.73-.202.76 0 .76.803zm-.345-1.1l-.52.07q-.24.034-.36.12-.122.084-.122.3 0 .158.1.258.113.1.3.1.256 0 .422-.18.168-.18.168-.456z"
       id="L" />
    <path
       d="M102.804 39.82q-.092 0-.158-.063-.065-.063-.065-.16 0-.097.065-.16.065-.065.158-.065.095 0 .16.065.067.063.067.16 0 .092-.067.158-.065.065-.16.065zm.168 2.698h-.345v-2.152h.345z"
       id="M" />
    <path
       d="M105.456 42.52h-.345v-1.227q0-.685-.5-.685-.258 0-.43.195-.168.193-.168.5v1.227h-.345v-2.152h.345v.357h.008q.244-.408.706-.408.353 0 .54.23.187.227.187.658z"
       id="N" />
    <path
       d="M107.154 42.442v-.37q.282.208.62.208.454 0 .454-.303 0-.086-.04-.145-.038-.06-.105-.107-.065-.046-.156-.082-.088-.038-.2-.078-.143-.057-.252-.113-.107-.06-.18-.13-.07-.074-.1-.166-.036-.092-.036-.216 0-.15.07-.267.07-.118.185-.195.116-.08.263-.12.15-.04.307-.04.28 0 .5.097v.35q-.237-.156-.546-.156-.097 0-.174.023-.078.02-.135.06-.055.04-.086.097-.03.055-.03.122 0 .084.03.14.032.057.1.1.06.044.143.08.084.036.2.078.143.055.256.113.113.057.193.13.08.07.122.166.044.095.044.225 0 .16-.07.277-.07.118-.187.195-.118.078-.27.116-.153.038-.322.038-.332 0-.576-.128z"
       id="O" />
    <path
       d="M110.577 42.42q-.248.15-.588.15-.46 0-.744-.298-.282-.3-.282-.778 0-.532.305-.853.305-.324.813-.324.284 0 .5.105v.353q-.24-.168-.513-.168-.33 0-.542.237-.2.235-.2.62 0 .378.198.597.2.22.534.22.282 0 .53-.187z"
       id="P" />
    <path
       d="M112.22 40.716q-.1-.07-.26-.07-.22 0-.37.208-.147.208-.147.567v1.097h-.345v-2.152h.345v.443h.008q.074-.227.225-.353.15-.128.338-.128.135 0 .206.03z"
       id="Q" />
    <path
       d="M117.166 42.5q-.122.067-.322.067-.565 0-.565-.63v-1.274h-.37v-.294h.37v-.525l.345-.1v.637h.542v.294h-.542v1.213q0 .216.074.3.074.092.244.092.13 0 .225-.07z"
       id="R" />
    <path
       d="M119.366 42.52h-.345v-.34h-.008q-.214.4-.664.4-.77 0-.77-.916v-1.286h.343V41.6q0 .68.52.68.252 0 .414-.185.164-.187.164-.488v-1.24h.345z"
       id="S" />
    <path
       d="M126.403 42.52v-3.754a.93.93 0 0 1 .939-.939h15.64a.93.93 0 0 1 .939.939v3.754a.93.93 0 0 1-.939.939h-15.64a.93.93 0 0 1-.939-.939z"
       id="T" />
    <path
       d="M130.4 42.52h-.664v-.296h-.008q-.227.35-.666.35-.404 0-.65-.284-.246-.286-.246-.797 0-.534.27-.855.27-.322.7-.322.416 0 .58.298h.008v-1.28h.664zm-.65-1.047v-.162q0-.2-.122-.35-.122-.14-.317-.14-.22 0-.345.174-.124.172-.124.475 0 .284.12.437.12.153.332.153.202 0 .328-.162.128-.162.128-.43z"
       id="U" />
    <path
       d="M131.306 40.027q-.168 0-.275-.1-.107-.1-.107-.246 0-.15.107-.244.107-.095.275-.095.17 0 .275.095.107.095.107.244 0 .15-.107.248-.105.097-.275.097zm.328 2.492h-.664v-2.152h.664z"
       id="V" />
    <path
       d="M132.052 42.463v-.538q.164.1.326.147.164.048.3.048.177 0 .277-.048.103-.048.103-.147 0-.063-.046-.105-.046-.042-.12-.074-.07-.032-.158-.057-.086-.025-.166-.057-.128-.048-.227-.103-.097-.057-.164-.13-.065-.074-.1-.17-.034-.097-.034-.23 0-.18.078-.3.08-.13.2-.212.132-.084.3-.122.17-.04.353-.04.143 0 .3.023.147.02.3.063v.513q-.126-.074-.27-.1-.143-.038-.282-.038-.065 0-.124.013-.057.01-.1.034-.044.02-.07.057-.025.034-.025.078 0 .06.038.1.038.042.1.074.06.03.135.055.076.023.15.048.132.046.24.1.107.055.183.128.078.074.118.172.042.1.042.235 0 .2-.084.328-.082.135-.22.22-.137.084-.317.122-.18.04-.372.04-.355 0-.658-.1z"
       id="W" />
    <path
       d="M135.717 42.442q-.225.13-.65.13-.496 0-.803-.3-.307-.3-.307-.775 0-.55.328-.864.33-.317.88-.317.38 0 .55.1v.563q-.208-.156-.464-.156-.286 0-.454.168-.166.166-.166.46 0 .286.16.45.16.162.44.162.248 0 .485-.156z"
       id="X" />
    <path
       d="M138.197 42.52h-.662v-.328h-.01q-.246.38-.658.38-.748 0-.748-.906v-1.3h.662v1.24q0 .456.36.456.18 0 .286-.124.107-.126.107-.34v-1.232h.662z"
       id="Y" />
    <path
       d="M147.046 40.368l-.857 2.152h-.338l-.815-2.152h.378l.546 1.564q.06.172.076.3h.008q.02-.162.067-.292l.572-1.572z"
       id="Z" />
    <path
       d="M151.28 39.82q-.093 0-.158-.063-.065-.063-.065-.16 0-.097.065-.16.065-.065.158-.065.095 0 .16.065.067.063.067.16 0 .092-.067.158-.065.065-.16.065zm.168 2.698h-.345v-2.152h.345z"
       id="a" />
    <path
       d="M153.044 42.57q-.477 0-.763-.3-.284-.303-.284-.8 0-.542.296-.847.296-.305.8-.305.48 0 .75.296.27.296.27.822 0 .515-.292.826-.3.3-.78.3zm.025-1.963q-.332 0-.525.227-.193.225-.193.622 0 .382.195.603.195.22.523.22.334 0 .513-.216.18-.216.18-.616 0-.404-.18-.622-.18-.22-.513-.22z"
       id="b" />
    <path
       d="M178.22 42.2h-.008v1.3h-.345v-3.142h.345v.378h.008q.254-.43.744-.43.416 0 .65.3.233.288.233.773 0 .54-.263.866-.263.324-.72.324-.418 0-.645-.36zm-.008-.868v.3q0 .267.172.454.174.185.44.185.313 0 .5-.24.18-.24.18-.666 0-.36-.166-.563-.166-.204-.45-.204-.3 0-.483.2-.183.208-.183.523z"
       id="c" />
    <path
       d="M111.342 49.788q-.122.067-.322.067-.565 0-.565-.63V47.95h-.37v-.294h.37v-.525l.345-.1v.637h.542v.294h-.542v1.213q0 .216.074.3.074.092.244.092.13 0 .225-.07z"
       id="d" />
    <path
       d="M118.325 49.8h-.345v-.366h-.008q-.24.416-.74.416-.406 0-.65-.288-.242-.3-.242-.788 0-.534.27-.855.27-.322.717-.322.443 0 .645.35h.008v-1.332h.345zm-.345-.973v-.317q0-.26-.172-.44-.172-.18-.437-.18-.315 0-.496.23-.18.23-.18.64 0 .372.172.588.174.214.467.214.288 0 .467-.208.18-.208.18-.525z"
       id="e" />
    <path
       d="M148.92 49.788q-.122.067-.322.067-.565 0-.565-.63V47.95h-.37v-.294h.37v-.525l.345-.1v.637h.542v.294h-.542v1.213q0 .216.073.3.074.092.244.092.13 0 .225-.07z"
       id="f" />
    <path
       d="M182.164 49.637q0 1.185-1.135 1.185-.4 0-.698-.15v-.345q.364.202.694.202.794 0 .794-.845v-.235h-.008q-.246.412-.74.412-.4 0-.647-.286-.244-.288-.244-.77 0-.55.263-.872.265-.324.723-.324.435 0 .645.35h.008v-.298h.345zm-.345-.8v-.317q0-.256-.174-.44-.172-.183-.43-.183-.32 0-.5.233-.18.23-.18.65 0 .36.172.576.174.214.46.214.3 0 .47-.206.183-.206.183-.527z"
       id="g" />
    <path
       d="M101.364 57.638h-.345v-3.186h.345z"
       id="h" />
    <path
       d="M117.037 57.638h-.345V57.3h-.008q-.225.387-.662.387-.322 0-.504-.17-.18-.17-.18-.452 0-.603.7-.702l.645-.1q0-.55-.443-.55-.4 0-.702.265v-.353q.317-.202.73-.202.76 0 .76.803zm-.345-1.1l-.52.07q-.24.034-.36.12-.122.084-.122.3 0 .158.1.258.113.1.3.1.256 0 .422-.18.168-.18.168-.456z"
       id="i" />
    <path
       d="M141.5 56.75h-1.404q.034.47.6.47.355 0 .624-.168v.48q-.298.16-.775.16-.52 0-.8-.288-.288-.3-.288-.807 0-.536.3-.85.3-.313.765-.313.47 0 .727.28.258.28.258.76zm-.616-.408q0-.462-.374-.462-.16 0-.277.132-.116.132-.14.33z"
       id="j" />
    <path
       d="M160.935 57.617q-.122.067-.322.067-.565 0-.565-.63V55.78h-.37v-.294h.37v-.525l.345-.1v.637h.542v.294h-.542v1.213q0 .216.074.3.074.092.244.092.13 0 .225-.07z"
       id="k" />
    <path
       d="M165.372 57.638h-.345V56.4q0-.685-.5-.685-.26 0-.43.195-.168.193-.168.5v1.227h-.345v-2.152h.345v.357h.008q.244-.408.706-.408.353 0 .54.23.187.227.187.658z"
       id="l" />
    <path
       d="M183.294 55.486l-1 2.497q-.265.668-.744.668-.135 0-.225-.027v-.3q.1.038.204.038.26 0 .4-.3l.172-.408-.84-2.148h.382l.582 1.656q.01.032.044.164h.013q.01-.05.042-.16l.612-1.66z"
       id="m" />
    <path
       d="M121.864 64.94h-.345V63.7q0-.685-.5-.685-.258 0-.43.195-.168.193-.168.5v1.227h-.345v-2.152h.345v.357h.008q.244-.408.706-.408.353 0 .54.23.187.227.187.658z"
       id="n" />
    <path
       d="M128.93 64.882v-.538q.164.1.326.147.164.048.3.048.177 0 .277-.048.103-.048.103-.147 0-.063-.046-.105-.046-.042-.12-.073-.072-.03-.158-.057-.086-.025-.166-.057-.128-.048-.227-.103-.097-.057-.164-.13-.065-.074-.1-.17-.034-.097-.034-.23 0-.18.078-.3.08-.13.2-.212.132-.084.3-.122.17-.04.353-.04.143 0 .3.023.147.02.3.063v.513q-.126-.073-.27-.1-.143-.038-.282-.038-.065 0-.124.013-.057.01-.1.034-.044.02-.07.057-.025.034-.025.078 0 .06.038.1.038.042.1.074.06.03.135.055.076.023.15.048.132.046.24.1.107.055.183.128.078.074.118.172.042.1.042.235 0 .2-.084.328-.082.135-.22.22-.137.084-.317.122-.18.04-.372.04-.355 0-.658-.1z"
       id="o" />
    <path
       d="M155.228 64.628h-.008v.3h-.345v-3.186h.345v1.412h.008q.254-.43.744-.43.414 0 .647.3.235.288.235.773 0 .54-.263.866-.263.324-.72.324-.427 0-.645-.36zm-.008-.868v.3q0 .267.172.454.174.185.44.185.313 0 .5-.24.18-.24.18-.666 0-.36-.166-.563-.166-.204-.45-.204-.3 0-.483.2-.183.208-.183.523z"
       id="p" />
    <path
       d="M99.706 72.238h-.345V71.9h-.008q-.225.387-.662.387-.322 0-.504-.17-.18-.17-.18-.452 0-.603.7-.702l.645-.1q0-.55-.443-.55-.4 0-.702.265v-.353q.317-.202.73-.202.76 0 .76.803zm-.345-1.1l-.52.07q-.24.034-.36.12-.122.084-.122.3 0 .158.1.258.113.1.3.1.256 0 .422-.18.168-.18.168-.456z"
       id="q" />
    <path
       d="M102.14 72.238h-.345V71q0-.685-.5-.685-.258 0-.43.195-.168.193-.168.5v1.227h-.345v-2.152h.345v.357h.008q.244-.408.706-.408.353 0 .54.23.187.227.187.658z"
       id="r" />
    <path
       d="M148.884 72.217q-.122.067-.322.067-.565 0-.565-.63V70.38h-.37v-.294h.37v-.525l.345-.1v.637h.542v.294h-.542v1.213q0 .216.074.3.074.092.244.092.13 0 .225-.07z"
       id="s" />
    <path
       d="M162.523 72.238h-.345v-.34h-.008q-.214.4-.664.4-.77 0-.77-.916v-1.286h.343v1.232q0 .68.52.68.252 0 .414-.185.164-.187.164-.488v-1.24h.345z"
       id="t" />
    <path
       d="M101.622 79.762h-.008v1.3h-.345V77.92h.345v.378h.008q.254-.43.744-.43.416 0 .65.3.233.288.233.773 0 .54-.263.866-.263.324-.72.324-.418 0-.645-.36zm-.008-.868v.3q0 .267.172.454.174.185.44.185.313 0 .5-.24.18-.24.18-.666 0-.36-.166-.563-.166-.204-.45-.204-.3 0-.483.2-.183.208-.183.523z"
       id="u" />
    <path
       d="M118.988 77.92l-.62 2.152h-.698l-.317-1.26q-.032-.126-.036-.275h-.013q-.015.164-.042.267l-.34 1.27h-.7l-.607-2.152h.677l.296 1.404q.02.1.032.24h.013q.01-.147.038-.248l.37-1.395h.633l.332 1.404q.013.053.03.244h.015q.01-.122.034-.244l.28-1.404z"
       id="v" />
    <path
       d="M124.6 80.073h-.628v-.3h-.008q-.216.36-.64.36-.313 0-.494-.177-.18-.18-.18-.475 0-.626.742-.723l.584-.078q0-.353-.382-.353-.385 0-.73.23v-.5q.14-.07.378-.126.242-.055.44-.055.92 0 .92.918zm-.624-.874v-.145l-.4.05q-.324.042-.324.292 0 .113.078.187.08.07.214.07.187 0 .305-.128.118-.13.118-.328z"
       id="w" />
    <path
       d="M142.362 80.126q-.538 0-.847-.3-.307-.303-.307-.82 0-.534.32-.834.32-.303.864-.303.536 0 .84.303.305.3.305.797 0 .536-.315.847-.313.3-.86.3zm.017-1.75q-.235 0-.366.162-.13.162-.13.458 0 .62.5.62.477 0 .477-.637 0-.603-.48-.603z"
       id="x" />
    <path
       d="M168.424 80.12q-.097 0-.166-.07-.067-.07-.067-.166 0-.097.067-.166.07-.07.166-.07.1 0 .168.07.07.07.07.166 0 .097-.07.166-.07.07-.168.07z"
       id="y" />
    <path
       d="M90.34 84.663q-.092 0-.158-.063-.065-.063-.065-.16 0-.097.065-.16.065-.065.158-.065.095 0 .16.065.067.063.067.16 0 .092-.067.158-.065.065-.16.065zm.168 2.698h-.345V85.2h.345z"
       id="z" />
    <path
       d="M92.203 87.34q-.122.067-.322.067-.565 0-.565-.63v-1.274h-.37V85.2h.37v-.525l.345-.1v.637h.542v.294h-.542v1.213q0 .216.074.3.074.092.244.092.13 0 .225-.07z"
       id="AA" />
    <path
       d="M118.516 84.348l-.797 3.014h-.752l-.5-1.933q-.04-.15-.048-.338h-.008q-.02.206-.055.338l-.513 1.933h-.784l-.792-3.014h.742l.425 2.007q.027.128.04.345h.013q.008-.162.06-.353l.546-2h.727l.494 2.024q.027.1.048.324h.008q.008-.166.044-.336l.416-2z"
       id="AB" />
    <path
       d="M126.64 85.2l-.7 1.042.706 1.1h-.765l-.3-.58q-.038-.07-.1-.195h-.008q-.032.088-.086.2l-.313.586h-.763l.727-1.072-.683-1.08h.77l.307.603q.06.12.086.202h.008q.034-.1.1-.206l.313-.6z"
       id="AC" />
    <path
       d="M169.7 87.362h-.345v-1.227q0-.685-.5-.685-.258 0-.43.195-.168.193-.168.5v1.227h-.345V85.2h.345v.357h.008q.244-.408.706-.408.353 0 .54.23.187.227.187.658z"
       id="AD" />
    <path
       d="M90.862 94.64q-.122.067-.322.067-.565 0-.565-.63v-1.274h-.37V92.5h.37v-.525l.345-.1v.637h.542v.294h-.542v1.213q0 .216.074.3.074.092.244.092.13 0 .225-.07z"
       id="AE" />
    <path
       d="M93.062 94.662h-.345v-.34h-.008q-.214.4-.664.4-.77 0-.77-.916V92.5h.343v1.232q0 .68.52.68.252 0 .414-.185.164-.187.164-.488V92.5h.345z"
       id="AF" />
    <path
       d="M100.48 94.5q0 1.185-1.135 1.185-.4 0-.698-.15V95.2q.364.202.694.202.794 0 .794-.845V94.3h-.008q-.246.412-.74.412-.4 0-.647-.286-.244-.288-.244-.77 0-.55.263-.872.265-.324.723-.324.435 0 .645.35h.008v-.3h.345zm-.345-.8v-.317q0-.256-.174-.44-.172-.183-.43-.183-.32 0-.5.233-.18.23-.18.65 0 .36.172.576.174.214.46.214.3 0 .47-.206.183-.206.183-.527z"
       id="AG" />
    <path
       d="M102.3 92.86q-.1-.07-.26-.07-.22 0-.37.208-.147.208-.147.567v1.097h-.345V92.5h.345v.443h.008q.074-.227.225-.353.15-.128.338-.128.135 0 .206.03z"
       id="AH" />
    <path
       d="M123.275 102.5v-3.754a.93.93 0 0 1 .939-.939h22.208a.93.93 0 0 1 .939.939v3.754a.93.93 0 0 1-.939.939h-22.208a.93.93 0 0 1-.939-.939z"
       id="AI" />
    <path
       d="M4.233 41.152c0-1.3 1.064-2.374 2.376-2.374h77.123a2.38 2.38 0 0 1 2.374 2.374v72.212c0 1.312-1.065 2.376-2.374 2.376H6.6c-1.312 0-2.376-1.064-2.376-2.376z"
       id="AJ" />
    <path
       d="M21.442 49.666q0 .022-.01.04-.01.014-.036.025-.025.01-.07.017-.044.006-.114.006-.066 0-.1-.006-.044-.006-.072-.017-.025-.01-.036-.025-.008-.017-.008-.04v-2.493q0-.02.008-.036.01-.017.036-.028.028-.01.072-.017.044-.006.1-.006.07 0 .114.006.044.006.07.017.025.01.036.028.01.017.01.036zm.053-3.335q0 .16-.06.22-.06.058-.224.058-.16 0-.222-.055-.058-.058-.058-.216 0-.16.06-.22.06-.058.224-.058.16 0 .22.058.06.055.06.213z"
       id="AK" />
    <path
       d="M23.804 48.987q0 .2-.072.34-.07.15-.2.252-.13.102-.3.155-.18.053-.396.053-.133 0-.255-.022-.12-.02-.216-.05-.094-.033-.16-.066-.066-.036-.097-.064-.03-.028-.044-.078-.014-.05-.014-.136 0-.053.006-.1.006-.036.014-.058.008-.022.022-.03.017-.01.036-.01.03 0 .1.04.06.036.147.08.1.044.208.083.12.036.274.036.116 0 .2-.025.094-.025.163-.072.07-.05.105-.125.04-.075.04-.177 0-.105-.055-.177-.053-.072-.14-.127-.1-.055-.2-.097-.1-.044-.23-.1-.116-.047-.23-.105-.1-.06-.2-.147-.1-.086-.144-.205-.053-.12-.053-.285 0-.147.055-.28.058-.136.172-.235.114-.102.283-.163.172-.06.4-.06.1 0 .2.017.1.017.18.042.08.025.136.055.058.028.086.05.03.022.04.04.01.017.014.04.006.02.008.05.006.03.006.075 0 .047-.006.083-.003.033-.014.055-.008.022-.022.033-.014.008-.03.008-.025 0-.072-.03-.047-.03-.122-.064-.075-.036-.177-.066-.1-.03-.23-.03-.116 0-.205.028-.1.025-.147.075-.055.047-.086.114-.028.066-.028.144 0 .108.055.183.055.072.144.127.1.055.202.1.114.044.23.1.12.047.233.105.116.058.205.14.1.083.14.2.055.116.055.277z"
       id="AL" />
    <path
       d="M28.004 48.38q0 .327-.072.587-.07.26-.208.443-.136.18-.338.28-.202.097-.463.097-.1 0-.205-.022-.094-.022-.186-.07-.1-.047-.177-.12-.1-.072-.188-.17v1.246q0 .022-.01.04-.01.017-.036.028-.025.01-.07.017-.044.006-.114.006-.066 0-.1-.006-.044-.006-.072-.017-.025-.01-.036-.028-.008-.017-.008-.04V47.17q0-.025.008-.04.008-.017.033-.028.025-.01.064-.014.04-.006.094-.006.058 0 .094.006.04.003.064.014.025.01.033.028.01.014.01.04v.335q.114-.116.22-.202.105-.086.2-.14.108-.058.22-.086.114-.03.238-.03.27 0 .463.105.2.105.3.288.122.183.177.427.055.24.055.512zm-.482.053q0-.2-.03-.368-.028-.18-.1-.32-.07-.138-.188-.222-.12-.083-.296-.083-.1 0-.175.028-.086.025-.175.083-.1.055-.186.15-.097.1-.205.227v.992q.188.23.357.352.17.122.355.122.172 0 .294-.083.125-.083.2-.222.078-.138.114-.3.036-.172.036-.346z"
       id="AM" />
    <path
       d="M36.488 48.3q0 .108-.055.155-.053.044-.122.044h-1.634q0 .208.042.374.042.166.138.285.097.12.252.183.155.064.38.064.177 0 .316-.028.138-.03.238-.066.102-.036.166-.064.066-.03.1-.03.02 0 .033.01.017.008.025.028.008.02.01.055.006.033.006.083 0 .036-.003.064-.003.025-.008.047-.003.02-.014.036-.008.017-.025.033-.014.014-.1.05-.075.033-.194.066-.12.033-.277.058-.155.028-.332.028-.307 0-.54-.086-.23-.086-.388-.255-.158-.17-.238-.424-.08-.255-.08-.593 0-.32.083-.576.083-.258.238-.435.158-.18.38-.274.222-.097.496-.097.294 0 .5.094.208.094.34.255.133.158.194.374.064.213.064.457zm-.46-.136q.008-.36-.16-.565-.166-.205-.496-.205-.17 0-.296.064-.127.064-.213.17-.086.105-.133.247-.047.138-.053.3z"
       id="AN" />
    <path
       d="M71.385 48.392q0 .305-.08.562-.08.255-.24.44-.158.186-.4.3-.238.102-.554.102-.307 0-.537-.1-.227-.1-.38-.266-.152-.175-.227-.424-.075-.25-.075-.565 0-.305.078-.56.08-.258.238-.443.16-.186.4-.288.238-.102.557-.102.307 0 .535.1.23.1.382.266.152.175.227.424.078.25.078.562zm-.482.03q0-.202-.04-.382-.036-.18-.122-.316-.086-.136-.233-.213-.147-.08-.366-.08-.202 0-.35.072-.144.072-.238.205-.094.13-.14.3-.044.18-.044.393 0 .205.036.385.04.18.125.316.1.133.235.213.147.078.366.078.2 0 .346-.072.147-.072.24-.202.094-.13.138-.3.044-.18.044-.396z"
       id="AO" />
    <clipPath
       id="AP">
      <path
         d="M0 0h510.24v338.4H0z"
         clip-rule="evenodd"
         id="path71" />
    </clipPath>
    <path
       id="AQ"
       d="M136.094 37.077h-.888v-.453h-.013q-.33.5-.882.5-1.003 0-1.003-1.215v-1.743h.888v1.663q0 .612.483.612.24 0 .384-.166.143-.17.143-.456v-1.652h.888z" />
    <radialGradient
       inkscape:collect="always"
       xlink:href="#linearGradient1732-7"
       id="radialGradient1754"
       cx="252.7825"
       cy="120.60997"
       fx="252.7825"
       fy="120.60997"
       r="3.7974465"
       gradientTransform="matrix(1,0,0,31.76081,0,-3710.0605)"
       gradientUnits="userSpaceOnUse" />
    <radialGradient
       inkscape:collect="always"
       xlink:href="#linearGradient1732-7"
       id="radialGradient1756"
       gradientUnits="userSpaceOnUse"
       gradientTransform="matrix(31.504749,0.0353048,-1.7851858,31.75981,-7474.2895,-3718.8395)"
       cx="252.07904"
       cy="120.61395"
       fx="252.07904"
       fy="120.61395"
       r="3.7974465" />
  </defs>
  <g
     transform="matrix(.419474 0 0 .419474 -378.25986 -.132807)"
     id="g133">
    <path
       d="M1087.45 17h-1.344l-1.612-2.7q-.222-.376-.43-.638-.208-.27-.43-.437-.215-.168-.47-.242-.25-.08-.564-.08h-.927V17h-1.13V7.365h2.876q.632 0 1.162.16.537.155.927.477.396.322.618.806.222.477.222 1.122 0 .504-.155.927-.148.417-.43.746-.275.33-.672.564-.4.228-.88.356v.027q.242.107.417.25.18.134.343.323.16.188.316.43.16.235.356.55zm-5.778-8.613v3.494h1.532q.423 0 .78-.128.363-.128.625-.363.262-.242.4-.585.148-.35.148-.78 0-.773-.504-1.203-.497-.437-1.445-.437z"
       id="path77" />
    <use
       xlink:href="#B"
       id="use79" />
    <use
       xlink:href="#C"
       id="use81" />
    <use
       xlink:href="#D"
       id="use83" />
    <path
       d="M1111.026 17h-1.102v-1.075h-.027q-.72 1.236-2.116 1.236-1.028 0-1.612-.544-.578-.544-.578-1.445 0-1.928 2.27-2.244l2.063-.3q0-1.754-1.418-1.754-1.243 0-2.244.847V10.6q1.015-.645 2.338-.645 2.425 0 2.425 2.567zm-1.102-3.48l-1.66.228q-.766.107-1.156.383-.4.27-.4.96 0 .504.356.826.363.316.96.316.82 0 1.35-.57.538-.578.538-1.458z"
       id="path85" />
    <use
       xlink:href="#E"
       id="use87" />
    <use
       xlink:href="#F"
       id="use89" />
    <path
       d="M1129.905 17V7.365h2.74q1.25 0 1.982.6.732.6.732 1.592 0 .82-.443 1.424-.443.605-1.223.86v.027q.974.114 1.56.74.585.618.585 1.613 0 1.236-.887 2.002-.887.766-2.237.766zm1.13-8.613v3.1h1.156q.927 0 1.458-.443.53-.45.53-1.263 0-1.404-1.848-1.404zm0 4.125v3.467h1.532q.994 0 1.54-.47.55-.47.55-1.3 0-1.707-2.325-1.707z"
       id="path91" />
    <use
       xlink:href="#G"
       id="use93" />
    <path
       d="M1150.317 10.12l-3.165 7.982q-.847 2.137-2.378 2.137-.43 0-.72-.087v-.988q.356.12.652.12.833 0 1.25-.994l.55-1.303-2.687-6.867h1.223l1.86 5.294q.034.1.14.524h.04q.034-.16.134-.5l1.955-5.308zm10.95 6.88h-1.102v-3.95q0-1.142-.356-1.653-.35-.5-1.183-.5-.705 0-1.203.645-.5.645-.5 1.545V17h-1.102v-4.085q0-2.03-1.565-2.03-.726 0-1.196.6-.47.605-.47 1.58V17h-1.102v-6.88h1.102v1.088h.027q.732-1.25 2.137-1.25.705 0 1.23.396.524.4.72 1.028.766-1.424 2.284-1.424 2.27 0 2.27 2.802z"
       id="path95" />
    <use
       x="25.705"
       xlink:href="#G"
       id="use97" />
    <use
       x="57.435"
       xlink:href="#E"
       id="use99" />
    <path
       d="M1175.358 19.2h-.98q2.096-2.513 2.096-5.88 0-3.393-2.1-5.946h.994q2.096 2.46 2.096 5.96 0 3.487-2.096 5.865zm11.086-2.267q-.4.215-1.028.215-1.807 0-1.807-2.016V11.06h-1.182v-.94h1.182V8.44l1.102-.356v2.036h1.733v.94h-1.733v3.877q0 .692.235.988.235.296.78.296.417 0 .72-.228zm4.346.227q-1.525 0-2.44-.96-.907-.968-.907-2.56 0-1.733.947-2.708.947-.974 2.56-.974 1.54 0 2.4.947.867.947.867 2.627 0 1.646-.934 2.64-.927.988-2.493.988zm.08-6.275q-1.062 0-1.68.726-.618.72-.618 2 0 1.223.625 1.928.625.705 1.673.705 1.068 0 1.64-.692.578-.692.578-1.97 0-1.3-.578-2-.57-.7-1.64-.7z"
       id="path101" />
    <path
       d="M1199 17V5a2.97 2.97 0 0 1 .228-1.148 2.97 2.97 0 0 1 .65-.973A2.97 2.97 0 0 1 1202 2h49a2.97 2.97 0 0 1 1.148.228 2.98 2.98 0 0 1 .973.65 2.97 2.97 0 0 1 .65.973c.152.368.228.75.228 1.148v12a2.97 2.97 0 0 1-.879 2.121 2.98 2.98 0 0 1-.973.65A2.97 2.97 0 0 1 1251 20h-49a2.97 2.97 0 0 1-2.121-.879A2.97 2.97 0 0 1 1199 17z"
       fill="#c7ffdb"
       id="path103" />
    <path
       d="M1211.25 17h-2.123v-.947h-.027q-.726 1.115-2.13 1.115-1.3 0-2.076-.907-.786-.914-.786-2.546 0-1.707.867-2.735.867-1.028 2.27-1.028 1.33 0 1.854.954h.027V6.814h2.123zm-2.083-3.346v-.517q0-.672-.4-1.115-.4-.443-1.015-.443-.705 0-1.102.558-.396.55-.396 1.518 0 .907.383 1.398.383.5 1.062.5.645 0 1.048-.517.4-.517.4-1.37zm4.946-4.622q-.537 0-.88-.316-.343-.322-.343-.786 0-.477.343-.78.343-.302.88-.302.544 0 .88.302.343.302.343.78 0 .484-.343.793-.336.3-.88.3zM1215.16 17h-2.123v-6.88h2.123z"
       id="path105" />
    <use
       xlink:href="#H"
       id="use107" />
    <path
       d="M1228.216 16.75q-.72.417-2.076.417-1.586 0-2.567-.96-.98-.96-.98-2.48 0-1.754 1.048-2.76 1.055-1.015 2.815-1.015 1.216 0 1.76.323v1.8q-.665-.497-1.485-.497-.914 0-1.45.538-.53.53-.53 1.47 0 .914.5 1.438.5.517 1.404.517.793 0 1.552-.497zm7.928.25h-2.116v-1.048h-.034q-.786 1.216-2.103 1.216-2.392 0-2.392-2.896V10.12h2.116v3.964q0 1.458 1.156 1.458.57 0 .914-.396.343-.403.343-1.088V10.12h2.116zm1.336-.18V15.1q.524.316 1.04.47.524.155.988.155.564 0 .887-.155.33-.155.33-.47 0-.202-.148-.336-.148-.134-.383-.235-.228-.1-.504-.18-.275-.08-.53-.18-.4-.155-.726-.33-.3-.18-.524-.417-.208-.235-.322-.544-.107-.3-.107-.732 0-.578.25-.994.255-.417.672-.68.423-.27.96-.4.544-.128 1.13-.128.457 0 .927.074.47.067.927.202v1.64q-.403-.235-.867-.35-.457-.12-.9-.12-.208 0-.396.04-.18.034-.322.107-.14.067-.222.18-.08.108-.08.25 0 .188.12.323.12.134.316.235.195.094.43.175.242.074.477.155.423.148.766.323.343.175.585.4.25.235.376.55.134.316.134.752 0 .6-.27 1.048-.262.43-.705.705-.437.27-1.015.4-.57.128-1.2.128-1.135 0-2.103-.35z"
       id="path109" />
    <use
       x="27.036"
       xlink:href="#H"
       id="use111" />
    <path
       d="M1262.217 16.933q-.4.215-1.028.215-1.807 0-1.807-2.016V11.06h-1.183v-.94h1.183V8.44l1.102-.356v2.036h1.733v.94h-1.733v3.877q0 .692.235.988.235.296.78.296.417 0 .72-.228z"
       id="path113" />
    <use
       x="165.375"
       xlink:href="#D"
       id="use115" />
    <use
       x="133.83"
       xlink:href="#G"
       id="use117" />
    <use
       xlink:href="#I"
       id="use119" />
    <use
       x="152.582"
       xlink:href="#G"
       id="use121" />
    <path
       d="M1306.1 10.12l-2.063 6.88h-1.142l-1.418-4.925q-.08-.282-.108-.638h-.027q-.02.242-.14.625l-1.54 4.938h-1.102l-2.083-6.88h1.156l1.424 5.173q.067.235.094.618h.054q.02-.296.12-.632l1.586-5.16h1.008l1.424 5.187q.067.25.1.618h.054q.013-.262.114-.618l1.398-5.187zm6.312 6.88h-1.13V7.365h1.13z"
       id="path123" />
    <use
       x="222.839"
       xlink:href="#C"
       id="use125" />
    <use
       x="183.508"
       xlink:href="#G"
       id="use127" />
    <path
       d="M1329.45 17h-1.102V6.814h1.102zm7.157 0h-1.102v-1.075h-.027q-.72 1.236-2.116 1.236-1.028 0-1.612-.544-.578-.544-.578-1.445 0-1.928 2.27-2.244l2.063-.3q0-1.754-1.418-1.754-1.243 0-2.244.847V10.6q1.015-.645 2.338-.645 2.425 0 2.425 2.567zm-1.102-3.48l-1.66.228q-.766.107-1.156.383-.4.27-.4.96 0 .504.356.826.363.316.96.316.82 0 1.35-.57.537-.578.537-1.458z"
       id="path129" />
    <use
       x="56.244"
       xlink:href="#I"
       id="use131" />
  </g>
  <g
     transform="matrix(1.341055 0 0 1.341055 -45.243695 -40.21872)"
     id="g149">
    <use
       xlink:href="#L"
       id="use135" />
    <use
       xlink:href="#M"
       id="use137" />
    <use
       xlink:href="#N"
       id="use139" />
    <use
       xlink:href="#O"
       id="use141" />
    <use
       xlink:href="#P"
       id="use143" />
    <use
       xlink:href="#Q"
       id="use145" />
    <use
       x="9.966"
       xlink:href="#M"
       id="use147" />
  </g>
  <path
     d="M107.637 16.387h-.01v1.743h-.463v-4.214h.463v.507h.01q.34-.577.998-.577.558 0 .872.402.312.386.312 1.037 0 .724-.353 1.16-.353.435-.966.435-.56 0-.865-.483zm-.01-1.164v.402q0 .358.23.61.233.248.6.248.42 0 .67-.322.24-.322.24-.893 0-.483-.223-.755-.223-.274-.603-.274-.402 0-.648.268-.245.28-.245.7z"
     id="path151" />
  <g
     transform="matrix(1.341055 0 0 1.341055 -45.243695 -40.21872)"
     id="g193">
    <use
       xlink:href="#R"
       id="use153" />
    <use
       xlink:href="#S"
       id="use155" />
    <use
       x="8.964"
       xlink:href="#Q"
       id="use157" />
    <use
       x="26.088"
       xlink:href="#K"
       id="use159" />
    <use
       x="16.526"
       xlink:href="#O"
       id="use161" />
    <use
       xlink:href="#T"
       fill="#c7ffdb"
       id="use163" />
    <use
       xlink:href="#U"
       id="use165" />
    <use
       xlink:href="#V"
       id="use167" />
    <use
       xlink:href="#W"
       id="use169" />
    <use
       xlink:href="#X"
       id="use171" />
    <use
       xlink:href="#Y"
       id="use173" />
    <use
       x="6.563"
       xlink:href="#W"
       id="use175" />
    <use
       x="8.458"
       xlink:href="#W"
       id="use177" />
    <use
       xlink:href="#Z"
       id="use179" />
    <use
       x="46.978"
       xlink:href="#L"
       id="use181" />
    <use
       x="38.508"
       xlink:href="#Q"
       id="use183" />
    <use
       xlink:href="#a"
       id="use185" />
    <use
       xlink:href="#b"
       id="use187" />
    <use
       x="37.04"
       xlink:href="#S"
       id="use189" />
    <use
       x="49.818"
       xlink:href="#O"
       id="use191" />
  </g>
  <path
     d="M173.567 16.803h-.463v-1.658q0-.48-.148-.693-.148-.215-.496-.215-.295 0-.504.27-.205.27-.205.648v1.645h-.463v-1.714q0-.852-.67-.852-.304 0-.502.255-.197.255-.197.662V16.8h-.463v-2.886h.463v.456h.01q.308-.523.896-.523.295 0 .516.166.22.164.302.432.322-.598.96-.598.94 0 .94 1.175z"
     id="path195" />
  <g
     transform="matrix(1.341055 0 0 1.341055 -45.243695 -40.21872)"
     id="g207">
    <use
       x="61.186"
       xlink:href="#M"
       id="use197" />
    <use
       x="57.573"
       xlink:href="#O"
       id="use199" />
    <use
       x="57.573"
       xlink:href="#P"
       id="use201" />
    <use
       x="16.526"
       xlink:href="#b"
       id="use203" />
    <use
       y="7.288"
       x="-8.111"
       xlink:href="#O"
       id="use205" />
  </g>
  <path
     d="M92.598 26.58h-.463v-1.663q0-.903-.67-.903-.338 0-.57.262-.23.26-.23.668v1.636h-.46v-4.273h.463v1.864h.01q.333-.547.947-.547.975 0 .975 1.175z"
     id="path209" />
  <g
     transform="matrix(1.341055 0 0 1.341055 -45.243695 -40.21872)"
     id="g233">
    <use
       y="7.29"
       x="7.965"
       xlink:href="#K"
       id="use211" />
    <use
       y="7.28"
       x="4.238"
       xlink:href="#M"
       id="use213" />
    <use
       y="7.29"
       x="4.238"
       xlink:href="#N"
       id="use215" />
    <use
       xlink:href="#d"
       id="use217" />
    <use
       y="7.29"
       x="16.33"
       xlink:href="#K"
       id="use219" />
    <use
       y="7.29"
       x="10.384"
       xlink:href="#N"
       id="use221" />
    <use
       xlink:href="#e"
       id="use223" />
    <use
       y="7.288"
       x="11.739"
       xlink:href="#O"
       id="use225" />
    <use
       x="11.684"
       xlink:href="#d"
       id="use227" />
    <use
       y="7.29"
       x="-28.658"
       xlink:href="#b"
       id="use229" />
    <use
       y="7.29"
       x=".313"
       xlink:href="#T"
       fill="#c7ffdb"
       id="use231" />
  </g>
  <path
     d="M130.15 26.566h-.9v-.397h-.01q-.304.47-.893.47-.542 0-.872-.38-.33-.384-.33-1.07 0-.716.362-1.147.362-.432.94-.432.558 0 .778.4h.01v-1.717h.9zm-.872-1.404v-.205q0-.268-.164-.47-.164-.188-.425-.188-.295 0-.463.233-.166.23-.166.637 0 .38.16.586.16.205.445.205.27 0 .44-.217.172-.217.172-.577zm2.072-1.94q-.225 0-.37-.134-.143-.134-.143-.33 0-.2.143-.327.143-.127.37-.127.228 0 .37.127.144.127.144.327 0 .2-.144.333-.14.13-.37.13zm.426 3.345h-.9V23.68h.9z"
     id="path235" />
  <g
     transform="matrix(1.341055 0 0 1.341055 -45.243695 -40.21872)"
     id="g251">
    <use
       y="7.289"
       x=".376"
       xlink:href="#W"
       id="use237" />
    <use
       y="7.288"
       x=".377"
       xlink:href="#X"
       id="use239" />
    <use
       y="7.29"
       x=".376"
       xlink:href="#Y"
       id="use241" />
    <use
       y="7.289"
       x="6.94"
       xlink:href="#W"
       id="use243" />
    <use
       y="7.289"
       x="8.833"
       xlink:href="#W"
       id="use245" />
    <use
       y="7.29"
       x="45.292"
       xlink:href="#L"
       id="use247" />
    <use
       xlink:href="#f"
       id="use249" />
  </g>
  <path
     d="M158 26.55q-.164.1-.432.1-.758 0-.758-.845v-1.7h-.496v-.394h.496v-.704l.463-.148v.854H158v.394h-.727v1.627q0 .3.1.416.098.123.327.123.174 0 .302-.094z"
     id="path253" />
  <g
     transform="matrix(1.341055 0 0 1.341055 -45.243695 -40.21872)"
     id="g263">
    <use
       y="7.29"
       x="58.981"
       xlink:href="#J"
       id="use255" />
    <use
       y="7.29"
       x="58.982"
       xlink:href="#K"
       id="use257" />
    <use
       y="7.29"
       x="54.212"
       xlink:href="#N"
       id="use259" />
    <use
       y="7.29"
       x="64.847"
       xlink:href="#K"
       id="use261" />
  </g>
  <path
     d="M174.877 23.692l-.97 1.475.94 1.426h-.536l-.566-.936q-.054-.087-.127-.22h-.01q-.013.027-.134.22l-.577.936h-.532l.983-1.415-.94-1.47h.536l.558.987q.062.1.134.225h.01l.72-1.212zm1.88 2.856q-.164.1-.432.1-.758 0-.758-.845v-1.71h-.496v-.394h.496v-.704l.463-.134v.854h.727v.394h-.727v1.627q0 .3.098.402.1.123.327.123.174 0 .302-.094zm6.296.03h-.463V24.92q0-.48-.134-.693-.134-.215-.496-.215-.295 0-.504.27-.205.27-.205.648v1.645h-.463V24.86q0-.852-.67-.852-.304 0-.502.268-.197.268-.197.662v1.645h-.463V23.7h.463v.456h.01q.308-.536.896-.536.295 0 .516.166.22.164.302.432.322-.598.96-.598.94 0 .94 1.175z"
     id="path265" />
  <g
     transform="matrix(1.341055 0 0 1.341055 -45.243695 -40.21872)"
     id="g277">
    <use
       y="15.118"
       x="5.548"
       xlink:href="#J"
       id="use267" />
    <use
       xlink:href="#h"
       id="use269" />
    <use
       y="15.12"
       x="-49.042"
       xlink:href="#a"
       id="use271" />
    <use
       y="7.828"
       x="-77.224"
       xlink:href="#g"
       id="use273" />
    <use
       y="15.118"
       x="12.603"
       xlink:href="#J"
       id="use275" />
  </g>
  <path
     d="M101.028 37.05q-.164.1-.432.1-.758 0-.758-.845v-1.71h-.496v-.394h.496v-.704l.463-.148v.854h.727v.394h-.727v1.627q0 .3.1.416.098.123.327.123.174 0 .302-.094z"
     id="path279" />
  <g
     transform="matrix(1.341055 0 0 1.341055 -45.243695 -40.21872)"
     id="g287">
    <use
       y="15.118"
       x="14.062"
       xlink:href="#K"
       id="use281" />
    <use
       y="7.828"
       x="-4.705"
       xlink:href="#e"
       id="use283" />
    <use
       xlink:href="#i"
       id="use285" />
  </g>
  <path
     d="M114.976 37.077h-.463v-1.66q0-.92-.67-.92-.346 0-.577.262-.225.26-.225.67v1.645h-.463V34.2h.463v.48h.01q.327-.547.947-.547.473 0 .724.308.25.304.25.882z"
     id="path289" />
  <use
     transform="matrix(1.341055 0 0 1.341055 -45.243695 -40.21872)"
     y="7.828"
     x="3.635"
     xlink:href="#e"
     id="use291" />
  <path
     d="M120.495 37.077v-5.034a1.247 1.247 0 0 1 1.259-1.259h28.944a1.247 1.247 0 0 1 1.259 1.259v5.034a1.247 1.247 0 0 1-1.259 1.259h-28.944a1.247 1.247 0 0 1-1.259-1.259z"
     fill="#c7ebff"
     id="path293" />
  <g
     transform="matrix(1.341055 0 0 1.341055 -45.243695 -40.21872)"
     id="g303">
    <use
       y="15.118"
       x="-2.976"
       xlink:href="#U"
       id="use295" />
    <use
       y="15.118"
       x="-2.976"
       xlink:href="#V"
       id="use297" />
    <use
       y="15.117"
       x="-2.976"
       xlink:href="#W"
       id="use299" />
    <use
       y="15.118"
       x="-2.977"
       xlink:href="#X"
       id="use301" />
  </g>
  <use
     xlink:href="#AQ"
     id="use305" />
  <use
     transform="matrix(1.341055 0 0 1.341055 -45.243695 -40.21872)"
     y="15.117"
     x="3.588"
     xlink:href="#W"
     id="use307" />
  <path
     d="M139.194 37v-.72q.22.134.437.197.22.064.416.064.237 0 .37-.064.138-.064.138-.197 0-.084-.062-.14-.062-.056-.16-.1-.097-.043-.212-.076-.115-.034-.223-.076-.172-.064-.304-.138-.13-.076-.22-.174-.087-.1-.134-.228-.046-.13-.046-.308 0-.24.105-.416.107-.174.268-.284.177-.113.402-.164.228-.054.473-.054.192 0 .402.03.197.027.402.084v.688q-.17-.1-.362-.148-.192-.05-.378-.05-.087 0-.166.017-.077.013-.134.046-.06.027-.094.076-.034.046-.034.105 0 .08.05.134.05.056.134.1.08.04.18.074.102.03.2.064.177.062.322.134.143.074.245.172.105.1.158.23.056.134.056.315 0 .255-.113.44-.1.18-.295.295-.184.113-.425.164-.24.054-.5.054-.476 0-.882-.148z"
     id="path309" />
  <use
     transform="matrix(1.341055 0 0 1.341055 -45.243695 -40.21872)"
     xlink:href="#j"
     id="use311" />
  <path
     d="M147.868 37.077h-.9v-.397h-.01q-.304.47-.893.47-.54 0-.872-.38-.33-.384-.33-1.07 0-.716.362-1.147.362-.432.94-.432.558 0 .778.4h.01v-1.717h.907zm-.872-1.404v-.217q0-.268-.164-.47-.164-.188-.425-.188-.295 0-.463.233-.166.23-.166.637 0 .38.16.586.16.205.445.205.27 0 .44-.217.172-.217.172-.577zm2.02 1.49q-.22 0-.366-.134-.134-.134-.134-.333 0-.2.134-.333.152-.13.378-.13.228 0 .37.134.134.13.134.33 0 .205-.134.338-.134.13-.384.13zm5.472-.083h-.473v-4.042h.473zm5.1 0h-.463V35.42q0-.48-.134-.693-.134-.215-.496-.215-.295 0-.504.27-.205.27-.205.648v1.645h-.463v-1.714q0-.852-.67-.852-.304 0-.502.268-.197.268-.197.662v1.645h-.463v-2.886h.463v.456h.01q.308-.536.896-.536.295 0 .516.166.22.164.302.432.322-.598.96-.598.94 0 .94 1.175z"
     id="path313" />
  <g
     transform="matrix(1.341055 0 0 1.341055 -45.243695 -40.21872)"
     id="g329">
    <use
       y="15.117"
       x="-24.478"
       xlink:href="#c"
       id="use315" />
    <use
       y="15.118"
       x="3.774"
       xlink:href="#b"
       id="use317" />
    <use
       y="15.118"
       x="47.343"
       xlink:href="#Q"
       id="use319" />
    <use
       xlink:href="#k"
       id="use321" />
    <use
       x="45.899"
       xlink:href="#i"
       id="use323" />
    <use
       xlink:href="#l"
       id="use325" />
    <use
       x="6.085"
       xlink:href="#k"
       id="use327" />
  </g>
  <path
     d="M182.44 34.658q-.134-.094-.35-.094-.295 0-.496.28-.197.28-.197.76v1.47h-.463v-2.886h.463v.594h.01q.1-.304.302-.473.2-.172.453-.172.18 0 .276.04z"
     id="path331" />
  <use
     transform="matrix(1.341055 0 0 1.341055 -45.243695 -40.21872)"
     y="15.118"
     x="74.685"
     xlink:href="#K"
     id="use333" />
  <path
     d="M114.784 46.87h-.473v-4.042h.473z"
     id="path335" />
  <use
     transform="matrix(1.341055 0 0 1.341055 -45.243695 -40.21872)"
     xlink:href="#n"
     id="use337" />
  <path
     d="M120.075 46.87v-5.034a1.247 1.247 0 0 1 1.259-1.259h29.364a1.247 1.247 0 0 1 1.259 1.259v5.034a1.247 1.247 0 0 1-1.259 1.259h-29.364a1.247 1.247 0 0 1-1.259-1.259z"
     fill="#c7ebff"
     id="path339" />
  <path
     d="M125.457 46.87h-.9v-.397h-.01q-.304.47-.893.47-.542 0-.872-.38-.33-.384-.33-1.067 0-.716.362-1.147.362-.432.94-.432.558 0 .778.4h.01v-1.717h.9zm-.872-1.404v-.217q0-.268-.164-.47-.164-.188-.425-.188-.295 0-.463.233-.166.23-.166.637 0 .38.16.586.16.205.445.205.27 0 .44-.217.172-.217.172-.577z"
     id="path341" />
  <g
     transform="matrix(1.341055 0 0 1.341055 -45.243695 -40.21872)"
     id="g353">
    <use
       y="22.419"
       x="-3.123"
       xlink:href="#V"
       id="use343" />
    <use
       xlink:href="#o"
       id="use345" />
    <use
       y="22.418"
       x="-3.123"
       xlink:href="#X"
       id="use347" />
    <use
       y="22.42"
       x="-3.123"
       xlink:href="#Y"
       id="use349" />
    <use
       x="6.562"
       xlink:href="#o"
       id="use351" />
  </g>
  <path
     d="M138.998 46.792v-.72q.22.134.437.197.22.064.416.064.237 0 .37-.064.138-.064.138-.197 0-.084-.062-.14-.062-.056-.16-.098-.094-.04-.212-.076-.115-.034-.223-.076-.172-.064-.304-.138-.13-.076-.22-.174-.087-.1-.134-.228-.046-.13-.046-.308 0-.24.105-.416.107-.174.268-.284.177-.113.402-.164.228-.054.473-.054.192 0 .402.03.197.027.402.084v.688q-.17-.098-.362-.148-.192-.05-.378-.05-.087 0-.166.017-.077.013-.134.046-.06.027-.094.076-.034.046-.034.105 0 .08.05.134.05.056.134.1.08.04.18.074.102.03.2.064.177.062.322.134.144.074.245.172.105.1.158.23.056.134.056.315 0 .255-.113.44-.1.18-.295.295-.184.113-.425.164-.24.054-.5.054-.476 0-.882-.148z"
     id="path355" />
  <use
     transform="matrix(1.341055 0 0 1.341055 -45.243695 -40.21872)"
     y="22.419"
     x="8.45"
     xlink:href="#V"
     id="use357" />
  <path
     d="M146.154 46.87h-.888v-1.604q0-.67-.48-.67-.23 0-.38.177-.134.177-.134.45v1.645h-.9v-2.886h.9v.456h.01q.318-.527.94-.527.96 0 .96 1.2zm3.534-.33q0 .805-.465 1.243-.465.443-1.348.443-.583 0-.94-.166v-.75q.445.26.898.26.45 0 .697-.24.248-.237.248-.644v-.228h-.01q-.304.483-.898.483-.553 0-.877-.402-.325-.402-.325-1.043 0-.732.362-1.164.362-.432.95-.432.527 0 .79.406h.01v-.335h.9zm-.88-1.057v-.228q0-.274-.164-.465-.16-.194-.42-.194-.295 0-.465.23-.17.23-.17.65 0 .362.16.573.16.21.44.21.276 0 .445-.212.172-.215.172-.563zm5.454 1.388v-4.042h1.15q.536 0 .83.268.308.268.308.668 0 .343-.188.598-.188.268-.512.362v.01q.41.048.654.308.245.26.245.676 0 .52-.37.84-.37.322-.94.322zm.473-3.613v1.305h.483q.402 0 .612-.188.223-.188.223-.53 0-.6-.775-.6zm0 1.743v1.454h.644q.402 0 .644-.197.23-.197.23-.542 0-.716-.975-.716z"
     id="path359" />
  <g
     transform="matrix(1.341055 0 0 1.341055 -45.243695 -40.21872)"
     id="g371">
    <use
       y="22.42"
       x="50.752"
       xlink:href="#L"
       id="use361" />
    <use
       y="22.419"
       x="42.28"
       xlink:href="#Q"
       id="use363" />
    <use
       xlink:href="#p"
       id="use365" />
    <use
       y="22.42"
       x="56.968"
       xlink:href="#L"
       id="use367" />
    <use
       y="22.419"
       x="48.497"
       xlink:href="#Q"
       id="use369" />
  </g>
  <path
     d="M171.026 43.25q-.123 0-.212-.084-.087-.084-.087-.215 0-.13.087-.215.087-.087.212-.087.127 0 .215.087.1.084.1.215 0 .125-.1.212-.087.087-.215.087zm.225 3.618h-.463V43.98h.463zm.762-.105v-.496q.378.28.83.28.61 0 .61-.406 0-.115-.054-.194-.05-.08-.14-.143-.087-.062-.21-.1-.118-.05-.268-.105-.192-.076-.338-.152-.143-.08-.24-.174-.097-.1-.134-.223-.048-.125-.048-.3 0-.2.094-.358.094-.158.248-.262.156-.107.353-.16.2-.054.412-.054.375 0 .67.13v.47q-.318-.21-.732-.21-.13 0-.233.03-.105.027-.18.08-.074.054-.115.13-.04.074-.04.164 0 .113.04.188.04.076.134.134.08.06.192.107.113.048.268.105.192.074.343.152.152.076.26.174.107.097.164.223.06.127.06.302 0 .215-.096.37-.094.158-.25.262-.158.105-.362.156-.205.05-.432.05-.445 0-.772-.172zm6.72.107h-.463v-1.658q0-.48-.134-.693-.134-.215-.496-.215-.295 0-.504.27-.205.27-.205.648v1.645h-.463v-1.717q0-.852-.67-.852-.304 0-.502.268-.197.268-.197.662v1.645h-.463V44h.463v.456h.01q.308-.536.896-.536.295 0 .516.166.22.164.302.432.322-.598.96-.598.94 0 .94 1.175z"
     id="path373" />
  <g
     transform="matrix(1.341055 0 0 1.341055 -45.243695 -40.21872)"
     id="g387">
    <use
       y="22.42"
       x="68.409"
       xlink:href="#L"
       id="use375" />
    <use
       xlink:href="#q"
       id="use377" />
    <use
       xlink:href="#r"
       id="use379" />
    <use
       x="4.624"
       xlink:href="#q"
       id="use381" />
    <use
       y="14.6"
       x="3.961"
       xlink:href="#h"
       id="use383" />
    <use
       y="14.6"
       x="-75.558"
       xlink:href="#m"
       id="use385" />
  </g>
  <path
     d="M101.744 53.902l-1.71 2.36h1.7v.394h-2.37v-.143l1.708-2.347h-1.548v-.394h2.226z"
     id="path389" />
  <g
     transform="matrix(1.341055 0 0 1.341055 -45.243695 -40.21872)"
     id="g401">
    <use
       y="29.718"
       x="14.58"
       xlink:href="#K"
       id="use391" />
    <use
       y="22.428"
       x="-4.185"
       xlink:href="#e"
       id="use393" />
    <use
       x="17.85"
       xlink:href="#q"
       id="use395" />
    <use
       x="17.852"
       xlink:href="#r"
       id="use397" />
    <use
       y="22.428"
       x="4.153"
       xlink:href="#e"
       id="use399" />
  </g>
  <path
     d="M120.913 56.656v-5.034a1.247 1.247 0 0 1 1.259-1.259h27.685a1.247 1.247 0 0 1 1.259 1.259v5.034a1.247 1.247 0 0 1-1.259 1.259h-27.683a1.247 1.247 0 0 1-1.259-1.259z"
     fill="#c7ebff"
     id="path403" />
  <g
     transform="matrix(1.341055 0 0 1.341055 -45.243695 -40.21872)"
     id="g413">
    <use
       y="29.718"
       x="-2.458"
       xlink:href="#U"
       id="use405" />
    <use
       y="29.718"
       x="-2.458"
       xlink:href="#V"
       id="use407" />
    <use
       y="29.717"
       x="-2.458"
       xlink:href="#W"
       id="use409" />
    <use
       y="29.718"
       x="-2.457"
       xlink:href="#X"
       id="use411" />
  </g>
  <use
     xlink:href="#AQ"
     x="0.696"
     y="19.579"
     id="use415" />
  <g
     transform="matrix(1.341055 0 0 1.341055 -45.243695 -40.21872)"
     id="g429">
    <use
       y="29.717"
       x="4.105"
       xlink:href="#W"
       id="use417" />
    <use
       y="29.717"
       x="5.998"
       xlink:href="#W"
       id="use419" />
    <use
       y="14.6"
       x=".518"
       xlink:href="#j"
       id="use421" />
    <use
       y="29.718"
       x="14.11"
       xlink:href="#U"
       id="use423" />
    <use
       xlink:href="#s"
       id="use425" />
    <use
       y="29.718"
       x="56.308"
       xlink:href="#J"
       id="use427" />
  </g>
  <path
     d="M160.608 55.33h-2.012q.01.483.26.744.248.262.684.262.488 0 .896-.322v.435q-.38.276-1.006.276-.612 0-.962-.392-.35-.394-.35-1.108 0-.673.38-1.097.384-.425.95-.425.566 0 .877.366.308.366.308 1.02zm-.473-.392q-.002-.4-.194-.622-.188-.223-.527-.223-.327 0-.555.233-.228.233-.268.612z"
     id="path431" />
  <g
     transform="matrix(1.341055 0 0 1.341055 -45.243695 -40.21872)"
     id="g459">
    <use
       y="29.718"
       x="44.112"
       xlink:href="#Q"
       id="use433" />
    <use
       y="29.718"
       x="61.236"
       xlink:href="#K"
       id="use435" />
    <use
       y="29.718"
       x="51.673"
       xlink:href="#O"
       id="use437" />
    <use
       xlink:href="#t"
       id="use439" />
    <use
       y="14.6"
       x="62.2"
       xlink:href="#h"
       id="use441" />
    <use
       x="16.376"
       xlink:href="#s"
       id="use443" />
    <use
       y="29.718"
       x="58.446"
       xlink:href="#O"
       id="use445" />
    <use
       x="70.56"
       xlink:href="#q"
       id="use447" />
    <use
       y="37.553"
       x="-9.02"
       xlink:href="#O"
       id="use449" />
    <use
       xlink:href="#u"
       id="use451" />
    <use
       y="37.553"
       x="3.362"
       xlink:href="#L"
       id="use453" />
    <use
       x="4.721"
       xlink:href="#u"
       id="use455" />
    <use
       y="37.553"
       x="13.05"
       xlink:href="#K"
       id="use457" />
  </g>
  <path
     d="M104.81 64.746q-.134-.094-.35-.094-.295 0-.496.28-.197.28-.197.76v1.47h-.463v-2.886h.463v.594h.01q.1-.304.302-.473.2-.172.453-.172.18 0 .276.04zm.925 1.776l-.45 1.387h-.33l.33-1.387z"
     id="path461" />
  <path
     d="M107.49 67.164V62.13a1.247 1.247 0 0 1 1.259-1.259h55.372a1.247 1.247 0 0 1 1.258 1.259v5.034a1.247 1.247 0 0 1-1.258 1.259h-55.372a1.247 1.247 0 0 1-1.259-1.259z"
     fill="#ffdbc7"
     id="path463" />
  <g
     transform="matrix(1.341055 0 0 1.341055 -45.243695 -40.21872)"
     id="g475">
    <use
       xlink:href="#v"
       id="use465" />
    <use
       y="22.436"
       x="-20.284"
       xlink:href="#j"
       id="use467" />
    <use
       xlink:href="#w"
       id="use469" />
    <use
       y="37.553"
       x="-3.19"
       xlink:href="#U"
       id="use471" />
    <use
       y="37.553"
       x="-.525"
       xlink:href="#U"
       id="use473" />
  </g>
  <path
     d="M131.572 65.08q-.16-.087-.375-.087-.3 0-.453.215-.164.212-.164.577v1.38h-.9v-2.887h.9v.536h.01q.212-.586.76-.586.14 0 .22.034z"
     id="path477" />
  <g
     transform="matrix(1.341055 0 0 1.341055 -45.243695 -40.21872)"
     id="g489">
    <use
       y="22.436"
       x="-7.427"
       xlink:href="#j"
       id="use479" />
    <use
       y="37.553"
       x="2.275"
       xlink:href="#W"
       id="use481" />
    <use
       y="37.553"
       x="4.168"
       xlink:href="#W"
       id="use483" />
    <use
       y="37.553"
       x="7.25"
       xlink:href="#W"
       id="use485" />
    <use
       xlink:href="#x"
       id="use487" />
  </g>
  <path
     d="M152.408 67.164h-.888v-1.645q0-.63-.463-.63-.22 0-.358.188-.138.188-.138.47v1.615h-.9v-1.663q0-.612-.453-.612-.228 0-.366.18-.134.18-.134.49v1.604h-.9v-2.885h.9v.45h.01q.138-.23.386-.375.25-.148.547-.148.612 0 .837.536.33-.536.97-.536.94 0 .94 1.16z"
     id="path491" />
  <g
     transform="matrix(1.341055 0 0 1.341055 -45.243695 -40.21872)"
     id="g497">
    <use
       y="22.436"
       x="8.343"
       xlink:href="#j"
       id="use493" />
    <use
       x="10.09"
       xlink:href="#x"
       id="use495" />
  </g>
  <path
     d="M163.15 63.574q-.172-.067-.33-.067-.43 0-.43.465v.308h.66v.67h-.66v2.23h-.888v-2.246h-.483v-.67h.483v-.358q0-.494.322-.795.322-.302.872-.302.27 0 .45.056z"
     id="path499" />
  <g
     transform="matrix(1.341055 0 0 1.341055 -45.243695 -40.21872)"
     id="g507">
    <use
       y="37.552"
       x="42.284"
       xlink:href="#R"
       id="use501" />
    <use
       y="37.553"
       x="66.875"
       xlink:href="#J"
       id="use503" />
    <use
       y="37.553"
       x="66.876"
       xlink:href="#K"
       id="use505" />
  </g>
  <path
     d="M179.588 67.164h-.463v-1.658q0-.48-.148-.693-.148-.215-.496-.215-.295 0-.504.27-.205.27-.205.648v1.645h-.463v-1.714q0-.852-.67-.852-.304 0-.502.255-.197.255-.197.662v1.645h-.463v-2.883h.463v.456h.01q.308-.523.896-.523.295 0 .516.166.22.164.302.432.322-.598.96-.598.94 0 .94 1.175z"
     id="path509" />
  <g
     transform="matrix(1.341055 0 0 1.341055 -45.243695 -40.21872)"
     id="g521">
    <use
       xlink:href="#y"
       id="use511" />
    <use
       y="29.714"
       x="-83.83"
       xlink:href="#m"
       id="use513" />
    <use
       y="44.842"
       x="-7.451"
       xlink:href="#O"
       id="use515" />
    <use
       x="10.455"
       xlink:href="#AA"
       id="use517" />
    <use
       y="44.842"
       x="7.648"
       xlink:href="#K"
       id="use519" />
  </g>
  <path
     d="M100.16 76.94h-.463V75.28q0-.48-.148-.693-.148-.215-.496-.215-.295 0-.504.27-.205.27-.205.648v1.645h-.463v-1.714q0-.852-.67-.852-.304 0-.502.255-.197.255-.197.662v1.645h-.463V74.04h.463v.456h.01q.308-.523.896-.523.295 0 .516.166.22.164.302.432.322-.598.96-.598.94 0 .94 1.175z"
     id="path523" />
  <g
     transform="matrix(1.341055 0 0 1.341055 -45.243695 -40.21872)"
     id="g529">
    <use
       y="44.842"
       x="1.792"
       xlink:href="#O"
       id="use525" />
    <use
       y="7.288"
       x="-57.401"
       xlink:href="#y"
       id="use527" />
  </g>
  <path
     d="M105.813 76.94v-5.034a1.247 1.247 0 0 1 1.259-1.259h58.306a1.247 1.247 0 0 1 1.258 1.259v5.034a1.247 1.247 0 0 1-1.258 1.259h-58.306a1.247 1.247 0 0 1-1.259-1.259z"
     fill="#ffdbc7"
     id="path531" />
  <g
     transform="matrix(1.341055 0 0 1.341055 -45.243695 -40.21872)"
     id="g543">
    <use
       xlink:href="#AB"
       id="use533" />
    <use
       y="29.725"
       x="-20.85"
       xlink:href="#j"
       id="use535" />
    <use
       y="29.725"
       x="-17.333"
       xlink:href="#j"
       id="use537" />
    <use
       xlink:href="#AC"
       id="use539" />
    <use
       y="7.289"
       x="4.14"
       xlink:href="#w"
       id="use541" />
  </g>
  <path
     d="M132.677 76.94h-.9v-1.645q0-.63-.463-.63-.22 0-.358.188-.138.188-.138.47v1.615h-.9v-1.663q0-.612-.453-.612-.228 0-.366.18-.134.18-.134.49v1.604h-.9V74.04h.9v.45h.01q.138-.23.386-.375.25-.134.547-.134.612 0 .837.536.33-.536.97-.536.94 0 .94 1.16zm1.153-3.342q-.225 0-.37-.134-.143-.134-.143-.33 0-.2.143-.327.143-.127.37-.127.228 0 .37.127.143.127.143.327 0 .2-.143.333-.14.13-.37.13zm.44 3.342h-.9v-2.9h.9zm3.54 0h-.888v-1.604q0-.67-.48-.67-.23 0-.38.177-.134.177-.134.45v1.645h-.9V74.04h.9v.456h.01q.318-.527.94-.527.96 0 .96 1.2z"
     id="path545" />
  <g
     transform="matrix(1.341055 0 0 1.341055 -45.243695 -40.21872)"
     id="g553">
    <use
       y="29.725"
       x="-2.542"
       xlink:href="#j"
       id="use547" />
    <use
       y="44.842"
       x="8.348"
       xlink:href="#W"
       id="use549" />
    <use
       y="7.288"
       x="1.098"
       xlink:href="#x"
       id="use551" />
  </g>
  <path
     d="M153.88 76.94h-.888v-1.645q0-.63-.463-.63-.22 0-.358.188-.138.188-.138.47v1.615h-.9v-1.663q0-.612-.453-.612-.228 0-.366.18-.134.18-.134.49v1.604h-.9V74.04h.9v.45h.01q.138-.23.386-.375.25-.148.547-.148.612 0 .837.536.33-.536.97-.536.94 0 .94 1.16z"
     id="path555" />
  <g
     transform="matrix(1.341055 0 0 1.341055 -45.243695 -40.21872)"
     id="g561">
    <use
       y="29.725"
       x="9.44"
       xlink:href="#j"
       id="use557" />
    <use
       y="7.288"
       x="11.188"
       xlink:href="#x"
       id="use559" />
  </g>
  <path
     d="M164.622 73.347q-.172-.067-.33-.067-.43 0-.43.465v.308h.66v.67h-.66v2.23h-.888V74.7h-.483v-.67h.483v-.358q0-.494.322-.795.322-.302.872-.302.27 0 .45.056z"
     id="path563" />
  <g
     transform="matrix(1.341055 0 0 1.341055 -45.243695 -40.21872)"
     id="g585">
    <use
       x="68.342"
       xlink:href="#AA"
       id="use565" />
    <use
       y="44.842"
       x="67.97"
       xlink:href="#J"
       id="use567" />
    <use
       y="44.842"
       x="67.97"
       xlink:href="#K"
       id="use569" />
    <use
       x="76.708"
       xlink:href="#z"
       id="use571" />
    <use
       xlink:href="#AD"
       id="use573" />
    <use
       x="79.145"
       xlink:href="#AA"
       id="use575" />
    <use
       xlink:href="#AG"
       id="use577" />
    <use
       xlink:href="#AH"
       id="use579" />
    <use
       y="52.142"
       x="-49.469"
       xlink:href="#b"
       id="use581" />
    <use
       x="13.875"
       xlink:href="#AF"
       id="use583" />
  </g>
  <path
     d="M99.57 86.3h-.01v1.743h-.463V83.83h.463v.507h.01q.34-.577.998-.577.558 0 .872.402.312.386.312 1.037 0 .724-.353 1.16-.353.435-.966.435-.56 0-.865-.483zm-.01-1.164v.402q0 .358.23.61.233.248.6.248.42 0 .67-.322.24-.322.24-.893 0-.483-.223-.755-.223-.274-.603-.274-.402 0-.648.268-.245.28-.245.7z"
     id="path587" />
  <g
     transform="matrix(1.341055 0 0 1.341055 -45.243695 -40.21872)"
     id="g593">
    <use
       y="52.142"
       x="2.879"
       xlink:href="#O"
       id="use589" />
    <use
       y="14.588"
       x="-56.314"
       xlink:href="#y"
       id="use591" />
  </g>
  <path
     d="M107.49 86.728v-5.034a1.247 1.247 0 0 1 1.259-1.259h54.95a1.247 1.247 0 0 1 1.258 1.259v5.034a1.25 1.25 0 0 1-.097.483 1.247 1.247 0 0 1-1.163.776H108.75a1.247 1.247 0 0 1-1.259-1.259z"
     fill="#ffdbc7"
     id="path595" />
  <g
     transform="matrix(1.341055 0 0 1.341055 -45.243695 -40.21872)"
     id="g605">
    <use
       y="7.3"
       x="1.084"
       xlink:href="#AB"
       id="use597" />
    <use
       y="37.025"
       x="-19.764"
       xlink:href="#j"
       id="use599" />
    <use
       y="37.025"
       x="-16.248"
       xlink:href="#j"
       id="use601" />
    <use
       y="7.3"
       x="1.085"
       xlink:href="#AC"
       id="use603" />
  </g>
  <path
     d="M127.345 86.393h-.01v1.663h-.9V83.83h.9v.435h.01q.33-.504.94-.504.56 0 .865.386.308.384.308 1.046 0 .72-.358 1.16-.355.437-.947.437-.536 0-.795-.406zm-.027-1.184v.23q0 .3.158.488.158.188.402.188.304 0 .47-.233.17-.237.17-.668 0-.76-.6-.76-.274 0-.448.21-.172.205-.172.547zm3.594 1.52h-.9v-4.273h.9z"
     id="path607" />
  <use
     transform="matrix(1.341055 0 0 1.341055 -45.243695 -40.21872)"
     y="14.589"
     x="9.116"
     xlink:href="#w"
     id="use609" />
  <path
     d="M135.22 83.386q-.225 0-.37-.134-.143-.134-.143-.33 0-.2.143-.327.143-.127.37-.127.228 0 .37.127.143.127.143.327 0 .2-.143.333-.14.13-.37.13zm.44 3.342h-.9v-2.9h.9zm3.536 0h-.888v-1.604q0-.67-.48-.67-.23 0-.38.177-.134.177-.134.45v1.645h-.9V83.83h.9v.456h.01q.318-.527.94-.527.96 0 .96 1.2z"
     id="path611" />
  <g
     transform="matrix(1.341055 0 0 1.341055 -45.243695 -40.21872)"
     id="g617">
    <use
       y="52.142"
       x="7.053"
       xlink:href="#W"
       id="use613" />
    <use
       y="14.588"
       x="-.197"
       xlink:href="#x"
       id="use615" />
  </g>
  <path
     d="M152.144 86.728h-.888v-1.645q0-.63-.463-.63-.22 0-.358.188-.138.188-.138.47v1.615h-.9V85.06q0-.612-.453-.612-.228 0-.366.18-.134.18-.134.49v1.604h-.9V83.83h.9v.45h.01q.138-.23.386-.375.25-.148.547-.148.612 0 .837.536.33-.536.97-.536.94 0 .94 1.16z"
     id="path619" />
  <g
     transform="matrix(1.341055 0 0 1.341055 -45.243695 -40.21872)"
     id="g625">
    <use
       y="37.025"
       x="8.147"
       xlink:href="#j"
       id="use621" />
    <use
       y="14.588"
       x="9.893"
       xlink:href="#x"
       id="use623" />
  </g>
  <path
     d="M162.888 83.138q-.172-.067-.33-.067-.43 0-.43.465v.308h.66v.67h-.66v2.23h-.888V84.5h-.483v-.67h.483v-.358q0-.494.322-.795.322-.302.872-.302.27 0 .45.056z"
     id="path627" />
  <g
     transform="matrix(1.341055 0 0 1.341055 -45.243695 -40.21872)"
     id="g659">
    <use
       x="68.393"
       xlink:href="#AE"
       id="use629" />
    <use
       y="52.142"
       x="66.68"
       xlink:href="#J"
       id="use631" />
    <use
       y="52.142"
       x="66.68"
       xlink:href="#K"
       id="use633" />
    <use
       x="66.938"
       xlink:href="#AG"
       id="use635" />
    <use
       y="52.142"
       x="72.645"
       xlink:href="#K"
       id="use637" />
    <use
       y="59.99"
       x="-4.862"
       xlink:href="#N"
       id="use639" />
    <use
       y="59.988"
       x="-13.746"
       xlink:href="#R"
       id="use641" />
    <use
       y="59.99"
       x="10.845"
       xlink:href="#J"
       id="use643" />
    <use
       y="59.98"
       x="3.689"
       xlink:href="#M"
       id="use645" />
    <use
       y="59.988"
       x=".074"
       xlink:href="#O"
       id="use647" />
    <use
       y="59.988"
       x="-67.503"
       xlink:href="#c"
       id="use649" />
    <use
       y="59.99"
       x="12.457"
       xlink:href="#L"
       id="use651" />
    <use
       y="59.988"
       x="-62.783"
       xlink:href="#c"
       id="use653" />
    <use
       y="59.99"
       x="22.144"
       xlink:href="#K"
       id="use655" />
    <use
       y="59.99"
       x="8.767"
       xlink:href="#Q"
       id="use657" />
  </g>
  <path
     d="M117.932 96.61l-.45 1.387h-.33l.33-1.387z"
     id="path661" />
  <g
     transform="matrix(1.341055 0 0 1.341055 -45.243695 -40.21872)"
     id="g669">
    <use
       xlink:href="#AI"
       fill="#ffc7eb"
       id="use663" />
    <use
       y="22.437"
       x="9.096"
       xlink:href="#v"
       id="use665" />
    <use
       y="44.872"
       x="-11.19"
       xlink:href="#j"
       id="use667" />
  </g>
  <path
     d="M134.458 97.253h-.9v-.397h-.01q-.304.47-.893.47-.542 0-.872-.38-.33-.384-.33-1.07 0-.716.362-1.147.362-.432.94-.432.558 0 .778.4h.01V92.98h.907zm-.872-1.404v-.217q0-.268-.164-.47-.164-.188-.425-.188-.295 0-.463.233-.166.23-.166.637 0 .38.16.586.16.205.445.205.27 0 .44-.217.172-.217.172-.577z"
     id="path671" />
  <g
     transform="matrix(1.341055 0 0 1.341055 -45.243695 -40.21872)"
     id="g727">
    <use
       y="59.989"
       x="3.589"
       xlink:href="#V"
       id="use673" />
    <use
       y="59.989"
       x="3.588"
       xlink:href="#W"
       id="use675" />
    <use
       y="59.988"
       x="3.589"
       xlink:href="#X"
       id="use677" />
    <use
       y="59.99"
       x="3.589"
       xlink:href="#Y"
       id="use679" />
    <use
       y="59.989"
       x="10.152"
       xlink:href="#W"
       id="use681" />
    <use
       y="59.989"
       x="12.046"
       xlink:href="#W"
       id="use683" />
    <use
       y="59.99"
       x="45.272"
       xlink:href="#N"
       id="use685" />
    <use
       y="59.99"
       x="-.767"
       xlink:href="#b"
       id="use687" />
    <use
       y="59.989"
       x="8.544"
       xlink:href="#Z"
       id="use689" />
    <use
       y="59.99"
       x="60.5"
       xlink:href="#K"
       id="use691" />
    <use
       y="44.872"
       x="57.192"
       xlink:href="#h"
       id="use693" />
    <use
       y="59.99"
       x="59.996"
       xlink:href="#L"
       id="use695" />
    <use
       y="59.988"
       x="-15.244"
       xlink:href="#c"
       id="use697" />
    <use
       y="59.988"
       x="-12.714"
       xlink:href="#c"
       id="use699" />
    <use
       y="59.99"
       x="56.586"
       xlink:href="#Q"
       id="use701" />
    <use
       y="59.99"
       x="17.036"
       xlink:href="#b"
       id="use703" />
    <use
       y="67.287"
       x="-16.248"
       xlink:href="#R"
       id="use705" />
    <use
       y="67.288"
       x="8.342"
       xlink:href="#J"
       id="use707" />
    <use
       y="67.28"
       x="1.196"
       xlink:href="#M"
       id="use709" />
    <use
       y="67.288"
       x="-2.428"
       xlink:href="#O"
       id="use711" />
    <use
       y="67.288"
       x=".576"
       xlink:href="#O"
       id="use713" />
    <use
       y="67.288"
       x="14.217"
       xlink:href="#K"
       id="use715" />
    <use
       y="67.29"
       x="2.828"
       xlink:href="#P"
       id="use717" />
    <use
       y="67.287"
       x="-2.241"
       xlink:href="#R"
       id="use719" />
    <use
       y="67.28"
       x="12.758"
       xlink:href="#M"
       id="use721" />
    <use
       y="67.29"
       x="-35.717"
       xlink:href="#b"
       id="use723" />
    <use
       y="67.288"
       x="15.28"
       xlink:href="#N"
       id="use725" />
  </g>
  <path
     d="M117.963 106.4l-.45 1.387h-.33l.33-1.387z"
     id="path729" />
  <g
     transform="matrix(1.341055 0 0 1.341055 -45.243695 -40.21872)"
     id="g775">
    <use
       y="7.298"
       xlink:href="#AI"
       fill="#ffc7eb"
       id="use731" />
    <use
       y="29.736"
       x="9.12"
       xlink:href="#v"
       id="use733" />
    <use
       y="52.17"
       x="-11.164"
       xlink:href="#j"
       id="use735" />
    <use
       y="67.288"
       x="3.614"
       xlink:href="#U"
       id="use737" />
    <use
       y="67.289"
       x="3.614"
       xlink:href="#V"
       id="use739" />
    <use
       y="67.287"
       x="3.613"
       xlink:href="#W"
       id="use741" />
    <use
       y="67.288"
       x="3.613"
       xlink:href="#X"
       id="use743" />
    <use
       y="67.288"
       x="3.603"
       xlink:href="#Y"
       id="use745" />
    <use
       y="67.287"
       x="10.176"
       xlink:href="#W"
       id="use747" />
    <use
       y="67.287"
       x="12.07"
       xlink:href="#W"
       id="use749" />
    <use
       y="67.29"
       x="-3.178"
       xlink:href="#b"
       id="use751" />
    <use
       y="37.57"
       x="-9.295"
       xlink:href="#t"
       id="use753" />
    <use
       y="67.289"
       x="42.826"
       xlink:href="#Q"
       id="use755" />
    <use
       y="67.287"
       x="-21.268"
       xlink:href="#c"
       id="use757" />
    <use
       y="67.289"
       x="48.032"
       xlink:href="#Q"
       id="use759" />
    <use
       y="67.29"
       x="8.481"
       xlink:href="#b"
       id="use761" />
    <use
       y="67.287"
       x="-14.72"
       xlink:href="#c"
       id="use763" />
    <use
       y="67.29"
       x="13.533"
       xlink:href="#b"
       id="use765" />
    <use
       y="67.288"
       x="60.916"
       xlink:href="#O"
       id="use767" />
    <use
       y="67.288"
       x="74.556"
       xlink:href="#K"
       id="use769" />
    <use
       y="52.169"
       x="-55.748"
       xlink:href="#p"
       id="use771" />
    <use
       y="74.588"
       x="1.222"
       xlink:href="#L"
       id="use773" />
  </g>
  <path
     d="M93.848 116.725v-.496q.378.28.83.28.61 0 .61-.406 0-.115-.054-.194-.05-.08-.14-.143-.087-.062-.21-.1-.118-.05-.255-.105-.192-.076-.338-.152-.143-.08-.24-.174-.094-.1-.148-.223-.048-.123-.048-.3 0-.2.094-.358.094-.158.248-.26.156-.107.353-.16.2-.054.412-.054.375 0 .67.13v.47q-.318-.21-.732-.21-.13 0-.233.03-.105.027-.18.08-.074.054-.115.13-.04.074-.04.164 0 .113.04.188.043.076.134.134.08.06.192.107.113.048.255.105.192.074.343.152.152.076.26.174.107.094.164.223.06.127.06.302 0 .215-.094.37-.094.158-.25.26-.158.105-.362.156-.205.05-.432.05-.445 0-.772-.172z"
     id="path777" />
  <g
     transform="matrix(1.341055 0 0 1.341055 -45.243695 -40.21872)"
     id="g785">
    <use
       y="74.588"
       x="10.204"
       xlink:href="#K"
       id="use779" />
    <use
       y="74.588"
       x=".641"
       xlink:href="#O"
       id="use781" />
    <use
       y="37.035"
       x="-58.552"
       xlink:href="#y"
       id="use783" />
  </g>
  <path
     d="M106.886 113.217h-1.578v1.397h1.462v.425h-1.462v1.8h-.473v-4.042h2.052z"
     id="path787" />
  <g
     transform="matrix(1.341055 0 0 1.341055 -45.243695 -40.21872)"
     id="g797">
    <use
       y="74.58"
       x="11.338"
       xlink:href="#M"
       id="use789" />
    <use
       y="74.589"
       x="3.91"
       xlink:href="#Q"
       id="use791" />
    <use
       y="74.588"
       x="9.22"
       xlink:href="#O"
       id="use793" />
    <use
       y="74.587"
       x="2.164"
       xlink:href="#R"
       id="use795" />
  </g>
  <path
     d="M116.72 116.83v-5.034a1.247 1.247 0 0 1 1.259-1.259h36.494a1.247 1.247 0 0 1 1.259 1.259v5.034a1.247 1.247 0 0 1-1.259 1.259h-36.497a1.247 1.247 0 0 1-1.259-1.259z"
     fill="#ffc7eb"
     id="path799" />
  <use
     transform="matrix(1.341055 0 0 1.341055 -45.243695 -40.21872)"
     y="37.036"
     x="6.588"
     xlink:href="#v"
     id="use801" />
  <path
     d="M126.15 115.64h-1.883q.046.63.79.63.476 0 .837-.225v.644q-.4.215-1.04.215-.697 0-1.086-.386-.386-.402-.386-1.082 0-.72.416-1.14.416-.42 1.026-.42.63 0 .975.375.346.376.346 1.02zm-.826-.547q0-.62-.502-.62-.215 0-.37.177-.156.177-.188.443z"
     id="path803" />
  <g
     transform="matrix(1.341055 0 0 1.341055 -45.243695 -40.21872)"
     id="g841">
    <use
       y="74.588"
       x="1.082"
       xlink:href="#U"
       id="use805" />
    <use
       y="74.589"
       x="1.081"
       xlink:href="#V"
       id="use807" />
    <use
       y="74.589"
       x="1.082"
       xlink:href="#W"
       id="use809" />
    <use
       y="74.588"
       x="1.083"
       xlink:href="#X"
       id="use811" />
    <use
       y="74.588"
       x="1.083"
       xlink:href="#Y"
       id="use813" />
    <use
       y="74.589"
       x="7.645"
       xlink:href="#W"
       id="use815" />
    <use
       y="74.589"
       x="9.548"
       xlink:href="#W"
       id="use817" />
    <use
       y="59.47"
       x="4.058"
       xlink:href="#j"
       id="use819" />
    <use
       y="74.588"
       x="17.65"
       xlink:href="#U"
       id="use821" />
    <use
       y="74.59"
       x="-.714"
       xlink:href="#b"
       id="use823" />
    <use
       y="44.87"
       x="-6.833"
       xlink:href="#t"
       id="use825" />
    <use
       y="74.589"
       x="45.29"
       xlink:href="#Q"
       id="use827" />
    <use
       y="74.59"
       x="6.918"
       xlink:href="#b"
       id="use829" />
    <use
       y="74.588"
       x="16.23"
       xlink:href="#Z"
       id="use831" />
    <use
       y="74.588"
       x="68.175"
       xlink:href="#K"
       id="use833" />
    <use
       y="74.589"
       x="54.8"
       xlink:href="#Q"
       id="use835" />
    <use
       y="74.588"
       x="66.955"
       xlink:href="#L"
       id="use837" />
    <use
       y="59.47"
       x="68.563"
       xlink:href="#h"
       id="use839" />
  </g>
  <g
     fill-rule="evenodd"
     fill="#fff"
     id="g847">
    <path
       opacity="0"
       d="M0 119.38h180V0H0z"
       id="path843" />
    <use
       transform="matrix(1.071831 0 0 1.522688 -2.737594 -57.380146)"
       xlink:href="#AJ"
       id="use845" />
  </g>
  <path
     d="M56.47 4.602h24.053v11.07H56.47z"
     fill="#bdd7ee"
     id="path849" />
  <g
     transform="matrix(1.262383 0 0 1.262383 -12.405833 -51.080846)"
     fill="#262626"
     id="g899">
    <path
       d="M11.142 50.646q0 .025-.012.046-.012.02-.046.032-.032.01-.086.016-.05.01-.13.01-.076 0-.13-.01-.054-.007-.086-.016-.032-.012-.046-.032-.012-.02-.012-.046V46.68q0-.025.012-.046.016-.02.048-.03.035-.012.086-.02.054-.01.115-.01.08 0 .13.01.054.007.086.02.032.01.046.03.012.02.012.046zm3.513.004q0 .025-.012.046-.012.016-.04.03-.03.012-.08.02-.05.007-.115.007-.08 0-.13-.007-.05-.007-.08-.02-.03-.012-.04-.03-.012-.02-.012-.046v-1.683q0-.246-.038-.395-.038-.15-.112-.258-.074-.108-.19-.166-.115-.058-.27-.058-.198 0-.395.14-.198.14-.415.412v2.008q0 .025-.012.046-.012.016-.042.03-.03.012-.08.02-.05.007-.13.007-.076 0-.115-.007-.05-.007-.083-.02-.03-.012-.04-.03-.01-.02-.01-.046v-2.874q0-.025.01-.04.01-.02.038-.032.03-.016.074-.02.046-.007.118-.007.07 0 .115.007.048.004.074.02.025.012.035.032.012.016.012.04v.38q.23-.27.482-.395.23-.115.49-.115.288 0 .482.1.198.096.32.258.12.16.173.383.054.217.054.523zm3.92-.21q0 .092-.012.146-.012.054-.038.08-.025.025-.076.048-.05.023-.118.035-.063.016-.138.025-.074.01-.146.01-.224 0-.383-.058-.16-.06-.262-.18-.115-.12-.15-.303-.046-.184-.046-.435v-1.68h-.403q-.048 0-.076-.05-.03-.05-.03-.166 0-.06.007-.115.01-.04.023-.067.012-.03.032-.038.023-.012.048-.012h.4v-.684q0-.023.01-.04.012-.02.04-.032.032-.016.083-.023.05-.007.115-.007.08 0 .13.007.05.007.08.023.03.012.042.032.012.02.012.04v.684h.738q.025 0 .046.012.02.01.032.038.016.025.023.067.007.04.007.115 0 .115-.03.166-.03.05-.076.05h-.738v1.614q0 .297.086.46.1.15.316.15.074 0 .13-.012.058-.016.115-.032.046-.016.076-.03.032-.016.058-.016.016 0 .03.01.016.007.023.03.01.023.016.06.007.038.007.096zm3.106.21q0 .025-.012.046-.012.016-.04.03-.03.012-.08.02-.05.007-.115.007-.08 0-.13-.007-.05-.007-.08-.02-.03-.012-.04-.03-.012-.02-.012-.046v-1.683q0-.246-.038-.395-.038-.15-.112-.258-.074-.108-.19-.166-.115-.058-.27-.058-.198 0-.395.14-.198.14-.415.412v2.008q0 .025-.012.046-.012.016-.04.03-.03.012-.08.02-.05.007-.13.007-.076 0-.115-.007-.05-.007-.083-.02-.03-.012-.042-.03-.01-.02-.01-.046v-4.265q0-.025.01-.046.012-.02.042-.032.032-.012.083-.02.05-.007.115-.007.08 0 .13.007.05.007.08.02.03.012.04.032.012.02.012.046v1.72q.227-.24.457-.354.23-.118.463-.118.288 0 .482.1.198.096.32.258.12.16.173.383.054.217.054.527z"
       id="path851" />
    <g
       transform="matrix(1.152818 0 0 1.152818 -1.542067 -6.606605)"
       id="g859">
      <use
         xlink:href="#AK"
         id="use853" />
      <use
         xlink:href="#AL"
         id="use855" />
      <use
         xlink:href="#AM"
         id="use857" />
    </g>
    <path
       d="M33.695 50.652q0 .038-.025.058-.025.02-.07.03-.046.01-.13.01-.083 0-.134-.01-.048-.01-.07-.03-.023-.02-.023-.058v-.288q-.188.202-.422.31-.23.112-.49.112-.227 0-.412-.06-.182-.058-.31-.17-.127-.112-.202-.274-.07-.16-.07-.37 0-.242.1-.422.1-.18.285-.297.184-.118.453-.175.27-.06.604-.06h.395v-.224q0-.166-.035-.294-.035-.127-.115-.21-.076-.086-.202-.127-.125-.046-.307-.046-.196 0-.352.048-.153.046-.27.104-.115.054-.196.104-.076.046-.115.046-.025 0-.046-.012-.02-.012-.035-.038-.012-.025-.02-.063-.007-.04-.007-.1 0-.08.01-.125.012-.048.054-.1.046-.042.15-.096.104-.058.242-.104.138-.048.3-.076.16-.032.33-.032.31 0 .527.07.217.07.352.208.134.134.196.334.06.2.06.47zm-.523-1.312h-.45q-.217 0-.377.038-.16.035-.265.108-.104.07-.157.173-.048.1-.048.23 0 .224.14.346.144.13.4.13.208 0 .383-.104.18-.104.374-.323z"
       id="path861" />
    <g
       transform="matrix(1.152818 0 0 1.152818 -1.542067 -6.606605)"
       id="g867">
      <use
         x="5.672"
         xlink:href="#AM"
         id="use863" />
      <use
         xlink:href="#AN"
         id="use865" />
    </g>
    <path
       d="M42.954 47.963q0 .07-.004.118-.004.048-.012.076-.01.025-.025.04-.012.012-.038.012-.025 0-.063-.012-.035-.016-.083-.03-.046-.016-.115-.03-.058-.012-.125-.012-.08 0-.157.032-.076.032-.16.115-.083.074-.175.196-.092.12-.204.297v1.89q0 .025-.012.046-.012.016-.04.03-.03.012-.08.02-.05.007-.13.007-.076 0-.115-.007-.05-.007-.083-.02-.03-.012-.042-.03-.01-.02-.01-.046v-2.874q0-.025.01-.04.01-.02.038-.032.03-.016.074-.02.046-.007.118-.007.07 0 .115.007.048.003.074.02.025.012.035.032.012.016.012.04v.418q.118-.173.23-.28.115-.108.198-.17.092-.063.182-.086.092-.025.184-.025.04 0 .092.007.054.004.112.016.058.012.115.03.048.016.067.032.02.016.025.032.007.012.01.035.007.023.007.067.004.042.004.115zm.677 2.3q0 .1-.01.182-.01.083-.032.157-.023.074-.06.144-.035.074-.1.153l-.438.657q-.016.023-.038.038-.02.016-.05.03-.03.012-.07.016-.038.007-.1.007-.054 0-.092-.007-.035-.003-.05-.016-.016-.01-.02-.03 0-.02.012-.046l.424-.878v-.41q0-.086.016-.138.02-.05.058-.076.038-.025.096-.035.058-.01.14-.01.08 0 .138.01.058.01.092.035.038.025.054.076.02.05.02.138zm6.536-2.505q0 .023-.007.054-.007.032-.023.08l-.846 2.73q-.01.035-.032.058-.02.023-.058.035-.035.012-.1.016-.063.007-.16.007-.1 0-.166-.007-.067-.007-.108-.02-.038-.012-.058-.035-.02-.023-.03-.054l-.604-2.075-.007-.03-.007.03-.56 2.075q-.01.035-.032.058-.02.023-.06.035-.04.012-.108.016-.063.007-.16.007-.1 0-.16-.007-.06-.007-.115-.02-.038-.012-.058-.035-.02-.023-.03-.054l-.84-2.73q-.016-.048-.023-.08-.007-.032-.007-.054 0-.03.012-.046.012-.02.04-.03.032-.012.083-.016.05-.004.125-.004.1 0 .144.007.054.004.083.016.03.01.04.032.012.02.023.048l.7 2.398.007-.03.634-2.37q.007-.03.02-.048.016-.023.046-.032.03-.012.076-.016.05-.007.13-.007.076 0 .125.007.05.004.08.016.03.01.04.03.012.02.02.046l.687 2.375.007.03.003-.03.684-2.37q.007-.03.02-.048.016-.023.046-.032.032-.012.083-.016.054-.007.138-.007.076 0 .12.003.048.004.074.016.03.012.038.03.012.016.012.046zm3.015 1.306q0 .125-.063.18-.06.05-.14.05h-1.883q0 .24.048.43.048.19.16.33.112.138.29.21.18.074.438.074.204 0 .364-.032.16-.035.274-.076.118-.04.19-.074.076-.035.115-.035.023 0 .038.012.02.01.03.032.01.023.012.063.007.038.007.096 0 .042-.003.074-.004.03-.01.054-.004.023-.016.04-.01.02-.03.038-.016.016-.115.058-.086.038-.224.076-.138.038-.32.067-.18.032-.383.032-.354 0-.623-.1-.265-.1-.447-.294-.182-.196-.274-.49-.092-.294-.092-.684 0-.37.096-.664.096-.297.274-.5.182-.208.438-.316.256-.112.572-.112.34 0 .576.108.24.108.392.294.153.182.224.43.074.246.074.527zm-.53-.157q.01-.415-.184-.65-.19-.236-.572-.236-.196 0-.34.074-.146.074-.246.196-.1.12-.153.285-.054.16-.06.346zm5.243 1.72q0 .025-.012.046-.01.02-.038.032-.025.01-.07.016-.046.007-.108.007-.067 0-.112-.007-.046-.007-.074-.016-.03-.012-.04-.032-.012-.02-.012-.046v-.38q-.227.246-.46.383-.23.138-.534.138-.316 0-.54-.12-.224-.125-.364-.332-.138-.21-.202-.492-.063-.285-.063-.597 0-.37.08-.67.08-.3.236-.51.157-.21.386-.323.233-.115.536-.115.254 0 .46.112.21.108.415.323V46.38q0-.023.01-.04.012-.023.046-.032.032-.012.08-.02.05-.01.115-.01.08 0 .13.01.05.007.08.02.03.01.04.032.016.02.016.04zm-.53-2.02q-.214-.265-.415-.403-.198-.14-.415-.14-.202 0-.34.096-.14.096-.23.254-.086.157-.115.354-.038.198-.038.403 0 .217.032.424.035.208.118.37.083.16.23.258.138.096.346.096.115 0 .202-.03.1-.03.2-.096.115-.067.214-.173.112-.108.236-.265z"
       id="path869" />
    <g
       transform="matrix(1.152818 0 0 1.152818 -1.542067 -6.606605)"
       id="g875">
      <use
         x="31.388"
         xlink:href="#AK"
         id="use871" />
      <use
         x="31.404"
         xlink:href="#AL"
         id="use873" />
    </g>
    <path
       d="M64.92 50.21q0 .054-.003.096-.004.038-.012.067-.007.025-.02.048-.01.02-.05.06-.038.038-.134.1-.096.058-.217.115-.118.046-.258.074-.14.03-.29.03-.31 0-.55-.115-.24-.115-.403-.297-.16-.198-.246-.482-.083-.288-.083-.66 0-.424.115-.73.115-.307.285-.5.182-.196.424-.288.246-.096.53-.096.138 0 .265.025.13.025.24.067.108.04.19.096.086.054.125.092.038.038.05.06.016.023.025.054.01.03.012.067.004.038.004.096 0 .125-.03.175-.03.048-.07.048-.048 0-.112-.05-.06-.054-.157-.118-.096-.063-.233-.115-.134-.054-.32-.054-.38 0-.584.294-.202.29-.202.846 0 .277.05.49.054.208.157.348.115.14.25.21.15.067.34.067.182 0 .32-.058.138-.058.236-.125.115-.07.17-.125.07-.058.108-.058.023 0 .038.012.016.012.025.046.012.03.016.076.007.046.007.108zm3.11.438q0 .025-.012.046-.01.016-.038.03-.03.012-.076.02-.046.007-.112.007-.074 0-.12-.007-.046-.007-.074-.02-.025-.012-.035-.03-.01-.02-.01-.046v-.38q-.246.27-.484.395-.24.125-.484.125-.288 0-.484-.096-.196-.096-.316-.258-.12-.166-.175-.383-.05-.23-.05-.534v-1.743q0-.025.01-.04.012-.02.046-.032.032-.016.083-.02.05-.007.115-.007.076 0 .115.007.05.003.08.02.032.012.046.032.012.016.012.04v1.672q0 .254.035.406.038.15.112.258.076.115.19.166.115.058.27.058.198 0 .392-.14.198-.14.418-.412v-2.008q0-.025.01-.042.012-.02.046-.032.032-.016.08-.02.05-.007.13-.007.076 0 .115.007.05.004.08.02.03.012.04.032.016.016.016.042z"
       id="path877" />
    <g
       transform="matrix(1.152818 0 0 1.152818 -1.542067 -6.606605)"
       id="g883">
      <use
         x="38.954"
         xlink:href="#AL"
         id="use879" />
      <use
         x="41.138"
         xlink:href="#AL"
         id="use881" />
    </g>
    <g
       transform="matrix(1.152818 0 0 1.152818 -66.336724 1.119533)"
       id="g889">
      <use
         x="44.61"
         xlink:href="#AL"
         id="use885" />
      <use
         xlink:href="#AO"
         id="use887" />
    </g>
    <path
       d="M20.94 58.375q0 .025-.012.046-.012.016-.04.03-.03.012-.08.02-.05.007-.127.007-.08 0-.13-.007-.05-.007-.083-.02-.03-.012-.04-.03-.012-.02-.012-.046v-1.748q0-.182-.032-.332-.032-.15-.104-.258-.07-.108-.18-.166-.108-.058-.256-.058-.182 0-.37.14-.182.14-.403.412v2.008q0 .025-.012.046-.012.016-.046.03-.03.012-.08.02-.05.007-.127.007-.074 0-.127-.007-.05-.007-.083-.02-.03-.012-.04-.03-.01-.02-.01-.046v-1.747q0-.182-.035-.332-.035-.15-.104-.258-.07-.108-.18-.166-.104-.058-.254-.058-.182 0-.37.14-.184.14-.403.412v2.008q0 .025-.012.046-.012.016-.04.03-.03.012-.08.02-.05.007-.13.007-.076 0-.127-.007-.05-.007-.083-.02-.03-.012-.04-.03-.01-.02-.01-.046V55.5q0-.025.01-.04.01-.02.038-.032.03-.016.074-.02.046-.007.118-.007.07 0 .115.007.048.003.074.02.025.012.035.032.012.016.012.04v.38q.242-.27.47-.395.23-.127.463-.127.18 0 .32.04.144.04.254.118.108.074.184.18.076.104.127.23.144-.157.27-.265.13-.108.25-.175.12-.067.233-.096.115-.032.23-.032.277 0 .466.1.188.096.303.258.118.16.166.383.05.217.05.46z"
       id="path891" />
    <use
       transform="matrix(1.152818 0 0 1.152818 -66.336724 1.119533)"
       x="42.216"
       xlink:href="#AN"
       id="use893" />
    <use
       transform="matrix(1.152818 0 0 1.152818 14.824007 -6.606605)"
       y="6.78"
       x="-58.593"
       xlink:href="#AO"
       id="use895" />
    <path
       d="M31.886 54.4q0 .06-.007.1-.006.035-.016.058-.007.023-.02.032-.012.006-.032.006-.023 0-.058-.012-.032-.016-.08-.032-.048-.02-.115-.032-.063-.016-.15-.016-.118 0-.202.038-.083.038-.134.12-.05.08-.074.21-.023.115-.023.31v.31h.642q.025 0 .04.012.02.01.032.038.016.025.023.067.01.04.01.115 0 .115-.03.166-.03.05-.076.05h-.642v2.52q0 .025-.012.046-.012.016-.046.03-.03.012-.08.02-.05.006-.115.006-.076 0-.115-.006-.05-.006-.083-.02-.03-.012-.042-.03-.012-.02-.012-.046v-2.527h-.43q-.05 0-.076-.05-.025-.05-.025-.166 0-.06.006-.115.007-.04.02-.067.012-.03.032-.038.02-.012.046-.012h.406V55.2q0-.3.054-.514.058-.217.173-.354.115-.138.288-.202.175-.067.412-.067.112 0 .217.023.115.02.16.046.058.023.076.04.02.02.032.05.012.03.016.074.006.04.006.115zm3.343 3.845q0 .092-.012.146-.012.054-.038.08-.025.025-.076.048-.05.023-.118.035-.063.016-.138.025-.074.01-.146.01-.224 0-.383-.058-.16-.06-.262-.18-.115-.12-.15-.303-.046-.184-.046-.435v-1.68h-.403q-.048 0-.076-.05-.03-.05-.03-.166 0-.06.006-.115.01-.04.023-.067.012-.03.032-.038.023-.012.048-.012h.4v-.684q0-.023.01-.04.012-.02.04-.032.032-.016.083-.023.05-.007.115-.007.08 0 .13.007.05.006.08.023.03.012.04.032.012.02.012.04v.684h.738q.025 0 .046.012.02.01.032.038.016.025.023.067.006.04.006.115 0 .115-.03.166-.03.05-.076.05h-.738v1.614q0 .297.086.46.1.15.316.15.074 0 .13-.012.058-.016.115-.032.046-.016.076-.03.032-.016.058-.016.016 0 .03.01.016.006.023.03.01.023.016.06.006.038.006.096zm3.113.21q0 .025-.012.046-.012.016-.04.03-.03.012-.08.02-.05.006-.115.006-.08 0-.13-.006-.05-.006-.08-.02-.03-.012-.04-.03-.012-.02-.012-.046v-1.683q0-.246-.038-.395-.038-.15-.112-.258-.074-.108-.19-.166-.115-.058-.27-.058-.198 0-.395.14-.198.14-.415.412v2.008q0 .025-.012.046-.012.016-.04.03-.03.012-.08.02-.05.006-.13.006-.076 0-.115-.006-.05-.006-.083-.02-.03-.012-.042-.03-.01-.02-.01-.046V54.2q0-.025.01-.046.012-.02.042-.032.032-.012.083-.02.05-.006.115-.006.08 0 .13.006.05.007.08.02.03.012.04.032.012.02.012.046v1.72q.227-.24.457-.354.23-.118.463-.118.288 0 .482.1.198.096.32.258.12.16.173.383.054.217.054.527zm3.4-1.56q0 .125-.063.18-.06.05-.14.05h-1.884q0 .24.048.43.048.19.16.33.112.138.29.21.18.074.438.074.204 0 .364-.032.16-.035.274-.076.118-.04.19-.074.076-.035.115-.035.023 0 .038.012.02.01.03.032.01.023.012.063.006.038.006.096 0 .04-.003.074-.004.03-.01.054-.004.023-.016.04-.01.02-.03.038-.016.016-.115.058-.086.038-.224.076-.138.038-.32.067-.18.032-.383.032-.354 0-.623-.1-.265-.1-.447-.294-.182-.196-.274-.49-.092-.294-.092-.684 0-.37.096-.664.096-.297.274-.5.182-.208.438-.316.256-.112.572-.112.34 0 .576.108.24.108.392.294.153.182.224.43.074.246.074.527zm-.53-.157q.01-.415-.184-.65-.19-.236-.572-.236-.196 0-.34.074-.146.074-.246.196-.1.12-.153.285-.054.16-.06.346zm3.502 1.453q0 .224-.076.3-.074.074-.265.074-.184 0-.258-.074-.074-.074-.074-.29 0-.224.074-.297.076-.076.27-.076.184 0 .258.074.074.074.074.29zm1.44 0q0 .224-.074.3-.074.074-.265.074-.184 0-.258-.074-.074-.074-.074-.29 0-.224.074-.297.076-.076.265-.076.188 0 .258.074.074.074.074.29zm1.443 0q0 .224-.076.3-.074.074-.265.074-.184 0-.258-.074-.074-.074-.074-.29 0-.224.074-.297.076-.076.27-.076.184 0 .258.074.074.074.074.29z"
       id="path897" />
  </g>
  <path
     d="M77.564 16.244c1.838 0 3.327-.124 3.327-.277V4.325c0-.154-1.49-.277-3.327-.277M84.7 16.247c-1.838 0-3.327-.124-3.327-.277V4.328c0-.154 1.49-.277 3.327-.277"
     fill="none"
     stroke-miterlimit="10"
     stroke="#000"
     stroke-width="1.109"
     id="path901" />
  <g
     style="fill:#666666;fill-rule:evenodd;stroke:none"
     id="g905"
     clip-path="url(#A)"
     transform="matrix(0.106789,0,0,-0.494156,62.384462,119.38037)">
    <path
       style="stroke-width:0.16;stroke:none"
       inkscape:connector-curvature="0"
       id="path903"
       d="m 249.485,0 h 6.595 v 240.72 h -6.595 z" />
  </g>
  <g
     style="fill:url(#radialGradient1754);fill-opacity:1;fill-rule:evenodd;stroke:none;stroke-width:0.99989271;stroke-miterlimit:4;stroke-dasharray:none"
     id="g909"
     clip-path="url(#AP)"
     transform="matrix(0,-0.106789,-0.756311,0,181.04523,27.346407)">
    <path
       style="fill:url(#radialGradient1756);fill-opacity:1;stroke-width:0.99989271;stroke-miterlimit:4;stroke-dasharray:none;stroke:none"
       inkscape:connector-curvature="0"
       id="path907"
       d="m 249.485,0 h 6.595 v 240.72 h -6.595 z" />
  </g>
</svg>
