<?xml version="1.0" encoding="UTF-8" standalone="no"?>
<svg
   xmlns:dc="http://purl.org/dc/elements/1.1/"
   xmlns:cc="http://creativecommons.org/ns#"
   xmlns:rdf="http://www.w3.org/1999/02/22-rdf-syntax-ns#"
   xmlns:svg="http://www.w3.org/2000/svg"
   xmlns="http://www.w3.org/2000/svg"
   xmlns:xlink="http://www.w3.org/1999/xlink"
   xmlns:sodipodi="http://sodipodi.sourceforge.net/DTD/sodipodi-0.dtd"
   xmlns:inkscape="http://www.inkscape.org/namespaces/inkscape"
   viewBox="0 0 180.107 119.38"
   height="451.2"
   width="680.719"
   version="1.1"
   id="svg1149"
   sodipodi:docname="suggtype-nv.svg"
   inkscape:version="0.92.4 (5da689c313, 2019-01-14)">
  <metadata
     id="metadata1153">
    <rdf:RDF>
      <cc:Work
         rdf:about="">
        <dc:format>image/svg+xml</dc:format>
        <dc:type
           rdf:resource="http://purl.org/dc/dcmitype/StillImage" />
        <dc:title></dc:title>
      </cc:Work>
    </rdf:RDF>
  </metadata>
  <sodipodi:namedview
     pagecolor="#ffffff"
     bordercolor="#666666"
     borderopacity="1"
     objecttolerance="10"
     gridtolerance="10"
     guidetolerance="10"
     inkscape:pageopacity="0"
     inkscape:pageshadow="2"
     inkscape:window-width="1775"
     inkscape:window-height="870"
     id="namedview1151"
     showgrid="false"
     inkscape:zoom="1.4501154"
     inkscape:cx="369.55434"
     inkscape:cy="337.341"
     inkscape:window-x="0"
     inkscape:window-y="0"
     inkscape:window-maximized="0"
     inkscape:current-layer="g1085" />
  <style
     id="style2"><![CDATA[.D{fill-rule:evenodd}.E{fill:#f2f2f2}.F{fill:none}.G{stroke-miterlimit:10}.H{clip-rule:evenodd}.I{stroke:#f2f2f2}.J{fill:#c7ffdb}.K{fill:#c7ebff}.L{fill:#ffdbc7}.M{fill:#ffc7eb}.N{stroke-width:.96}.O{stroke-width:.339}]]></style>
  <defs
     id="defs91">
    <clipPath
       id="A">
      <path
         d="M0 0h510.24v338.4H0z"
         class="H"
         id="path4" />
    </clipPath>
    <clipPath
       id="B">
      <path
         d="M0 0h510.24v338.4H0z"
         class="H"
         id="path7" />
    </clipPath>
    <clipPath
       id="C">
      <path
         d="M0 0h510.24v338.4H0z"
         class="H"
         id="path10" />
    </clipPath>
    <clipPath
       id="D">
      <path
         d="M0 0h510.24v338.4H0z"
         class="H"
         id="path13" />
    </clipPath>
    <clipPath
       id="E">
      <path
         d="M0 0h510.24v338.4H0z"
         class="H"
         id="path16" />
    </clipPath>
    <path
       id="F"
       d="M1089.2 8.373q-.296 0-.504-.202-.208-.202-.208-.51 0-.31.208-.51.208-.208.504-.208.302 0 .51.208.215.202.215.51 0 .296-.215.504-.208.208-.51.208zm.537 8.627h-1.102v-6.88h1.102z" />
    <path
       id="G"
       d="M1096.648 16.684q-.793.477-1.88.477-1.47 0-2.378-.954-.9-.96-.9-2.486 0-1.7.974-2.728.974-1.035 2.6-1.035.907 0 1.6.336v1.13q-.766-.538-1.64-.538-1.055 0-1.733.76-.672.753-.672 1.982 0 1.21.632 1.908.638.7 1.707.7.9 0 1.693-.598z" />
    <path
       id="H"
       d="M1104.025 17h-1.102v-3.964q0-2.15-1.6-2.15-.806 0-1.357.625-.55.618-.55 1.592V17h-1.102V6.814h1.102v4.448h.027q.793-1.303 2.258-1.303 2.325 0 2.325 2.802z" />
    <path
       id="I"
       d="M1116.7 11.235q-.29-.222-.833-.222-.705 0-1.182.665-.47.665-.47 1.814V17h-1.102v-6.88h1.102v1.418h.027q.235-.726.72-1.13.484-.4 1.082-.4.43 0 .658.094z" />
    <path
       id="J"
       d="M1123.758 17h-1.102v-1.17h-.027q-.766 1.33-2.365 1.33-1.297 0-2.076-.92-.773-.927-.773-2.52 0-1.707.86-2.735.86-1.028 2.29-1.028 1.418 0 2.063 1.115h.027v-4.26h1.102zm-1.102-3.11v-1.015q0-.833-.55-1.41-.55-.578-1.397-.578-1.008 0-1.586.74-.578.74-.578 2.043 0 1.19.55 1.88.558.685 1.492.685.92 0 1.492-.665.578-.665.578-1.68z" />
    <path
       id="K"
       d="M1143.175 13.835h-4.858q.027 1.15.618 1.774.59.625 1.626.625 1.162 0 2.137-.766v1.035q-.907.658-2.4.658-1.458 0-2.29-.934-.833-.94-.833-2.64 0-1.606.907-2.614.914-1.015 2.264-1.015 1.35 0 2.1.873.74.873.74 2.425zm-1.13-.934q-.007-.954-.464-1.485-.45-.53-1.256-.53-.78 0-1.324.558-.544.558-.672 1.458z" />
    <path
       id="L"
       d="M1216.498 16.82V15.1q.524.316 1.04.47.524.155.988.155.564 0 .887-.155.33-.155.33-.47 0-.202-.148-.336-.148-.134-.383-.235-.228-.1-.504-.18-.275-.08-.53-.18-.4-.155-.726-.33-.31-.18-.524-.417-.208-.235-.322-.544-.108-.31-.108-.732 0-.578.25-.994.255-.417.672-.68.423-.27.96-.4.544-.128 1.13-.128.457 0 .927.074.47.067.927.202v1.64q-.403-.235-.867-.35-.457-.12-.9-.12-.208 0-.396.04-.18.034-.322.107-.14.067-.222.18-.08.108-.08.25 0 .188.12.323.12.134.316.235.195.094.43.175.242.074.477.155.423.148.766.323.343.175.585.4.25.235.376.55.134.316.134.752 0 .61-.27 1.048-.262.43-.705.705-.437.27-1.015.4-.57.128-1.19.128-1.135 0-2.103-.35z" />
    <path
       id="M"
       d="M1288.15 17h-1.102v-3.924q0-2.2-1.6-2.2-.826 0-1.37.625-.537.618-.537 1.565V17h-1.102v-6.88h1.102v1.142h.027q.78-1.303 2.257-1.303 1.13 0 1.727.732.598.726.598 2.103z" />
    <path
       id="N"
       d="M94.822 42.52h-.345v-1.24q0-.673-.5-.673-.252 0-.425.195-.172.193-.172.498v1.22h-.345v-3.186h.345v1.39h.008q.248-.408.706-.408.727 0 .727.876z" />
    <path
       id="O"
       d="M97.2 41.53h-1.52q.008.36.193.555.185.195.51.195.364 0 .668-.24v.324q-.284.206-.75.206-.456 0-.717-.292-.26-.294-.26-.826 0-.502.284-.818.286-.317.708-.317.422 0 .654.273.23.273.23.76zm-.353-.292q-.002-.298-.145-.464-.14-.166-.393-.166-.244 0-.414.174-.17.174-.2.456z" />
    <path
       id="P"
       d="M101.978 42.52h-.345v-.336h-.008q-.225.387-.662.387-.322 0-.504-.17-.18-.17-.18-.452 0-.603.7-.702l.645-.1q0-.55-.443-.55-.39 0-.702.265v-.353q.317-.202.73-.202.76 0 .76.803zm-.345-1.09l-.52.07q-.24.034-.36.12-.122.084-.122.3 0 .158.11.258.113.1.3.1.256 0 .422-.18.168-.18.168-.456z" />
    <path
       id="Q"
       d="M102.804 39.82q-.092 0-.158-.063-.065-.063-.065-.16 0-.097.065-.16.065-.065.158-.065.095 0 .16.065.067.063.067.16 0 .092-.067.158-.065.065-.16.065zm.168 2.698h-.345v-2.152h.345z" />
    <path
       id="R"
       d="M105.456 42.52h-.345v-1.227q0-.685-.5-.685-.258 0-.43.195-.168.193-.168.5v1.227h-.345v-2.152h.345v.357h.008q.244-.408.706-.408.353 0 .54.23.187.227.187.658z" />
    <path
       id="S"
       d="M107.154 42.442v-.37q.282.208.62.208.454 0 .454-.303 0-.086-.04-.145-.038-.06-.105-.107-.065-.046-.156-.082-.088-.038-.19-.078-.143-.057-.252-.113-.107-.06-.18-.13-.07-.074-.11-.166-.036-.092-.036-.216 0-.15.07-.267.07-.118.185-.195.116-.08.263-.12.15-.04.307-.04.28 0 .5.097v.35q-.237-.156-.546-.156-.097 0-.174.023-.078.02-.135.06-.055.04-.086.097-.03.055-.03.122 0 .084.03.14.032.057.1.1.06.044.143.08.084.036.19.078.143.055.256.113.113.057.193.13.08.07.122.166.044.095.044.225 0 .16-.07.277-.07.118-.187.195-.118.078-.27.116-.153.038-.322.038-.332 0-.576-.128z" />
    <path
       id="T"
       d="M110.577 42.42q-.248.15-.588.15-.46 0-.744-.298-.282-.3-.282-.778 0-.532.305-.853.305-.324.813-.324.284 0 .5.105v.353q-.24-.168-.513-.168-.33 0-.542.237-.2.235-.2.62 0 .378.198.597.2.22.534.22.282 0 .53-.187z" />
    <path
       id="U"
       d="M112.22 40.716q-.1-.07-.26-.07-.22 0-.37.208-.147.208-.147.567v1.097h-.345v-2.152h.345v.443h.008q.074-.227.225-.353.15-.128.338-.128.135 0 .206.03z" />
    <path
       id="V"
       d="M117.166 42.5q-.122.067-.322.067-.565 0-.565-.63v-1.274h-.37v-.294h.37v-.525l.345-.11v.637h.542v.294h-.542v1.213q0 .216.074.31.074.092.244.092.13 0 .225-.07z" />
    <path
       id="W"
       d="M119.366 42.52h-.345v-.34h-.008q-.214.39-.664.39-.77 0-.77-.916v-1.286h.343V41.6q0 .68.52.68.252 0 .414-.185.164-.187.164-.488v-1.24h.345z" />
    <path
       id="X"
       d="M126.403 42.52v-3.754a.93.93 0 0 1 .275-.664.93.93 0 0 1 .664-.275h15.64a.93.93 0 0 1 .664.275.93.93 0 0 1 .275.664v3.754a.93.93 0 0 1-.275.664.93.93 0 0 1-.664.275h-15.64a.93.93 0 0 1-.664-.275.93.93 0 0 1-.275-.664z" />
    <path
       id="Y"
       d="M130.41 42.52h-.664v-.296h-.008q-.227.35-.666.35-.404 0-.65-.284-.246-.286-.246-.797 0-.534.27-.855.27-.322.7-.322.416 0 .58.298h.008v-1.28h.664zm-.65-1.047v-.162q0-.2-.122-.35-.122-.14-.317-.14-.22 0-.345.174-.124.172-.124.475 0 .284.12.437.12.153.332.153.202 0 .328-.162.128-.162.128-.43z" />
    <path
       id="Z"
       d="M131.306 40.027q-.168 0-.275-.1-.107-.1-.107-.246 0-.15.107-.244.107-.095.275-.095.17 0 .275.095.107.095.107.244 0 .15-.107.248-.105.097-.275.097zm.328 2.492h-.664v-2.152h.664z" />
    <path
       id="a"
       d="M132.052 42.463v-.538q.164.1.326.147.164.048.31.048.177 0 .277-.048.103-.048.103-.147 0-.063-.046-.105-.046-.042-.12-.074-.07-.032-.158-.057-.086-.025-.166-.057-.128-.048-.227-.103-.097-.057-.164-.13-.065-.074-.1-.17-.034-.097-.034-.23 0-.18.078-.31.08-.13.2-.212.132-.084.3-.122.17-.04.353-.04.143 0 .3.023.147.02.3.063v.513q-.126-.074-.27-.11-.143-.038-.282-.038-.065 0-.124.013-.057.01-.1.034-.044.02-.07.057-.025.034-.025.078 0 .06.038.1.038.042.1.074.06.03.135.055.076.023.15.048.132.046.24.1.107.055.183.128.078.074.118.172.042.1.042.235 0 .19-.084.328-.082.135-.22.22-.137.084-.317.122-.18.04-.372.04-.355 0-.658-.11z" />
    <path
       id="b"
       d="M135.717 42.442q-.225.13-.65.13-.496 0-.803-.3-.307-.3-.307-.775 0-.55.328-.864.33-.317.88-.317.38 0 .55.1v.563q-.208-.156-.464-.156-.286 0-.454.168-.166.166-.166.46 0 .286.16.45.16.162.44.162.248 0 .485-.156z" />
    <path
       id="c"
       d="M138.197 42.52h-.662v-.328h-.01q-.246.38-.658.38-.748 0-.748-.906v-1.3h.662v1.24q0 .456.36.456.18 0 .286-.124.107-.126.107-.34v-1.232h.662z" />
    <path
       id="d"
       d="M147.046 40.368l-.857 2.152h-.338l-.815-2.152h.378l.546 1.564q.06.172.076.3h.008q.02-.162.067-.292l.572-1.572z" />
    <path
       id="e"
       d="M151.28 39.82q-.093 0-.158-.063-.065-.063-.065-.16 0-.097.065-.16.065-.065.158-.065.095 0 .16.065.067.063.067.16 0 .092-.067.158-.065.065-.16.065zm.168 2.698h-.345v-2.152h.345z" />
    <path
       id="f"
       d="M153.044 42.57q-.477 0-.763-.3-.284-.303-.284-.8 0-.542.296-.847.296-.305.8-.305.48 0 .75.296.27.296.27.822 0 .515-.292.826-.3.31-.78.31zm.025-1.963q-.332 0-.525.227-.193.225-.193.622 0 .382.195.603.195.22.523.22.334 0 .513-.216.18-.216.18-.616 0-.404-.18-.622-.18-.22-.513-.22z" />
    <path
       id="g"
       d="M178.22 42.21h-.008v1.3h-.345v-3.142h.345v.378h.008q.254-.43.744-.43.416 0 .65.3.233.288.233.773 0 .54-.263.866-.263.324-.72.324-.418 0-.645-.36zm-.008-.868v.3q0 .267.172.454.174.185.44.185.313 0 .5-.24.18-.24.18-.666 0-.36-.166-.563-.166-.204-.45-.204-.3 0-.483.2-.183.208-.183.523z" />
    <path
       id="h"
       d="M111.342 49.788q-.122.067-.322.067-.565 0-.565-.63V47.95h-.37v-.294h.37v-.525l.345-.11v.637h.542v.294h-.542v1.213q0 .216.074.31.074.092.244.092.13 0 .225-.07z" />
    <path
       id="i"
       d="M118.325 49.81h-.345v-.366h-.008q-.24.416-.74.416-.406 0-.65-.288-.242-.3-.242-.788 0-.534.27-.855.27-.322.717-.322.443 0 .645.35h.008v-1.332h.345zm-.345-.973v-.317q0-.26-.172-.44-.172-.18-.437-.18-.315 0-.496.23-.18.23-.18.64 0 .372.172.588.174.214.467.214.288 0 .467-.208.18-.208.18-.525z" />
    <path
       id="j"
       d="M148.92 49.788q-.122.067-.322.067-.565 0-.565-.63V47.95h-.37v-.294h.37v-.525l.345-.11v.637h.542v.294h-.542v1.213q0 .216.073.31.074.092.244.092.13 0 .225-.07z" />
    <path
       id="k"
       d="M182.164 49.637q0 1.185-1.135 1.185-.4 0-.698-.15v-.345q.364.202.694.202.794 0 .794-.845v-.235h-.008q-.246.412-.74.412-.4 0-.647-.286-.244-.288-.244-.77 0-.55.263-.872.265-.324.723-.324.435 0 .645.35h.008v-.298h.345zm-.345-.8v-.317q0-.256-.174-.44-.172-.183-.43-.183-.32 0-.5.233-.18.23-.18.65 0 .36.172.576.174.214.46.214.3 0 .47-.206.183-.206.183-.527z" />
    <path
       id="l"
       d="M101.364 57.638h-.345v-3.186h.345z" />
    <path
       id="m"
       d="M117.037 57.638h-.345V57.3h-.008q-.225.387-.662.387-.322 0-.504-.17-.18-.17-.18-.452 0-.603.7-.702l.645-.1q0-.55-.443-.55-.39 0-.702.265v-.353q.317-.202.73-.202.76 0 .76.803zm-.345-1.09l-.52.07q-.24.034-.36.12-.122.084-.122.3 0 .158.11.258.113.1.3.1.256 0 .422-.18.168-.18.168-.456z" />
    <path
       id="n"
       d="M141.5 56.75h-1.404q.034.47.59.47.355 0 .624-.168v.48q-.298.16-.775.16-.52 0-.81-.288-.288-.3-.288-.807 0-.536.31-.85.31-.313.765-.313.47 0 .727.28.258.28.258.76zm-.616-.408q0-.462-.374-.462-.16 0-.277.132-.116.132-.14.33z" />
    <path
       id="o"
       d="M160.935 57.617q-.122.067-.322.067-.565 0-.565-.63V55.78h-.37v-.294h.37v-.525l.345-.11v.637h.542v.294h-.542v1.213q0 .216.074.31.074.092.244.092.13 0 .225-.07z" />
    <path
       id="p"
       d="M165.372 57.638h-.345V56.4q0-.685-.5-.685-.26 0-.43.195-.168.193-.168.5v1.227h-.345v-2.152h.345v.357h.008q.244-.408.706-.408.353 0 .54.23.187.227.187.658z" />
    <path
       id="q"
       d="M183.294 55.486l-1 2.497q-.265.668-.744.668-.135 0-.225-.027v-.31q.11.038.204.038.26 0 .39-.31l.172-.408-.84-2.148h.382l.582 1.656q.01.032.044.164h.013q.01-.05.042-.16l.612-1.66z" />
    <path
       id="r"
       d="M121.864 64.94h-.345V63.71q0-.685-.5-.685-.258 0-.43.195-.168.193-.168.5v1.227h-.345v-2.152h.345v.357h.008q.244-.408.706-.408.353 0 .54.23.187.227.187.658z" />
    <path
       id="s"
       d="M128.93 64.882v-.538q.164.1.326.147.164.048.31.048.177 0 .277-.048.103-.048.103-.147 0-.063-.046-.105-.046-.042-.12-.073-.072-.03-.158-.057-.086-.025-.166-.057-.128-.048-.227-.103-.097-.057-.164-.13-.065-.074-.1-.17-.034-.097-.034-.23 0-.18.078-.31.08-.13.2-.212.132-.084.3-.122.17-.04.353-.04.143 0 .3.023.147.02.3.063v.513q-.126-.073-.27-.11-.143-.038-.282-.038-.065 0-.124.013-.057.01-.1.034-.044.02-.07.057-.025.034-.025.078 0 .06.038.1.038.042.1.074.06.03.135.055.076.023.15.048.132.046.24.1.107.055.183.128.078.074.118.172.042.1.042.235 0 .19-.084.328-.082.135-.22.22-.137.084-.317.122-.18.04-.372.04-.355 0-.658-.11z" />
    <path
       id="t"
       d="M155.228 64.628h-.008v.31h-.345v-3.186h.345v1.412h.008q.254-.43.744-.43.414 0 .647.3.235.288.235.773 0 .54-.263.866-.263.324-.72.324-.427 0-.645-.36zm-.008-.868v.3q0 .267.172.454.174.185.44.185.313 0 .5-.24.18-.24.18-.666 0-.36-.166-.563-.166-.204-.45-.204-.3 0-.483.2-.183.208-.183.523z" />
    <path
       id="u"
       d="M99.706 72.238h-.345V71.9h-.008q-.225.387-.662.387-.322 0-.504-.17-.18-.17-.18-.452 0-.603.7-.702l.645-.1q0-.55-.443-.55-.39 0-.702.265v-.353q.317-.202.73-.202.76 0 .76.803zm-.345-1.09l-.52.07q-.24.034-.36.12-.122.084-.122.3 0 .158.11.258.113.1.3.1.256 0 .422-.18.168-.18.168-.456z" />
    <path
       id="v"
       d="M102.14 72.238h-.345V71q0-.685-.5-.685-.258 0-.43.195-.168.193-.168.5v1.227h-.345v-2.152h.345v.357h.008q.244-.408.706-.408.353 0 .54.23.187.227.187.658z" />
    <path
       id="w"
       d="M148.884 72.217q-.122.067-.322.067-.565 0-.565-.63V70.38h-.37v-.294h.37v-.525l.345-.11v.637h.542v.294h-.542v1.213q0 .216.074.31.074.092.244.092.13 0 .225-.07z" />
    <path
       id="x"
       d="M162.523 72.238h-.345v-.34h-.008q-.214.39-.664.39-.77 0-.77-.916v-1.286h.343v1.232q0 .68.52.68.252 0 .414-.185.164-.187.164-.488v-1.24h.345z" />
    <path
       id="y"
       d="M91.865 77.2q-.1-.057-.23-.057-.36 0-.36.456v.332h.504v.294h-.504v1.858h-.343v-1.858h-.368v-.294h.368v-.35q0-.338.195-.534.195-.198.488-.198.158 0 .25.038z" />
    <path
       id="z"
       d="M101.622 79.762h-.008v1.3h-.345V77.92h.345v.378h.008q.254-.43.744-.43.416 0 .65.3.233.288.233.773 0 .54-.263.866-.263.324-.72.324-.418 0-.645-.36zm-.008-.868v.3q0 .267.172.454.174.185.44.185.313 0 .5-.24.18-.24.18-.666 0-.36-.166-.563-.166-.204-.45-.204-.3 0-.483.2-.183.208-.183.523z" />
    <path
       id="AA"
       d="M118.988 77.92l-.62 2.152h-.698l-.317-1.26q-.032-.126-.036-.275h-.013q-.015.164-.042.267l-.34 1.27h-.69l-.607-2.152h.677l.296 1.404q.02.1.032.24h.013q.01-.147.038-.248l.37-1.395h.633l.332 1.404q.013.053.03.244h.015q.01-.122.034-.244l.28-1.404z" />
    <path
       id="AB"
       d="M124.59 80.073h-.628v-.31h-.008q-.216.36-.64.36-.313 0-.494-.177-.18-.18-.18-.475 0-.626.742-.723l.584-.078q0-.353-.382-.353-.385 0-.73.23v-.5q.14-.07.378-.126.242-.055.44-.055.92 0 .92.918zm-.624-.874v-.145l-.39.05q-.324.042-.324.292 0 .113.078.187.08.07.214.07.187 0 .305-.128.118-.13.118-.328z" />
    <path
       id="AC"
       d="M142.362 80.126q-.538 0-.847-.3-.307-.303-.307-.82 0-.534.32-.834.32-.303.864-.303.536 0 .84.303.305.3.305.797 0 .536-.315.847-.313.31-.86.31zm.017-1.75q-.235 0-.366.162-.13.162-.13.458 0 .62.5.62.477 0 .477-.637 0-.603-.48-.603z" />
    <path
       id="AD"
       d="M168.424 80.12q-.097 0-.166-.07-.067-.07-.067-.166 0-.097.067-.166.07-.07.166-.07.1 0 .168.07.07.07.07.166 0 .097-.07.166-.07.07-.168.07z" />
    <path
       id="AE"
       d="M89.788 85.56q-.1-.07-.26-.07-.22 0-.37.208-.147.208-.147.567v1.097h-.345V85.2h.345v.443h.008q.074-.227.225-.353.15-.128.338-.128.135 0 .206.03z" />
    <path
       id="AF"
       d="M90.34 84.663q-.092 0-.158-.063-.065-.063-.065-.16 0-.097.065-.16.065-.065.158-.065.095 0 .16.065.067.063.067.16 0 .092-.067.158-.065.065-.16.065zm.168 2.698h-.345V85.2h.345z" />
    <path
       id="AG"
       d="M92.203 87.34q-.122.067-.322.067-.565 0-.565-.63v-1.274h-.37V85.2h.37v-.525l.345-.11v.637h.542v.294h-.542v1.213q0 .216.074.31.074.092.244.092.13 0 .225-.07z" />
    <path
       id="AH"
       d="M118.516 84.348l-.797 3.014h-.752l-.5-1.933q-.04-.15-.048-.338h-.008q-.02.206-.055.338l-.513 1.933h-.784l-.792-3.014h.742l.425 2.007q.027.128.04.345h.013q.008-.162.06-.353l.546-2h.727l.494 2.024q.027.11.048.324h.008q.008-.166.044-.336l.416-2.01z" />
    <path
       id="AI"
       d="M126.64 85.2l-.7 1.042.706 1.1h-.765l-.31-.58q-.038-.07-.1-.195h-.008q-.032.088-.086.19l-.313.586h-.763l.727-1.072-.683-1.08h.77l.307.603q.06.12.086.202h.008q.034-.1.1-.206l.313-.6z" />
    <path
       id="AJ"
       d="M169.7 87.362h-.345v-1.227q0-.685-.5-.685-.258 0-.43.195-.168.193-.168.5v1.227h-.345V85.2h.345v.357h.008q.244-.408.706-.408.353 0 .54.23.187.227.187.658z" />
    <path
       id="AK"
       d="M89.214 94.662h-.345v-1.227q0-.685-.5-.685-.258 0-.43.195-.168.193-.168.5v1.227h-.345V92.5h.345v.357h.008q.244-.408.706-.408.353 0 .54.23.187.227.187.658z" />
    <path
       id="AL"
       d="M90.862 94.64q-.122.067-.322.067-.565 0-.565-.63v-1.274h-.37V92.5h.37v-.525l.345-.11v.637h.542v.294h-.542v1.213q0 .216.074.31.074.092.244.092.13 0 .225-.07z" />
    <path
       id="AM"
       d="M93.062 94.662h-.345v-.34h-.008q-.214.39-.664.39-.77 0-.77-.916V92.5h.343v1.232q0 .68.52.68.252 0 .414-.185.164-.187.164-.488V92.5h.345z" />
    <path
       id="AN"
       d="M100.48 94.5q0 1.185-1.135 1.185-.4 0-.698-.15v-.345q.364.202.694.202.794 0 .794-.845V94.3h-.008q-.246.412-.74.412-.4 0-.647-.286-.244-.288-.244-.77 0-.55.263-.872.265-.324.723-.324.435 0 .645.35h.008V92.5h.345zm-.345-.8v-.317q0-.256-.174-.44-.172-.183-.43-.183-.32 0-.5.233-.18.23-.18.65 0 .36.172.576.174.214.46.214.3 0 .47-.206.183-.206.183-.527z" />
    <path
       id="AO"
       d="M102.3 92.86q-.1-.07-.26-.07-.22 0-.37.208-.147.208-.147.567v1.097h-.345V92.5h.345v.443h.008q.074-.227.225-.353.15-.128.338-.128.135 0 .206.03z" />
    <path
       id="AP"
       d="M179.958 91.963q-.092 0-.158-.063-.065-.063-.065-.16 0-.097.065-.16.065-.065.158-.065.095 0 .16.065.067.063.067.16 0 .092-.067.158-.065.065-.16.065zm.168 2.698h-.345V92.5h.345z" />
    <path
       id="AQ"
       d="M123.275 102.51v-3.754a.93.93 0 0 1 .275-.664.93.93 0 0 1 .664-.275h22.208a.93.93 0 0 1 .664.275.93.93 0 0 1 .275.664v3.754a.93.93 0 0 1-.275.664.93.93 0 0 1-.664.275h-22.208a.93.93 0 0 1-.664-.275.93.93 0 0 1-.275-.664z" />
    <path
       id="AR"
       d="M4.233 41.152c0-1.31 1.064-2.374 2.376-2.374h77.123a2.38 2.38 0 0 1 2.374 2.374v72.212c0 1.312-1.065 2.376-2.374 2.376H6.61c-1.312 0-2.376-1.064-2.376-2.376z" />
    <path
       id="AS"
       d="M21.442 49.666q0 .022-.01.04-.01.014-.036.025-.025.01-.07.017-.044.006-.114.006-.066 0-.11-.006-.044-.006-.072-.017-.025-.01-.036-.025-.008-.017-.008-.04v-2.493q0-.02.008-.036.01-.017.036-.028.028-.01.072-.017.044-.006.11-.006.07 0 .114.006.044.006.07.017.025.01.036.028.01.017.01.036zm.053-3.335q0 .16-.06.22-.06.058-.224.058-.16 0-.222-.055-.058-.058-.058-.216 0-.16.06-.22.06-.058.224-.058.16 0 .22.058.06.055.06.213z" />
    <path
       id="AT"
       d="M23.804 48.987q0 .19-.072.34-.07.15-.2.252-.13.102-.3.155-.18.053-.396.053-.133 0-.255-.022-.12-.02-.216-.05-.094-.033-.16-.066-.066-.036-.097-.064-.03-.028-.044-.078-.014-.05-.014-.136 0-.053.006-.09.006-.036.014-.058.008-.022.022-.03.017-.01.036-.01.03 0 .09.04.06.036.147.08.09.044.208.083.12.036.274.036.116 0 .21-.025.094-.025.163-.072.07-.05.105-.125.04-.075.04-.177 0-.105-.055-.177-.053-.072-.14-.127-.09-.055-.2-.097-.11-.044-.23-.09-.116-.047-.23-.105-.11-.06-.2-.147-.09-.086-.144-.205-.053-.12-.053-.285 0-.147.055-.28.058-.136.172-.235.114-.102.283-.163.172-.06.4-.06.1 0 .2.017.1.017.18.042.08.025.136.055.058.028.086.05.03.022.04.04.01.017.014.04.006.02.008.05.006.03.006.075 0 .047-.006.083-.003.033-.014.055-.008.022-.022.033-.014.008-.03.008-.025 0-.072-.03-.047-.03-.122-.064-.075-.036-.177-.066-.1-.03-.23-.03-.116 0-.205.028-.09.025-.147.075-.055.047-.086.114-.028.066-.028.144 0 .108.055.183.055.072.144.127.09.055.202.1.114.044.23.09.12.047.233.105.116.058.205.14.09.083.14.2.055.116.055.277z" />
    <path
       id="AU"
       d="M28.004 48.38q0 .327-.072.587-.07.26-.208.443-.136.18-.338.28-.202.097-.463.097-.11 0-.205-.022-.094-.022-.186-.07-.09-.047-.177-.12-.09-.072-.188-.17v1.246q0 .022-.01.04-.01.017-.036.028-.025.01-.07.017-.044.006-.114.006-.066 0-.11-.006-.044-.006-.072-.017-.025-.01-.036-.028-.008-.017-.008-.04v-3.482q0-.025.008-.04.008-.017.033-.028.025-.01.064-.014.04-.006.094-.006.058 0 .094.006.04.003.064.014.025.01.033.028.01.014.01.04v.335q.114-.116.22-.202.105-.086.21-.14.108-.058.22-.086.114-.03.238-.03.27 0 .463.105.19.105.3.288.122.183.177.427.055.24.055.512zm-.482.053q0-.19-.03-.368-.028-.18-.1-.32-.07-.138-.188-.222-.12-.083-.296-.083-.09 0-.175.028-.086.025-.175.083-.09.055-.186.15-.097.09-.205.227v.992q.188.23.357.352.17.122.355.122.172 0 .294-.083.125-.083.2-.222.078-.138.114-.3.036-.172.036-.346z" />
    <path
       id="AV"
       d="M36.488 48.31q0 .108-.055.155-.053.044-.122.044h-1.634q0 .208.042.374.042.166.138.285.097.12.252.183.155.064.38.064.177 0 .316-.028.138-.03.238-.066.102-.036.166-.064.066-.03.1-.03.02 0 .033.01.017.008.025.028.008.02.01.055.006.033.006.083 0 .036-.003.064-.003.025-.008.047-.003.02-.014.036-.008.017-.025.033-.014.014-.09.05-.075.033-.194.066-.12.033-.277.058-.155.028-.332.028-.307 0-.54-.086-.23-.086-.388-.255-.158-.17-.238-.424-.08-.255-.08-.593 0-.32.083-.576.083-.258.238-.435.158-.18.38-.274.222-.097.496-.097.294 0 .5.094.208.094.34.255.133.158.194.374.064.213.064.457zm-.46-.136q.008-.36-.16-.565-.166-.205-.496-.205-.17 0-.296.064-.127.064-.213.17-.086.105-.133.247-.047.138-.053.29z" />
    <path
       id="AW"
       d="M71.385 48.392q0 .305-.08.562-.08.255-.24.44-.158.186-.4.29-.238.102-.554.102-.307 0-.537-.09-.227-.09-.38-.266-.152-.175-.227-.424-.075-.25-.075-.565 0-.305.078-.56.08-.258.238-.443.16-.186.4-.288.238-.102.557-.102.307 0 .535.09.23.09.382.266.152.175.227.424.078.25.078.562zm-.482.03q0-.202-.04-.382-.036-.18-.122-.316-.086-.136-.233-.213-.147-.08-.366-.08-.202 0-.35.072-.144.072-.238.205-.094.13-.14.3-.044.18-.044.393 0 .205.036.385.04.18.125.316.09.133.235.213.147.078.366.078.2 0 .346-.072.147-.072.24-.202.094-.13.138-.3.044-.18.044-.396z" />
    <path
       id="AX"
       d="M9.398 29.55a2.88 2.88 0 0 0-2.879-2.879 2.88 2.88 0 0 0-2.879 2.879 2.88 2.88 0 0 0 2.879 2.879 2.88 2.88 0 0 0 2.879-2.879z" />
    <path
       id="AY"
       d="M106.717 22.164h-.782v2.02h-.646v-2.02h-.782v-.484h2.21z" />
  </defs>
  <g
     transform="matrix(.312794 0 0 .312794 -248.32391 29.891318)"
     id="g163">
    <g
       fill="#000"
       id="g119">
      <path
         d="M1087.45 17h-1.344l-1.612-2.7q-.222-.376-.43-.638-.208-.27-.43-.437-.215-.168-.47-.242-.25-.08-.564-.08h-.927V17h-1.13V7.365h2.876q.632 0 1.162.16.537.155.927.477.396.322.618.806.222.477.222 1.122 0 .504-.155.927-.148.417-.43.746-.275.33-.672.564-.4.228-.88.356v.027q.242.107.417.25.18.134.343.323.16.188.316.43.16.235.356.55zm-5.778-8.613v3.494h1.532q.423 0 .78-.128.363-.128.625-.363.262-.242.4-.585.148-.35.148-.78 0-.773-.504-1.203-.497-.437-1.445-.437z"
         id="path93" />
      <use
         xlink:href="#F"
         id="use95" />
      <use
         xlink:href="#G"
         id="use97" />
      <use
         xlink:href="#H"
         id="use99" />
      <path
         d="M1111.026 17h-1.102v-1.075h-.027q-.72 1.236-2.116 1.236-1.028 0-1.612-.544-.578-.544-.578-1.445 0-1.928 2.27-2.244l2.063-.29q0-1.754-1.418-1.754-1.243 0-2.244.847v-1.13q1.015-.645 2.338-.645 2.425 0 2.425 2.567zm-1.102-3.48l-1.66.228q-.766.107-1.156.383-.4.27-.4.96 0 .504.356.826.363.316.96.316.82 0 1.35-.57.538-.578.538-1.458z"
         id="path101" />
      <use
         xlink:href="#I"
         id="use103" />
      <use
         xlink:href="#J"
         id="use105" />
      <path
         d="M1129.905 17V7.365h2.74q1.25 0 1.982.61.732.61.732 1.592 0 .82-.443 1.424-.443.605-1.223.86v.027q.974.114 1.56.74.585.618.585 1.613 0 1.236-.887 2.002-.887.766-2.237.766zm1.13-8.613v3.11h1.156q.927 0 1.458-.443.53-.45.53-1.263 0-1.404-1.848-1.404zm0 4.125v3.467h1.532q.994 0 1.54-.47.55-.47.55-1.3 0-1.707-2.325-1.707z"
         id="path107" />
      <use
         xlink:href="#K"
         id="use109" />
      <path
         d="M1150.317 10.12l-3.165 7.982q-.847 2.137-2.378 2.137-.43 0-.72-.087v-.988q.356.12.652.12.833 0 1.25-.994l.55-1.303-2.687-6.867h1.223l1.86 5.294q.034.1.14.524h.04q.034-.16.134-.5l1.955-5.308zm10.95 6.88h-1.102v-3.95q0-1.142-.356-1.653-.35-.5-1.183-.5-.705 0-1.203.645-.5.645-.5 1.545V17h-1.102v-4.085q0-2.03-1.565-2.03-.726 0-1.196.6-.47.605-.47 1.58V17h-1.102v-6.88h1.102v1.088h.027q.732-1.25 2.137-1.25.705 0 1.23.396.524.4.72 1.028.766-1.424 2.284-1.424 2.27 0 2.27 2.802z"
         id="path111" />
      <use
         xlink:href="#K"
         x="25.705"
         id="use113" />
      <use
         xlink:href="#I"
         x="57.435"
         id="use115" />
      <path
         d="M1175.358 19.2h-.98q2.096-2.513 2.096-5.88 0-3.393-2.1-5.946h.994q2.096 2.46 2.096 5.96 0 3.487-2.096 5.865zm11.086-2.267q-.4.215-1.028.215-1.807 0-1.807-2.016V11.06h-1.182v-.94h1.182V8.44l1.102-.356v2.036h1.733v.94h-1.733v3.877q0 .692.235.988.235.296.78.296.417 0 .72-.228zm4.346.227q-1.525 0-2.44-.96-.907-.968-.907-2.56 0-1.733.947-2.708.947-.974 2.56-.974 1.54 0 2.4.947.867.947.867 2.627 0 1.646-.934 2.64-.927.988-2.493.988zm.08-6.275q-1.062 0-1.68.726-.618.72-.618 2 0 1.223.625 1.928.625.705 1.673.705 1.068 0 1.64-.692.578-.692.578-1.97 0-1.3-.578-2-.57-.7-1.64-.7z"
         id="path117" />
    </g>
    <path
       d="M1199 17V5a2.97 2.97 0 0 1 .228-1.148 2.97 2.97 0 0 1 .65-.973A2.97 2.97 0 0 1 1202 2h49a2.97 2.97 0 0 1 1.148.228c.368.152.692.37.973.65a2.97 2.97 0 0 1 .65.973c.152.368.228.75.228 1.148v12a2.97 2.97 0 0 1-.879 2.121c-.28.28-.606.498-.973.65A2.97 2.97 0 0 1 1251 20h-49a2.97 2.97 0 0 1-2.121-.879A2.97 2.97 0 0 1 1199 17z"
       class="J"
       id="path121" />
    <g
       fill="#000"
       id="g161">
      <path
         d="M1211.25 17h-2.123v-.947h-.027q-.726 1.115-2.13 1.115-1.3 0-2.076-.907-.786-.914-.786-2.546 0-1.707.867-2.735.867-1.028 2.27-1.028 1.33 0 1.854.954h.027V6.814h2.123zm-2.083-3.346v-.517q0-.672-.4-1.115-.4-.443-1.015-.443-.705 0-1.102.558-.396.55-.396 1.518 0 .907.383 1.398.383.5 1.062.5.645 0 1.048-.517.4-.517.4-1.37zm4.946-4.622q-.537 0-.88-.316-.343-.322-.343-.786 0-.477.343-.78.343-.302.88-.302.544 0 .88.302.343.302.343.78 0 .484-.343.793-.336.3-.88.3zM1215.16 17h-2.123v-6.88h2.123z"
         id="path123" />
      <use
         xlink:href="#L"
         id="use125" />
      <path
         d="M1228.216 16.75q-.72.417-2.076.417-1.586 0-2.567-.96-.98-.96-.98-2.48 0-1.754 1.048-2.76 1.055-1.015 2.815-1.015 1.216 0 1.76.323v1.8q-.665-.497-1.485-.497-.914 0-1.45.538-.53.53-.53 1.47 0 .914.5 1.438.5.517 1.404.517.793 0 1.552-.497zm7.928.25h-2.116v-1.048h-.034q-.786 1.216-2.103 1.216-2.392 0-2.392-2.896V10.12h2.116v3.964q0 1.458 1.156 1.458.57 0 .914-.396.343-.403.343-1.088V10.12h2.116zm1.336-.18V15.1q.524.316 1.04.47.524.155.988.155.564 0 .887-.155.33-.155.33-.47 0-.202-.148-.336-.148-.134-.383-.235-.228-.1-.504-.18-.275-.08-.53-.18-.4-.155-.726-.33-.3-.18-.524-.417-.208-.235-.322-.544-.107-.3-.107-.732 0-.578.25-.994.255-.417.672-.68.423-.27.96-.4.544-.128 1.13-.128.457 0 .927.074.47.067.927.202v1.64q-.403-.235-.867-.35-.457-.12-.9-.12-.208 0-.396.04-.18.034-.322.107-.14.067-.222.18-.08.108-.08.25 0 .188.12.323.12.134.316.235.195.094.43.175.242.074.477.155.423.148.766.323.343.175.585.4.25.235.376.55.134.316.134.752 0 .6-.27 1.048-.262.43-.705.705-.437.27-1.015.4-.57.128-1.2.128-1.135 0-2.103-.35z"
         id="path127" />
      <use
         xlink:href="#L"
         x="27.036"
         id="use129" />
      <path
         d="M1262.217 16.933q-.4.215-1.028.215-1.807 0-1.807-2.016V11.06h-1.183v-.94h1.183V8.44l1.102-.356v2.036h1.733v.94h-1.733v3.877q0 .692.235.988.235.296.78.296.417 0 .72-.228z"
         id="path131" />
      <use
         xlink:href="#H"
         x="165.375"
         id="use133" />
      <use
         xlink:href="#K"
         x="133.83"
         id="use135" />
      <use
         xlink:href="#M"
         id="use137" />
      <use
         xlink:href="#K"
         x="152.582"
         id="use139" />
      <path
         d="M1306.1 10.12l-2.063 6.88h-1.142l-1.418-4.925q-.08-.282-.108-.638h-.027q-.02.242-.14.625l-1.54 4.938h-1.102l-2.083-6.88h1.156l1.424 5.173q.067.235.094.618h.054q.02-.296.12-.632l1.586-5.16h1.008l1.424 5.187q.067.25.1.618h.054q.013-.262.114-.618l1.398-5.187zm6.312 6.88h-1.13V7.365h1.13z"
         id="path141" />
      <use
         xlink:href="#G"
         x="222.839"
         id="use143" />
      <use
         xlink:href="#K"
         x="183.508"
         id="use145" />
      <path
         d="M1329.45 17h-1.102V6.814h1.102zm7.157 0h-1.102v-1.075h-.027q-.72 1.236-2.116 1.236-1.028 0-1.612-.544-.578-.544-.578-1.445 0-1.928 2.27-2.244l2.063-.3q0-1.754-1.418-1.754-1.243 0-2.244.847V10.6q1.015-.645 2.338-.645 2.425 0 2.425 2.567zm-1.102-3.48l-1.66.228q-.766.107-1.156.383-.4.27-.4.96 0 .504.356.826.363.316.96.316.82 0 1.35-.57.537-.578.537-1.458z"
         id="path147" />
      <use
         xlink:href="#M"
         x="56.244"
         id="use149" />
      <use
         xlink:href="#J"
         x="228.584"
         id="use151" />
      <use
         xlink:href="#F"
         x="265.937"
         id="use153" />
      <use
         xlink:href="#G"
         x="265.947"
         id="use155" />
      <use
         xlink:href="#F"
         x="279.395"
         id="use157" />
      <path
         d="M1377.074 17h-1.102v-3.924q0-2.2-1.6-2.2-.826 0-1.37.625-.538.618-.538 1.565V17h-1.102v-6.88h1.102v1.142h.027q.78-1.303 2.257-1.303 1.13 0 1.727.732.598.726.598 2.103zm7.484-6.88l-2.74 6.88h-1.082l-2.607-6.88h1.2l1.747 5q.195.55.242.96h.027q.067-.517.215-.934l1.828-5.026z"
         id="path159" />
    </g>
  </g>
  <path
     d="M92.61 39.825h-.87v2.694h-.353v-2.694h-.868v-.32h2.09z"
     id="path165" />
  <use
     xlink:href="#N"
     id="use167" />
  <use
     xlink:href="#O"
     id="use169" />
  <path
     d="M99.718 41.44q0 .536-.227.834-.227.296-.607.296-.177 0-.3-.05v-.35q.113.082.294.082.477 0 .477-.81v-1.938h.353z"
     id="path171" />
  <use
     xlink:href="#P"
     id="use173" />
  <use
     xlink:href="#Q"
     id="use175" />
  <use
     xlink:href="#R"
     id="use177" />
  <use
     xlink:href="#S"
     id="use179" />
  <use
     xlink:href="#T"
     id="use181" />
  <use
     xlink:href="#U"
     id="use183" />
  <use
     xlink:href="#Q"
     x="9.966"
     id="use185" />
  <path
     d="M114 42.21h-.008v1.3h-.345v-3.142h.345v.378H114q.254-.43.744-.43.416 0 .65.3.233.288.233.773 0 .54-.263.866-.263.324-.72.324-.418 0-.645-.36zm-.008-.868v.3q0 .267.172.454.174.185.44.185.313 0 .5-.24.18-.24.18-.666 0-.36-.166-.563-.166-.204-.45-.204-.3 0-.483.2-.183.208-.183.523z"
     id="path187" />
  <use
     xlink:href="#V"
     id="use189" />
  <use
     xlink:href="#W"
     id="use191" />
  <use
     xlink:href="#U"
     x="8.964"
     id="use193" />
  <use
     xlink:href="#O"
     x="26.088"
     id="use195" />
  <use
     xlink:href="#S"
     x="16.526"
     id="use197" />
  <use
     xlink:href="#X"
     class="J"
     id="use199" />
  <use
     xlink:href="#Y"
     id="use201" />
  <use
     xlink:href="#Z"
     id="use203" />
  <use
     xlink:href="#a"
     id="use205" />
  <use
     xlink:href="#b"
     id="use207" />
  <use
     xlink:href="#c"
     id="use209" />
  <use
     xlink:href="#a"
     x="6.563"
     id="use211" />
  <use
     xlink:href="#a"
     x="8.458"
     id="use213" />
  <use
     xlink:href="#d"
     id="use215" />
  <use
     xlink:href="#P"
     x="46.978"
     id="use217" />
  <use
     xlink:href="#U"
     x="38.508"
     id="use219" />
  <use
     xlink:href="#e"
     id="use221" />
  <use
     xlink:href="#f"
     id="use223" />
  <use
     xlink:href="#W"
     x="37.04"
     id="use225" />
  <use
     xlink:href="#S"
     x="49.818"
     id="use227" />
  <path
     d="M163.163 42.52h-.345v-1.236q0-.357-.11-.517-.11-.16-.37-.16-.22 0-.376.202-.153.202-.153.483v1.227h-.345v-1.278q0-.635-.5-.635-.227 0-.374.19-.147.19-.147.494v1.227h-.345v-2.152h.345v.34h.008q.23-.39.668-.39.22 0 .385.124.164.122.225.322.24-.446.715-.446.7 0 .7.876z"
     id="path229" />
  <use
     xlink:href="#Q"
     x="61.186"
     id="use231" />
  <use
     xlink:href="#S"
     x="57.573"
     id="use233" />
  <use
     xlink:href="#T"
     x="57.573"
     id="use235" />
  <use
     xlink:href="#f"
     x="16.526"
     id="use237" />
  <use
     xlink:href="#R"
     x="67.524"
     id="use239" />
  <use
     xlink:href="#T"
     x="64.519"
     id="use241" />
  <use
     xlink:href="#O"
     x="80.147"
     id="use243" />
  <use
     xlink:href="#g"
     id="use245" />
  <use
     xlink:href="#V"
     x="64.23"
     id="use247" />
  <use
     xlink:href="#S"
     x="-17.48"
     y="7.288"
     id="use253" />
  <path
     d="M94.596 49.81h-.345v-1.24q0-.673-.5-.673-.252 0-.425.195-.172.193-.172.498v1.22H92.8v-3.186h.345v1.39h.008q.248-.408.706-.408.727 0 .727.876z"
     id="path255" />
  <use
     xlink:href="#O"
     x="-0.225"
     y="7.29"
     id="use257" />
  <path
     d="M98.856 46.795L97.4 50.31h-.322l1.442-3.514z"
     id="path259" />
  <use
     xlink:href="#S"
     x="-8.111"
     y="7.288"
     id="use261" />
  <path
     d="M102.786 49.81h-.345v-1.24q0-.673-.5-.673-.252 0-.425.195-.172.193-.172.498v1.22H101v-3.186h.345v1.39h.008q.248-.408.706-.408.727 0 .727.876z"
     id="path263" />
  <use
     xlink:href="#O"
     x="7.965"
     y="7.29"
     id="use265" />
  <use
     xlink:href="#Q"
     x="4.238"
     y="7.28"
     id="use267" />
  <use
     xlink:href="#R"
     x="4.238"
     y="7.29"
     id="use269" />
  <use
     xlink:href="#h"
     id="use271" />
  <use
     xlink:href="#O"
     x="16.33"
     y="7.29"
     id="use273" />
  <use
     xlink:href="#R"
     x="10.384"
     y="7.29"
     id="use275" />
  <use
     xlink:href="#i"
     id="use277" />
  <use
     xlink:href="#S"
     x="11.739"
     y="7.288"
     id="use279" />
  <use
     xlink:href="#h"
     x="11.684"
     id="use281" />
  <use
     xlink:href="#f"
     x="-28.658"
     y="7.29"
     id="use283" />
  <use
     xlink:href="#X"
     x="0.313"
     y="7.29"
     class="J"
     id="use285" />
  <path
     d="M130.787 49.8h-.664v-.296h-.008q-.227.35-.666.35-.404 0-.65-.284-.246-.286-.246-.797 0-.534.27-.855.27-.322.7-.322.416 0 .58.298h.008v-1.28h.664zm-.65-1.047V48.6q0-.2-.122-.35-.122-.14-.317-.14-.22 0-.345.174-.124.172-.124.475 0 .284.12.437.12.153.332.153.202 0 .328-.162.128-.162.128-.43zm1.545-1.447q-.168 0-.275-.1-.107-.1-.107-.246 0-.15.107-.244.107-.095.275-.095.17 0 .275.095.107.095.107.244 0 .15-.107.248-.105.097-.275.097zM132 49.8h-.664v-2.152H132z"
     id="path287" />
  <use
     xlink:href="#a"
     x="0.376"
     y="7.289"
     id="use289" />
  <use
     xlink:href="#b"
     x="0.377"
     y="7.288"
     id="use291" />
  <use
     xlink:href="#c"
     x="0.376"
     y="7.29"
     id="use293" />
  <use
     xlink:href="#a"
     x="6.94"
     y="7.289"
     id="use295" />
  <use
     xlink:href="#a"
     x="8.833"
     y="7.289"
     id="use297" />
  <use
     xlink:href="#P"
     x="45.292"
     y="7.29"
     id="use299" />
  <use
     xlink:href="#j"
     id="use301" />
  <path
     d="M151.556 49.788q-.122.067-.322.067-.565 0-.565-.63V47.95h-.37v-.294h.37v-.525l.345-.11v.637h.542v.294h-.542v1.213q0 .216.074.31.073.092.244.092.13 0 .225-.07z"
     id="path303" />
  <use
     xlink:href="#N"
     x="58.981"
     y="7.29"
     id="use305" />
  <use
     xlink:href="#O"
     x="58.982"
     y="7.29"
     id="use307" />
  <use
     xlink:href="#R"
     x="54.212"
     y="7.29"
     id="use309" />
  <use
     xlink:href="#O"
     x="64.847"
     y="7.29"
     id="use311" />
  <path
     d="M164.14 47.657l-.723 1.1.7 1.063h-.4l-.422-.698q-.04-.065-.095-.164h-.008q-.01.02-.1.164l-.43.698h-.397l.733-1.055-.702-1.097h.4l.416.736q.046.082.1.168h.008l.538-.904zm1.402 2.13q-.122.067-.322.067-.565 0-.565-.63V47.95h-.37v-.294h.37v-.525l.345-.1v.637h.542v.294H165v1.213q0 .216.073.3.074.092.244.092.13 0 .225-.07zm4.695.022h-.345v-1.236q0-.357-.1-.517-.1-.16-.37-.16-.22 0-.376.202-.153.202-.153.483v1.227h-.345v-1.28q0-.635-.5-.635-.227 0-.374.2-.147.2-.147.494v1.227h-.345v-2.152h.345v.34h.008q.23-.4.668-.4.22 0 .385.124.164.122.225.322.24-.446.715-.446.7 0 .7.876z"
     id="path313" />
  <use
     xlink:href="#O"
     x="75.418"
     y="7.29"
     id="use315" />
  <use
     xlink:href="#O"
     x="77.67"
     y="7.29"
     id="use317" />
  <use
     xlink:href="#j"
     x="27.468"
     id="use319" />
  <use
     xlink:href="#Q"
     x="74.221"
     y="7.28"
     id="use321" />
  <use
     xlink:href="#R"
     x="74.221"
     y="7.29"
     id="use323" />
  <use
     xlink:href="#k"
     id="use325" />
  <use
     xlink:href="#e"
     x="-62.58"
     y="15.12"
     id="use329" />
  <use
     xlink:href="#S"
     x="-17.719"
     y="15.118"
     id="use331" />
  <use
     xlink:href="#N"
     x="-0.465"
     y="15.118"
     id="use333" />
  <use
     xlink:href="#e"
     x="-56.097"
     y="15.12"
     id="use335" />
  <use
     xlink:href="#k"
     x="-84.279"
     y="7.828"
     id="use337" />
  <use
     xlink:href="#N"
     x="5.548"
     y="15.118"
     id="use339" />
  <use
     xlink:href="#l"
     id="use341" />
  <use
     xlink:href="#e"
     x="-49.042"
     y="15.12"
     id="use343" />
  <use
     xlink:href="#k"
     x="-77.224"
     y="7.828"
     id="use345" />
  <use
     xlink:href="#N"
     x="12.603"
     y="15.118"
     id="use347" />
  <path
     d="M109.072 57.617q-.122.067-.322.067-.565 0-.565-.63V55.78h-.37v-.294h.37v-.525l.345-.11v.637h.542v.294h-.542v1.213q0 .216.074.31.073.092.244.092.13 0 .225-.07z"
     id="path349" />
  <use
     xlink:href="#O"
     x="14.062"
     y="15.118"
     id="use351" />
  <use
     xlink:href="#i"
     x="-4.705"
     y="7.828"
     id="use353" />
  <use
     xlink:href="#m"
     id="use355" />
  <path
     d="M119.473 57.638h-.345V56.4q0-.685-.5-.685-.258 0-.43.195-.168.193-.168.5v1.227h-.345v-2.152h.345v.357h.008q.244-.408.706-.408.353 0 .54.23.187.227.187.658z"
     id="path357" />
  <use
     xlink:href="#i"
     x="3.635"
     y="7.828"
     id="use359" />
  <path
     d="M123.588 57.638v-3.754a.93.93 0 0 1 .275-.664.93.93 0 0 1 .664-.275h21.583a.93.93 0 0 1 .664.275.93.93 0 0 1 .275.664v3.754a.93.93 0 0 1-.275.664.93.93 0 0 1-.664.275h-21.583a.93.93 0 0 1-.664-.275.93.93 0 0 1-.275-.664z"
     class="K"
     id="path361" />
  <use
     xlink:href="#Y"
     x="-2.976"
     y="15.118"
     id="use363" />
  <use
     xlink:href="#Z"
     x="-2.976"
     y="15.118"
     id="use365" />
  <use
     xlink:href="#a"
     x="-2.976"
     y="15.117"
     id="use367" />
  <use
     xlink:href="#b"
     x="-2.977"
     y="15.118"
     id="use369" />
  <path
     d="M135.22 57.638h-.662V57.3h-.01q-.246.38-.658.38-.748 0-.748-.906v-1.3h.662v1.24q0 .456.36.456.18 0 .286-.124.107-.126.107-.34v-1.232h.662z"
     id="path371" />
  <use
     xlink:href="#a"
     x="3.588"
     y="15.117"
     id="use373" />
  <path
     d="M137.532 57.58v-.538q.164.1.326.147.164.048.31.048.177 0 .277-.048.103-.048.103-.147 0-.063-.046-.105-.046-.042-.12-.074-.072-.032-.158-.057-.086-.025-.166-.057-.128-.048-.227-.103-.097-.057-.164-.13-.065-.074-.1-.17-.034-.097-.034-.23 0-.18.078-.31.08-.13.2-.212.132-.084.3-.122.17-.04.353-.04.143 0 .3.023.147.02.3.063v.513q-.126-.074-.27-.11-.143-.038-.282-.038-.065 0-.124.013-.057.01-.1.034-.044.02-.07.057-.025.034-.025.078 0 .06.038.1.038.042.1.074.06.03.135.055.076.023.15.048.132.046.24.1.107.055.183.128.078.074.118.172.042.1.042.235 0 .19-.084.328-.082.135-.22.22-.137.084-.317.122-.18.04-.372.04-.355 0-.658-.11z"
     id="path375" />
  <use
     xlink:href="#n"
     id="use377" />
  <path
     d="M144 57.638h-.664v-.296h-.008q-.227.35-.666.35-.403 0-.65-.284-.246-.286-.246-.797 0-.534.27-.855.27-.322.7-.322.416 0 .58.298h.008v-1.28H144zm-.65-1.047v-.162q0-.2-.122-.35-.122-.14-.317-.14-.22 0-.345.174-.124.172-.124.475 0 .284.12.437.12.153.332.153.202 0 .328-.162.128-.162.128-.43zm1.506 1.11q-.164 0-.273-.1-.1-.1-.1-.248 0-.15.1-.248.113-.097.282-.097.17 0 .277.1.1.097.1.246 0 .153-.1.252-.1.097-.286.097zm4.08-.062h-.353v-3.014h.353zm3.802 0h-.345v-1.236q0-.357-.1-.517-.1-.16-.37-.16-.22 0-.376.202-.153.202-.153.483v1.227h-.345V56.36q0-.635-.5-.635-.227 0-.374.2-.147.2-.147.494v1.227h-.345v-2.152h.345v.34h.008q.23-.4.668-.4.22 0 .385.124.164.122.225.322.24-.446.715-.446.7 0 .7.876z"
     id="path379" />
  <use
     xlink:href="#g"
     x="-24.478"
     y="15.117"
     id="use381" />
  <use
     xlink:href="#f"
     x="3.774"
     y="15.118"
     id="use383" />
  <use
     xlink:href="#U"
     x="47.343"
     y="15.118"
     id="use385" />
  <use
     xlink:href="#o"
     id="use387" />
  <use
     xlink:href="#m"
     x="45.899"
     id="use389" />
  <use
     xlink:href="#p"
     id="use391" />
  <use
     xlink:href="#o"
     x="6.085"
     id="use393" />
  <path
     d="M169.78 55.834q-.1-.07-.26-.07-.22 0-.37.208-.147.208-.147.567v1.097h-.345v-2.152h.345v.443h.008q.074-.227.225-.353.15-.128.338-.128.134 0 .206.03z"
     id="path395" />
  <use
     xlink:href="#O"
     x="74.685"
     y="15.118"
     id="use397" />
  <use
     xlink:href="#T"
     x="63.296"
     y="15.12"
     id="use399" />
  <use
     xlink:href="#O"
     x="78.923"
     y="15.118"
     id="use401" />
  <use
     xlink:href="#p"
     x="13.058"
     id="use403" />
  <use
     xlink:href="#o"
     x="19.145"
     id="use405" />
  <use
     xlink:href="#l"
     x="79.519"
     id="use407" />
  <use
     xlink:href="#q"
     id="use409" />
  <path
     d="M119.33 64.94h-.353v-3.014h.353z"
     id="path411" />
  <use
     xlink:href="#r"
     id="use413" />
  <path
     d="M123.275 64.94v-3.754a.93.93 0 0 1 .275-.664.93.93 0 0 1 .664-.275h21.896a.93.93 0 0 1 .664.275.93.93 0 0 1 .275.664v3.754a.93.93 0 0 1-.275.664.93.93 0 0 1-.664.275h-21.896a.93.93 0 0 1-.664-.275.93.93 0 0 1-.275-.664z"
     class="K"
     id="path415" />
  <path
     d="M127.288 64.94h-.664v-.296h-.008q-.227.35-.666.35-.404 0-.65-.284-.246-.286-.246-.796 0-.534.27-.855.27-.322.7-.322.416 0 .58.298h.008v-1.28h.664zm-.65-1.047v-.162q0-.2-.122-.35-.122-.14-.317-.14-.22 0-.345.174-.124.172-.124.475 0 .284.12.437.12.153.332.153.202 0 .328-.162.128-.162.128-.43z"
     id="path417" />
  <use
     xlink:href="#Z"
     x="-3.123"
     y="22.419"
     id="use419" />
  <use
     xlink:href="#s"
     id="use421" />
  <use
     xlink:href="#b"
     x="-3.123"
     y="22.418"
     id="use423" />
  <use
     xlink:href="#c"
     x="-3.123"
     y="22.42"
     id="use425" />
  <use
     xlink:href="#s"
     x="6.562"
     id="use427" />
  <path
     d="M137.386 64.882v-.538q.164.1.326.147.164.048.31.048.177 0 .277-.048.103-.048.103-.147 0-.063-.046-.105-.046-.042-.12-.073-.07-.03-.158-.057-.086-.025-.166-.057-.128-.048-.227-.103-.097-.057-.164-.13-.065-.074-.1-.17-.034-.097-.034-.23 0-.18.078-.31.08-.13.2-.212.132-.084.3-.122.17-.04.353-.04.143 0 .3.023.147.02.3.063v.513q-.126-.073-.27-.11-.143-.038-.282-.038-.065 0-.124.013-.057.01-.1.034-.044.02-.07.057-.025.034-.025.078 0 .06.038.1.038.042.1.074.06.03.135.055.076.023.15.048.132.046.24.1.107.055.183.128.078.074.118.172.042.1.042.235 0 .19-.084.328-.082.135-.22.22-.137.084-.317.122-.18.04-.372.04-.355 0-.658-.11z"
     id="path429" />
  <use
     xlink:href="#Z"
     x="8.45"
     y="22.419"
     id="use431" />
  <path
     d="M142.722 64.94h-.662v-1.196q0-.5-.357-.5-.172 0-.284.132-.1.132-.1.336v1.227h-.664v-2.152h.664v.34h.008q.237-.393.7-.393.715 0 .715.887zm2.635-.247q0 .6-.347.927-.347.33-1.005.33-.435 0-.7-.124v-.56q.332.193.67.193.336 0 .52-.18.185-.177.185-.48v-.17h-.008q-.227.36-.67.36-.412 0-.654-.3-.242-.3-.242-.778 0-.546.27-.868.27-.322.708-.322.393 0 .588.303h.008v-.25h.664zm-.656-.788v-.17q0-.204-.122-.347-.12-.145-.313-.145-.22 0-.347.172-.126.172-.126.485 0 .27.12.427.12.156.328.156.206 0 .332-.158.128-.16.128-.42zm4.067 1.035v-3.014h.857q.4 0 .62.2.23.2.23.498 0 .256-.14.446-.14.2-.382.27v.008q.305.036.488.23.183.193.183.504 0 .387-.277.626-.277.24-.7.24zm.353-2.694v.973h.36q.3 0 .456-.14.166-.14.166-.395 0-.44-.578-.44zm0 1.3v1.084h.48q.3 0 .48-.147.172-.147.172-.404 0-.534-.727-.534z"
     id="path433" />
  <use
     xlink:href="#P"
     x="50.752"
     y="22.42"
     id="use435" />
  <use
     xlink:href="#U"
     x="42.28"
     y="22.419"
     id="use437" />
  <use
     xlink:href="#t"
     id="use439" />
  <use
     xlink:href="#P"
     x="56.968"
     y="22.42"
     id="use441" />
  <use
     xlink:href="#U"
     x="48.497"
     y="22.419"
     id="use443" />
  <path
     d="M161.268 62.24q-.092 0-.158-.063-.065-.063-.065-.16 0-.097.065-.16.065-.065.158-.065.095 0 .16.065.067.063.067.16 0 .093-.067.158-.065.065-.16.065zm.168 2.698h-.345v-2.152h.345zm.568-.078v-.37q.282.208.62.208.454 0 .454-.303 0-.086-.04-.145-.038-.06-.105-.107-.065-.046-.156-.082-.088-.038-.2-.078-.143-.057-.252-.113-.107-.06-.18-.13-.072-.074-.1-.166-.036-.093-.036-.216 0-.15.07-.267.07-.118.185-.195.116-.08.263-.12.15-.04.307-.04.28 0 .5.097v.35q-.237-.156-.546-.156-.097 0-.174.023-.078.02-.134.06-.055.04-.086.097-.03.055-.03.122 0 .084.03.14.03.057.1.1.06.044.143.08.084.036.2.078.143.055.256.113.113.057.193.13.08.072.122.166.044.095.044.225 0 .16-.072.277-.07.118-.187.195-.118.078-.27.116-.153.038-.322.038-.332 0-.576-.128zm5.012.08h-.345v-1.236q0-.357-.1-.517-.1-.16-.37-.16-.22 0-.376.202-.153.202-.153.483v1.227h-.345v-1.28q0-.635-.5-.635-.227 0-.374.2-.147.2-.147.494v1.227h-.345v-2.152h.345v.34h.008q.23-.4.668-.4.22 0 .385.124.164.122.225.322.24-.446.715-.446.7 0 .7.876z"
     id="path445" />
  <use
     xlink:href="#P"
     x="68.409"
     y="22.42"
     id="use447" />
  <use
     xlink:href="#r"
     x="50.959"
     id="use449" />
  <use
     xlink:href="#i"
     x="56.985"
     y="15.13"
     id="use451" />
  <path
     d="M179.283 64.813q-.334.177-.832.177-.643 0-1.03-.414-.387-.414-.387-1.087 0-.723.435-1.168.435-.446 1.103-.446.43 0 .7.124v.376q-.324-.18-.715-.18-.52 0-.843.347-.322.347-.322.927 0 .55.3.878.303.326.792.326.454 0 .786-.202zm2.354.127h-.345V63.7q0-.673-.5-.673-.252 0-.425.195-.172.193-.172.498v1.22h-.345v-3.186h.345v1.4h.008q.248-.408.706-.408.727 0 .727.876z"
     id="path453" />
  <path
     d="M183.96 62.24q-.093 0-.158-.063-.065-.063-.065-.16 0-.097.065-.16.065-.065.158-.065.095 0 .16.065.067.063.067.16 0 .093-.067.158-.065.065-.16.065zm.168 2.698h-.345v-2.152h.345zM93.38 69.224l-1.116 3.014h-.4l-1.093-3.014h.393l.834 2.4q.04.116.06.267h.008q.017-.126.07-.27l.85-2.385zm2.862 3.014h-.433l-1.55-2.402q-.06-.1-.097-.2h-.013q.017.097.017.414v2.177h-.353v-3.014h.458l1.5 2.364q.095.147.122.202h.008q-.02-.13-.02-.443v-2.123h.353z"
     id="path457" />
  <use
     xlink:href="#u"
     id="use459" />
  <use
     xlink:href="#v"
     id="use461" />
  <use
     xlink:href="#u"
     x="4.624"
     id="use463" />
  <use
     xlink:href="#l"
     x="3.961"
     y="14.6"
     id="use465" />
  <use
     xlink:href="#q"
     x="-75.558"
     y="14.6"
     id="use467" />
  <path
     d="M109.606 70.184l-1.274 1.76h1.26v.294h-1.767v-.107l1.274-1.75h-1.154v-.294h1.66z"
     id="path469" />
  <use
     xlink:href="#O"
     x="14.58"
     y="29.718"
     id="use471" />
  <use
     xlink:href="#i"
     x="-4.185"
     y="22.428"
     id="use473" />
  <use
     xlink:href="#u"
     x="17.85"
     id="use475" />
  <use
     xlink:href="#v"
     x="17.852"
     id="use477" />
  <use
     xlink:href="#i"
     x="4.153"
     y="22.428"
     id="use479" />
  <path
     d="M123.9 72.238v-3.754a.93.93 0 0 1 .275-.664.93.93 0 0 1 .664-.275h20.644a.93.93 0 0 1 .664.275.93.93 0 0 1 .275.664v3.754a.93.93 0 0 1-.275.664.93.93 0 0 1-.664.275H124.84a.93.93 0 0 1-.664-.275.93.93 0 0 1-.275-.664z"
     class="K"
     id="path481" />
  <use
     xlink:href="#Y"
     x="-2.458"
     y="29.718"
     id="use483" />
  <use
     xlink:href="#Z"
     x="-2.458"
     y="29.718"
     id="use485" />
  <use
     xlink:href="#a"
     x="-2.458"
     y="29.717"
     id="use487" />
  <use
     xlink:href="#b"
     x="-2.457"
     y="29.718"
     id="use489" />
  <path
     d="M135.74 72.238h-.662V71.9h-.01q-.246.38-.658.38-.748 0-.748-.906v-1.3h.662v1.24q0 .456.36.456.18 0 .286-.124.107-.126.107-.34v-1.232h.662z"
     id="path491" />
  <use
     xlink:href="#a"
     x="4.105"
     y="29.717"
     id="use493" />
  <use
     xlink:href="#a"
     x="5.998"
     y="29.717"
     id="use495" />
  <use
     xlink:href="#n"
     x="0.518"
     y="14.6"
     id="use497" />
  <use
     xlink:href="#Y"
     x="14.11"
     y="29.718"
     id="use499" />
  <use
     xlink:href="#w"
     id="use501" />
  <use
     xlink:href="#N"
     x="56.308"
     y="29.718"
     id="use503" />
  <path
     d="M153.5 71.248H152q.008.36.193.555.185.195.51.195.364 0 .668-.24v.324q-.284.206-.75.206-.456 0-.717-.292-.26-.294-.26-.826 0-.502.284-.818.286-.317.708-.317.422 0 .654.273.23.273.23.76zm-.353-.292q-.002-.298-.145-.464-.14-.166-.393-.166-.244 0-.414.174-.17.174-.2.456z"
     id="path505" />
  <use
     xlink:href="#U"
     x="44.112"
     y="29.718"
     id="use507" />
  <use
     xlink:href="#O"
     x="61.236"
     y="29.718"
     id="use509" />
  <use
     xlink:href="#S"
     x="51.673"
     y="29.718"
     id="use511" />
  <use
     xlink:href="#x"
     id="use513" />
  <use
     xlink:href="#l"
     x="62.2"
     y="14.6"
     id="use515" />
  <use
     xlink:href="#w"
     x="16.376"
     id="use517" />
  <use
     xlink:href="#S"
     x="58.446"
     y="29.718"
     id="use519" />
  <use
     xlink:href="#u"
     x="70.56"
     id="use521" />
  <use
     xlink:href="#v"
     x="70.56"
     id="use523" />
  <use
     xlink:href="#i"
     x="56.863"
     y="22.428"
     id="use525" />
  <path
     d="M178.128 69.354q-.1-.057-.23-.057-.36 0-.36.456v.332h.504v.294h-.504v1.858h-.343V70.38h-.368v-.294h.368v-.35q0-.338.195-.534.195-.198.488-.198.158 0 .25.038z"
     id="path527" />
  <use
     xlink:href="#f"
     x="26.266"
     y="29.718"
     id="use529" />
  <use
     xlink:href="#U"
     x="69.836"
     y="29.718"
     id="use531" />
  <use
     xlink:href="#f"
     x="-63.864"
     y="37.553"
     id="use537" />
  <use
     xlink:href="#y"
     id="use539" />
  <use
     xlink:href="#V"
     x="-22.84"
     y="37.552"
     id="use541" />
  <use
     xlink:href="#N"
     x="1.75"
     y="37.553"
     id="use543" />
  <path
     d="M97.398 77.375q-.092 0-.158-.063-.065-.063-.065-.16 0-.097.065-.16.065-.065.158-.065.095 0 .16.065.067.063.067.16 0 .092-.067.158-.065.065-.16.065zm.168 2.698h-.345V77.92h.345z"
     id="path545" />
  <use
     xlink:href="#S"
     x="-9.02"
     y="37.553"
     id="use547" />
  <use
     xlink:href="#z"
     id="use549" />
  <use
     xlink:href="#P"
     x="3.362"
     y="37.553"
     id="use551" />
  <use
     xlink:href="#z"
     x="4.721"
     id="use553" />
  <use
     xlink:href="#O"
     x="13.05"
     y="37.553"
     id="use555" />
  <path
     d="M111.893 78.27q-.1-.07-.26-.07-.22 0-.37.208-.147.208-.147.567v1.097h-.345V77.92h.345v.443h.008q.074-.227.225-.353.15-.128.338-.128.135 0 .206.03zm.69 1.324l-.336 1.034H112l.246-1.034z"
     id="path557" />
  <path
     d="M113.89 80.073V76.32a.93.93 0 0 1 .275-.664.93.93 0 0 1 .664-.275h41.29a.93.93 0 0 1 .663.275.93.93 0 0 1 .275.664v3.754a.93.93 0 0 1-.275.664.93.93 0 0 1-.663.275h-41.29a.93.93 0 0 1-.664-.275.93.93 0 0 1-.275-.664z"
     class="L"
     id="path559" />
  <use
     xlink:href="#AA"
     id="use561" />
  <use
     xlink:href="#n"
     x="-20.284"
     y="22.436"
     id="use563" />
  <use
     xlink:href="#AB"
     id="use565" />
  <use
     xlink:href="#Y"
     x="-3.19"
     y="37.553"
     id="use567" />
  <use
     xlink:href="#Y"
     x="-0.525"
     y="37.553"
     id="use569" />
  <path
     d="M131.848 78.52q-.12-.065-.28-.065-.216 0-.338.16-.122.158-.122.43v1.028h-.664V77.92h.664v.4h.008q.158-.437.567-.437.105 0 .164.025z"
     id="path571" />
  <use
     xlink:href="#n"
     x="-7.427"
     y="22.436"
     id="use573" />
  <use
     xlink:href="#a"
     x="2.275"
     y="37.553"
     id="use575" />
  <use
     xlink:href="#a"
     x="4.168"
     y="37.553"
     id="use577" />
  <use
     xlink:href="#a"
     x="7.25"
     y="37.553"
     id="use579" />
  <use
     xlink:href="#AC"
     id="use581" />
  <path
     d="M147.385 80.073h-.662v-1.227q0-.47-.345-.47-.164 0-.267.14-.103.14-.103.35v1.204h-.664v-1.24q0-.456-.338-.456-.17 0-.273.135-.1.135-.1.366v1.196h-.664V77.92h.664v.336h.008q.103-.172.288-.28.187-.11.408-.11.456 0 .624.4.246-.4.723-.4.702 0 .702.866z"
     id="path583" />
  <use
     xlink:href="#n"
     x="8.343"
     y="22.436"
     id="use585" />
  <use
     xlink:href="#AC"
     x="10.09"
     id="use587" />
  <path
     d="M155.396 77.396q-.128-.05-.246-.05-.32 0-.32.347v.23h.492v.5h-.492v1.662h-.662V78.41h-.36v-.5h.36v-.267q0-.368.24-.593.24-.225.65-.225.202 0 .336.042z"
     id="path589" />
  <use
     xlink:href="#V"
     x="42.284"
     y="37.552"
     id="use591" />
  <use
     xlink:href="#N"
     x="66.875"
     y="37.553"
     id="use593" />
  <use
     xlink:href="#O"
     x="66.876"
     y="37.553"
     id="use595" />
  <path
     d="M167.653 80.073h-.345v-1.236q0-.357-.11-.517-.11-.16-.37-.16-.22 0-.376.202-.153.202-.153.483v1.227h-.345v-1.278q0-.635-.5-.635-.227 0-.374.19-.147.19-.147.494v1.227h-.345V77.92h.345v.34h.008q.23-.39.668-.39.22 0 .385.124.164.122.225.322.24-.446.715-.446.7 0 .7.876z"
     id="path597" />
  <use
     xlink:href="#AD"
     id="use599" />
  <use
     xlink:href="#AE"
     id="use601" />
  <use
     xlink:href="#AF"
     id="use603" />
  <use
     xlink:href="#AG"
     id="use605" />
  <use
     xlink:href="#q"
     x="-88.918"
     y="29.714"
     id="use607" />
  <use
     xlink:href="#S"
     x="-11.359"
     y="44.842"
     id="use609" />
  <use
     xlink:href="#q"
     x="-83.83"
     y="29.714"
     id="use611" />
  <use
     xlink:href="#S"
     x="-7.451"
     y="44.842"
     id="use613" />
  <use
     xlink:href="#AG"
     x="10.455"
     id="use615" />
  <use
     xlink:href="#O"
     x="7.648"
     y="44.842"
     id="use617" />
  <path
     d="M108.425 87.362h-.345v-1.236q0-.357-.11-.517-.11-.16-.37-.16-.22 0-.376.202-.153.202-.153.483v1.227h-.345v-1.278q0-.635-.5-.635-.227 0-.374.19-.147.19-.147.494v1.227h-.345V85.2h.345v.34h.008q.23-.39.668-.39.22 0 .385.124.164.122.225.322.24-.446.715-.446.7 0 .7.876z"
     id="path619" />
  <use
     xlink:href="#S"
     x="1.792"
     y="44.842"
     id="use621" />
  <use
     xlink:href="#AD"
     x="-57.401"
     y="7.288"
     id="use623" />
  <path
     d="M112.64 87.362v-3.754a.93.93 0 0 1 .275-.664.93.93 0 0 1 .664-.275h43.478a.93.93 0 0 1 .663.275.93.93 0 0 1 .275.664v3.754a.93.93 0 0 1-.275.664.93.93 0 0 1-.663.275h-43.478a.93.93 0 0 1-.664-.275.93.93 0 0 1-.275-.664z"
     class="L"
     id="path625" />
  <use
     xlink:href="#AH"
     id="use627" />
  <use
     xlink:href="#n"
     x="-20.85"
     y="29.725"
     id="use629" />
  <use
     xlink:href="#n"
     x="-17.333"
     y="29.725"
     id="use631" />
  <use
     xlink:href="#AI"
     id="use633" />
  <use
     xlink:href="#AB"
     x="4.14"
     y="7.289"
     id="use635" />
  <path
     d="M132.672 87.362H132v-1.227q0-.47-.345-.47-.164 0-.267.14-.103.14-.103.35v1.204h-.664v-1.24q0-.456-.338-.456-.17 0-.273.135-.1.135-.1.366v1.196h-.664V85.2h.664v.336h.008q.103-.172.288-.28.187-.1.408-.1.456 0 .624.4.246-.4.723-.4.702 0 .702.866zm.86-2.492q-.168 0-.275-.1-.107-.1-.107-.246 0-.15.107-.244.107-.095.275-.095.17 0 .275.095.107.095.107.244 0 .15-.107.248-.105.097-.275.097zm.328 2.492h-.664V85.2h.664zm2.64 0h-.662v-1.196q0-.5-.357-.5-.172 0-.284.132-.1.132-.1.336v1.227h-.664V85.2h.664v.34h.008q.237-.393.7-.393.715 0 .715.887z"
     id="path637" />
  <use
     xlink:href="#n"
     x="-2.542"
     y="29.725"
     id="use639" />
  <use
     xlink:href="#a"
     x="8.348"
     y="44.842"
     id="use641" />
  <use
     xlink:href="#AC"
     x="1.098"
     y="7.288"
     id="use643" />
  <path
     d="M148.482 87.362h-.662v-1.227q0-.47-.345-.47-.164 0-.267.14-.103.14-.103.35v1.204h-.664v-1.24q0-.456-.338-.456-.17 0-.273.135-.1.135-.1.366v1.196h-.664V85.2h.664v.336h.008q.103-.172.288-.28.187-.11.408-.11.456 0 .624.4.246-.4.723-.4.702 0 .702.866z"
     id="path645" />
  <use
     xlink:href="#n"
     x="9.44"
     y="29.725"
     id="use647" />
  <use
     xlink:href="#AC"
     x="11.188"
     y="7.288"
     id="use649" />
  <path
     d="M156.493 84.684q-.128-.05-.246-.05-.32 0-.32.347v.23h.492v.5h-.492v1.662h-.662V85.7h-.36v-.5h.36v-.267q0-.368.24-.593.24-.225.65-.225.202 0 .336.042z"
     id="path651" />
  <use
     xlink:href="#AG"
     x="68.342"
     id="use653" />
  <use
     xlink:href="#N"
     x="67.97"
     y="44.842"
     id="use655" />
  <use
     xlink:href="#O"
     x="67.97"
     y="44.842"
     id="use657" />
  <use
     xlink:href="#AF"
     x="76.708"
     id="use659" />
  <use
     xlink:href="#AJ"
     id="use661" />
  <use
     xlink:href="#AG"
     x="79.145"
     id="use663" />
  <use
     xlink:href="#O"
     x="76.337"
     y="44.842"
     id="use665" />
  <use
     xlink:href="#AE"
     x="85.392"
     id="use667" />
  <use
     xlink:href="#P"
     x="75.117"
     y="44.842"
     id="use669" />
  <use
     xlink:href="#T"
     x="68.635"
     y="44.843"
     id="use671" />
  <use
     xlink:href="#AG"
     x="88.527"
     id="use673" />
  <use
     xlink:href="#AF"
     x="91.028"
     id="use675" />
  <use
     xlink:href="#AK"
     id="use683" />
  <use
     xlink:href="#AL"
     id="use685" />
  <use
     xlink:href="#AM"
     id="use687" />
  <path
     d="M96.814 94.662h-.345v-1.236q0-.357-.11-.517-.11-.16-.37-.16-.22 0-.376.202-.153.202-.153.483v1.227h-.345v-1.278q0-.635-.5-.635-.227 0-.374.19-.147.19-.147.494v1.227h-.345V92.5h.345v.34h.008q.23-.39.668-.39.22 0 .385.124.164.122.225.322.24-.446.715-.446.7 0 .7.876z"
     id="path689" />
  <use
     xlink:href="#AN"
     id="use691" />
  <use
     xlink:href="#AO"
     id="use693" />
  <use
     xlink:href="#f"
     x="-49.469"
     y="52.142"
     id="use695" />
  <use
     xlink:href="#AM"
     x="13.875"
     id="use697" />
  <path
     d="M107.986 94.35h-.008v1.3h-.345V92.5h.345v.378h.008q.254-.43.744-.43.416 0 .65.3.233.288.233.773 0 .54-.263.866-.263.324-.72.324-.418 0-.645-.36zm-.008-.868v.3q0 .267.172.454.174.185.44.185.313 0 .5-.24.18-.24.18-.666 0-.36-.166-.563-.166-.204-.45-.204-.3 0-.483.2-.183.208-.183.523z"
     id="path699" />
  <use
     xlink:href="#S"
     x="2.879"
     y="52.142"
     id="use701" />
  <use
     xlink:href="#AD"
     x="-56.314"
     y="14.588"
     id="use703" />
  <path
     d="M113.89 94.662v-3.754a.93.93 0 0 1 .275-.664.93.93 0 0 1 .664-.275h40.976a.93.93 0 0 1 .663.275.93.93 0 0 1 .275.664v3.754c0 .124-.024.244-.072.36a.93.93 0 0 1-.508.508.93.93 0 0 1-.359.071H114.83a.93.93 0 0 1-.664-.275.93.93 0 0 1-.275-.664z"
     class="L"
     id="path705" />
  <use
     xlink:href="#AH"
     x="1.084"
     y="7.3"
     id="use707" />
  <use
     xlink:href="#n"
     x="-19.764"
     y="37.025"
     id="use709" />
  <use
     xlink:href="#n"
     x="-16.248"
     y="37.025"
     id="use711" />
  <use
     xlink:href="#AI"
     x="1.085"
     y="7.3"
     id="use713" />
  <path
     d="M128.696 94.412h-.008v1.24h-.664V92.5h.664v.324h.008q.246-.376.7-.376.418 0 .645.288.23.286.23.78 0 .538-.267.864-.265.326-.706.326-.4 0-.593-.303zm-.02-.883v.172q0 .223.118.364.118.14.3.14.227 0 .35-.174.126-.177.126-.498 0-.567-.44-.567-.204 0-.334.156-.128.153-.128.408zm2.68 1.133h-.664v-3.186h.664z"
     id="path715" />
  <use
     xlink:href="#AB"
     x="9.116"
     y="14.589"
     id="use717" />
  <path
     d="M134.568 92.17q-.168 0-.275-.1-.107-.1-.107-.246 0-.15.107-.244.107-.095.275-.095.17 0 .275.095.107.095.107.244 0 .15-.107.248-.105.097-.275.097zm.328 2.492h-.664V92.5h.664zm2.637 0h-.662v-1.196q0-.5-.357-.5-.172 0-.284.132-.1.132-.1.336v1.227h-.664V92.5h.664v.34h.008q.237-.393.7-.393.715 0 .715.887z"
     id="path719" />
  <use
     xlink:href="#a"
     x="7.053"
     y="52.142"
     id="use721" />
  <use
     xlink:href="#AC"
     x="-0.197"
     y="14.588"
     id="use723" />
  <path
     d="M147.188 94.662h-.662v-1.227q0-.47-.345-.47-.164 0-.267.14-.103.14-.103.35v1.204h-.664v-1.24q0-.456-.338-.456-.17 0-.273.135-.1.135-.1.366v1.196h-.664V92.5h.664v.336h.008q.103-.172.288-.28.187-.11.408-.11.456 0 .624.4.246-.4.723-.4.702 0 .702.866z"
     id="path725" />
  <use
     xlink:href="#n"
     x="8.147"
     y="37.025"
     id="use727" />
  <use
     xlink:href="#AC"
     x="9.893"
     y="14.588"
     id="use729" />
  <path
     d="M155.2 91.985q-.128-.05-.246-.05-.32 0-.32.347v.23h.492v.5h-.492v1.662h-.662V93h-.36v-.5h.36v-.267q0-.368.24-.593.24-.225.65-.225.202 0 .336.042z"
     id="path731" />
  <use
     xlink:href="#AL"
     x="68.393"
     id="use733" />
  <use
     xlink:href="#N"
     x="66.68"
     y="52.142"
     id="use735" />
  <use
     xlink:href="#O"
     x="66.68"
     y="52.142"
     id="use737" />
  <use
     xlink:href="#AN"
     x="66.938"
     id="use739" />
  <use
     xlink:href="#O"
     x="72.645"
     y="52.142"
     id="use741" />
  <use
     xlink:href="#AK"
     x="82.939"
     id="use743" />
  <use
     xlink:href="#O"
     x="77.332"
     y="52.142"
     id="use745" />
  <use
     xlink:href="#AO"
     x="73.875"
     id="use747" />
  <use
     xlink:href="#P"
     x="76.122"
     y="52.142"
     id="use749" />
  <use
     xlink:href="#l"
     x="77.72"
     y="37.024"
     id="use751" />
  <use
     xlink:href="#AP"
     id="use753" />
  <path
     d="M182.324 92.61l-1.274 1.76h1.26v.294h-1.767v-.107l1.274-1.75h-1.154V92.5h1.66z"
     id="path755" />
  <path
     d="M98.06 102.51h-.353v-3.014h.353z"
     id="path765" />
  <use
     xlink:href="#R"
     x="-4.862"
     y="59.99"
     id="use767" />
  <use
     xlink:href="#V"
     x="-13.746"
     y="59.988"
     id="use769" />
  <use
     xlink:href="#N"
     x="10.845"
     y="59.99"
     id="use771" />
  <use
     xlink:href="#Q"
     x="3.689"
     y="59.98"
     id="use773" />
  <use
     xlink:href="#S"
     x="0.074"
     y="59.988"
     id="use775" />
  <use
     xlink:href="#g"
     x="-67.503"
     y="59.988"
     id="use777" />
  <use
     xlink:href="#P"
     x="12.457"
     y="59.99"
     id="use779" />
  <use
     xlink:href="#g"
     x="-62.783"
     y="59.988"
     id="use781" />
  <use
     xlink:href="#O"
     x="22.144"
     y="59.99"
     id="use783" />
  <use
     xlink:href="#U"
     x="8.767"
     y="59.99"
     id="use785" />
  <path
     d="M121.677 102.03l-.336 1.034h-.246l.246-1.034z"
     id="path787" />
  <use
     xlink:href="#AQ"
     class="M"
     id="use789" />
  <use
     xlink:href="#AA"
     x="9.096"
     y="22.437"
     id="use791" />
  <use
     xlink:href="#n"
     x="-11.19"
     y="44.872"
     id="use793" />
  <path
     d="M134 102.51h-.664v-.296h-.008q-.227.35-.666.35-.404 0-.65-.284-.246-.286-.246-.797 0-.534.27-.855.27-.322.7-.322.416 0 .58.298h.008v-1.28H134zm-.65-1.047v-.162q0-.2-.122-.35-.122-.14-.317-.14-.22 0-.345.174-.124.172-.124.475 0 .284.12.437.12.153.332.153.202 0 .328-.162.128-.162.128-.43z"
     id="path795" />
  <use
     xlink:href="#Z"
     x="3.589"
     y="59.989"
     id="use797" />
  <use
     xlink:href="#a"
     x="3.588"
     y="59.989"
     id="use799" />
  <use
     xlink:href="#b"
     x="3.589"
     y="59.988"
     id="use801" />
  <use
     xlink:href="#c"
     x="3.589"
     y="59.99"
     id="use803" />
  <use
     xlink:href="#a"
     x="10.152"
     y="59.989"
     id="use805" />
  <use
     xlink:href="#a"
     x="12.046"
     y="59.989"
     id="use807" />
  <use
     xlink:href="#R"
     x="45.272"
     y="59.99"
     id="use809" />
  <use
     xlink:href="#f"
     x="-0.767"
     y="59.99"
     id="use811" />
  <use
     xlink:href="#d"
     x="8.544"
     y="59.989"
     id="use813" />
  <use
     xlink:href="#O"
     x="60.5"
     y="59.99"
     id="use815" />
  <use
     xlink:href="#l"
     x="57.192"
     y="44.872"
     id="use817" />
  <use
     xlink:href="#P"
     x="59.996"
     y="59.99"
     id="use819" />
  <use
     xlink:href="#g"
     x="-15.244"
     y="59.988"
     id="use821" />
  <use
     xlink:href="#g"
     x="-12.714"
     y="59.988"
     id="use823" />
  <use
     xlink:href="#U"
     x="56.586"
     y="59.99"
     id="use825" />
  <use
     xlink:href="#f"
     x="17.036"
     y="59.99"
     id="use827" />
  <use
     xlink:href="#P"
     x="71.264"
     y="59.99"
     id="use829" />
  <use
     xlink:href="#T"
     x="64.781"
     y="59.98"
     id="use831" />
  <use
     xlink:href="#N"
     x="82.844"
     y="59.99"
     id="use833" />
  <use
     xlink:href="#O"
     x="82.845"
     y="59.99"
     id="use835" />
  <use
     xlink:href="#S"
     x="73.282"
     y="59.988"
     id="use837" />
  <path
     d="M95.56 109.808h-.353v-3.014h.353z"
     id="path845" />
  <use
     xlink:href="#R"
     x="-7.366"
     y="67.288"
     id="use847" />
  <use
     xlink:href="#V"
     x="-16.248"
     y="67.287"
     id="use849" />
  <use
     xlink:href="#N"
     x="8.342"
     y="67.288"
     id="use851" />
  <use
     xlink:href="#Q"
     x="1.196"
     y="67.28"
     id="use853" />
  <use
     xlink:href="#S"
     x="-2.428"
     y="67.288"
     id="use855" />
  <use
     xlink:href="#S"
     x="0.576"
     y="67.288"
     id="use857" />
  <use
     xlink:href="#O"
     x="14.217"
     y="67.288"
     id="use859" />
  <use
     xlink:href="#T"
     x="2.828"
     y="67.29"
     id="use861" />
  <use
     xlink:href="#V"
     x="-2.241"
     y="67.287"
     id="use863" />
  <use
     xlink:href="#Q"
     x="12.758"
     y="67.28"
     id="use865" />
  <use
     xlink:href="#f"
     x="-35.717"
     y="67.29"
     id="use867" />
  <use
     xlink:href="#R"
     x="15.28"
     y="67.288"
     id="use869" />
  <path
     d="M121.7 109.33l-.336 1.034h-.246l.246-1.034z"
     id="path871" />
  <use
     xlink:href="#AQ"
     y="7.298"
     class="M"
     id="use873" />
  <use
     xlink:href="#AA"
     x="9.12"
     y="29.736"
     id="use875" />
  <use
     xlink:href="#n"
     x="-11.164"
     y="52.17"
     id="use877" />
  <use
     xlink:href="#Y"
     x="3.614"
     y="67.288"
     id="use879" />
  <use
     xlink:href="#Z"
     x="3.614"
     y="67.289"
     id="use881" />
  <use
     xlink:href="#a"
     x="3.613"
     y="67.287"
     id="use883" />
  <use
     xlink:href="#b"
     x="3.613"
     y="67.288"
     id="use885" />
  <use
     xlink:href="#c"
     x="3.603"
     y="67.288"
     id="use887" />
  <use
     xlink:href="#a"
     x="10.176"
     y="67.287"
     id="use889" />
  <use
     xlink:href="#a"
     x="12.07"
     y="67.287"
     id="use891" />
  <use
     xlink:href="#f"
     x="-3.178"
     y="67.29"
     id="use893" />
  <use
     xlink:href="#x"
     x="-9.295"
     y="37.57"
     id="use895" />
  <use
     xlink:href="#U"
     x="42.826"
     y="67.289"
     id="use897" />
  <use
     xlink:href="#g"
     x="-21.268"
     y="67.287"
     id="use899" />
  <use
     xlink:href="#U"
     x="48.032"
     y="67.289"
     id="use901" />
  <use
     xlink:href="#f"
     x="8.481"
     y="67.29"
     id="use903" />
  <use
     xlink:href="#g"
     x="-14.72"
     y="67.287"
     id="use905" />
  <use
     xlink:href="#f"
     x="13.533"
     y="67.29"
     id="use907" />
  <use
     xlink:href="#S"
     x="60.916"
     y="67.288"
     id="use909" />
  <use
     xlink:href="#O"
     x="74.556"
     y="67.288"
     id="use911" />
  <use
     xlink:href="#i"
     x="55.789"
     y="59.998"
     id="use913" />
  <path
     d="M178.7 107.656l-.645 2.152h-.357l-.443-1.54q-.025-.088-.034-.2h-.008q-.006.076-.044.195l-.48 1.545h-.345l-.65-2.152h.36l.446 1.618q.02.074.03.193h.017q.006-.092.038-.198l.496-1.614h.315l.446 1.622q.02.078.032.193h.017q.004-.082.036-.193l.437-1.622z"
     id="path915" />
  <use
     xlink:href="#f"
     x="26.956"
     y="67.29"
     id="use917" />
  <use
     xlink:href="#T"
     x="-23.772"
     y="74.58"
     id="use927" />
  <use
     xlink:href="#O"
     x="-8.144"
     y="74.588"
     id="use929" />
  <use
     xlink:href="#i"
     x="-25.732"
     y="67.298"
     id="use931" />
  <use
     xlink:href="#P"
     x="-7.148"
     y="74.588"
     id="use933" />
  <use
     xlink:href="#V"
     x="-20.688"
     y="74.587"
     id="use935" />
  <use
     xlink:href="#P"
     x="-3.498"
     y="74.588"
     id="use937" />
  <use
     xlink:href="#t"
     x="-55.748"
     y="52.169"
     id="use939" />
  <use
     xlink:href="#P"
     x="1.222"
     y="74.588"
     id="use941" />
  <path
     d="M103.718 117.03v-.37q.282.208.62.208.454 0 .454-.303 0-.086-.04-.145-.038-.06-.105-.107-.065-.046-.156-.082-.088-.038-.19-.078-.143-.057-.252-.113-.107-.06-.18-.13-.07-.074-.11-.166-.036-.092-.036-.216 0-.15.07-.267.07-.118.185-.195.116-.08.263-.12.15-.04.307-.04.28 0 .5.097v.35q-.237-.156-.546-.156-.097 0-.174.023-.078.02-.134.06-.055.04-.086.097-.03.055-.03.122 0 .084.03.14.032.057.1.1.06.044.143.08.084.036.19.078.143.055.256.113.113.057.193.13.08.07.122.166.044.095.044.225 0 .16-.07.277-.07.118-.187.195-.118.078-.27.116-.153.038-.322.038-.332 0-.576-.128z"
     id="path943" />
  <use
     xlink:href="#O"
     x="10.204"
     y="74.588"
     id="use945" />
  <use
     xlink:href="#S"
     x="0.641"
     y="74.588"
     id="use947" />
  <use
     xlink:href="#AD"
     x="-58.552"
     y="37.035"
     id="use949" />
  <path
     d="M113.44 114.414h-1.177v1.042h1.09v.317h-1.09v1.335h-.353v-3.014h1.53z"
     id="path951" />
  <use
     xlink:href="#Q"
     x="11.338"
     y="74.58"
     id="use953" />
  <use
     xlink:href="#U"
     x="3.91"
     y="74.589"
     id="use955" />
  <use
     xlink:href="#S"
     x="9.22"
     y="74.588"
     id="use957" />
  <use
     xlink:href="#V"
     x="2.164"
     y="74.587"
     id="use959" />
  <path
     d="M120.773 117.108v-3.754a.93.93 0 0 1 .275-.664.93.93 0 0 1 .664-.275h27.213a.93.93 0 0 1 .664.275.93.93 0 0 1 .275.664v3.754a.93.93 0 0 1-.275.664.93.93 0 0 1-.664.275H121.71a.93.93 0 0 1-.664-.275.93.93 0 0 1-.275-.664z"
     class="M"
     id="path961" />
  <use
     xlink:href="#AA"
     x="6.588"
     y="37.036"
     id="use963" />
  <path
     d="M127.804 116.22H126.4q.034.47.59.47.355 0 .624-.168v.48q-.298.16-.775.16-.52 0-.81-.288-.288-.3-.288-.807 0-.536.31-.85.31-.313.765-.313.47 0 .727.28.258.28.258.76zm-.616-.408q0-.462-.374-.462-.16 0-.277.132-.116.132-.14.33z"
     id="path965" />
  <use
     xlink:href="#Y"
     x="1.082"
     y="74.588"
     id="use967" />
  <use
     xlink:href="#Z"
     x="1.081"
     y="74.589"
     id="use969" />
  <use
     xlink:href="#a"
     x="1.082"
     y="74.589"
     id="use971" />
  <use
     xlink:href="#b"
     x="1.083"
     y="74.588"
     id="use973" />
  <use
     xlink:href="#c"
     x="1.083"
     y="74.588"
     id="use975" />
  <use
     xlink:href="#a"
     x="7.645"
     y="74.589"
     id="use977" />
  <use
     xlink:href="#a"
     x="9.548"
     y="74.589"
     id="use979" />
  <use
     xlink:href="#n"
     x="4.058"
     y="59.47"
     id="use981" />
  <use
     xlink:href="#Y"
     x="17.65"
     y="74.588"
     id="use983" />
  <use
     xlink:href="#f"
     x="-0.714"
     y="74.59"
     id="use985" />
  <use
     xlink:href="#x"
     x="-6.833"
     y="44.87"
     id="use987" />
  <use
     xlink:href="#U"
     x="45.29"
     y="74.589"
     id="use989" />
  <use
     xlink:href="#f"
     x="6.918"
     y="74.59"
     id="use991" />
  <use
     xlink:href="#d"
     x="16.23"
     y="74.588"
     id="use993" />
  <use
     xlink:href="#O"
     x="68.175"
     y="74.588"
     id="use995" />
  <use
     xlink:href="#U"
     x="54.8"
     y="74.589"
     id="use997" />
  <use
     xlink:href="#P"
     x="66.955"
     y="74.588"
     id="use999" />
  <use
     xlink:href="#l"
     x="68.563"
     y="59.47"
     id="use1001" />
  <use
     xlink:href="#l"
     x="69.606"
     y="59.47"
     id="use1003" />
  <use
     xlink:href="#P"
     x="72.409"
     y="74.588"
     id="use1005" />
  <use
     xlink:href="#g"
     x="-2.83"
     y="74.587"
     id="use1007" />
  <use
     xlink:href="#g"
     x="-0.3"
     y="74.587"
     id="use1009" />
  <use
     xlink:href="#U"
     x="69"
     y="74.589"
     id="use1011" />
  <use
     xlink:href="#f"
     x="29.449"
     y="74.59"
     id="use1013" />
  <g
     fill="#fff"
     id="g1025">
    <path
       d="M0 6.076h90.34V34.46H0z"
       id="path1021" />
    <path
       d="M0 119.38h180V0H0z"
       opacity="0"
       class="D"
       id="path1023" />
  </g>
  <g
     clip-path="url(#A)"
     transform="matrix(.352778 0 0 -.352778 -.000139 119.38037)"
     class="D E"
     id="g1029">
    <path
       d="M0 0h256.08v240.72H0z"
       id="path1027" />
  </g>
  <use
     xlink:href="#AR"
     fill="#fff"
     class="D"
     id="use1031" />
  <use
     xlink:href="#AR"
     stroke="#fff"
     class="F G O"
     id="use1033" />
  <path
     d="M18.7 13.76c0-1.147.93-2.074 2.074-2.074H33.74c1.145 0 2.074.928 2.074 2.074s-.93 2.074-2.074 2.074H20.786c-1.145 0-2.074-.928-2.074-2.074zm0 5.248c0-1.147.93-2.074 2.074-2.074H42.3c1.147 0 2.074.928 2.074 2.074s-.928 2.074-2.074 2.074H20.786c-1.145 0-2.074-.928-2.074-2.074zm23.115 10.5c0-1.612 1.3-2.92 2.92-2.92h26.67c1.612 0 2.92 1.3 2.92 2.92s-1.3 2.92-2.92 2.92h-26.67c-1.612 0-2.92-1.3-2.92-2.92zm-19.558.043c0-1.637 1.327-2.963 2.963-2.963h9.313c1.637 0 2.963 1.326 2.963 2.963s-1.326 2.963-2.963 2.963H25.23c-1.637 0-2.963-1.326-2.963-2.963z"
     class="D E"
     id="path1035" />
  <path
     d="M48.666 43.993h16.528V51.6H48.666z"
     fill="#bdd7ee"
     id="path1037" />
  <g
     fill="#262626"
     id="g1077">
    <path
       d="M11.003 49.663q0 .022-.01.04-.01.017-.04.028-.028.008-.075.014-.044.008-.114.008-.066 0-.114-.008-.047-.006-.075-.014-.028-.01-.04-.028-.01-.017-.01-.04v-3.44q0-.022.01-.04.014-.017.042-.025.03-.01.075-.017.047-.008.1-.008.07 0 .114.008.047.006.075.017.028.008.04.025.01.017.01.04zm3.047.003q0 .022-.01.04-.01.014-.036.025-.025.01-.07.017-.044.006-.1.006-.07 0-.114-.006-.044-.006-.07-.017-.025-.01-.036-.025-.01-.017-.01-.04v-1.46q0-.213-.033-.343-.033-.13-.097-.224-.064-.094-.166-.144-.1-.05-.233-.05-.172 0-.343.122-.172.122-.36.357v1.742q0 .022-.01.04-.01.014-.036.025-.025.01-.07.017-.044.006-.114.006-.066 0-.1-.006-.044-.006-.072-.017-.025-.01-.036-.025-.008-.017-.008-.04v-2.493q0-.022.008-.036.008-.017.033-.028.025-.014.064-.017.04-.006.102-.006.06 0 .1.006.042.003.064.017.022.01.03.028.01.014.01.036v.33q.2-.235.418-.343.2-.1.424-.1.25 0 .418.086.172.083.277.224.105.14.15.332.047.188.047.454zm3.4-.183q0 .08-.01.127-.01.047-.033.07-.022.022-.066.042-.044.02-.102.03-.055.014-.12.022-.064.008-.127.008-.194 0-.332-.05-.138-.053-.227-.155-.1-.105-.13-.263-.04-.16-.04-.377V47.48h-.35q-.042 0-.066-.044-.025-.044-.025-.144 0-.053.006-.1.008-.036.02-.058.01-.025.028-.033.02-.01.042-.01h.346v-.593q0-.02.008-.036.01-.017.036-.028.028-.014.072-.02.044-.006.1-.006.07 0 .114.006.044.006.07.02.025.01.036.028.01.017.01.036v.593h.64q.022 0 .04.01.017.008.028.033.014.022.02.058.006.036.006.1 0 .1-.025.144-.025.044-.066.044h-.64v1.4q0 .258.075.4.078.13.274.13.064 0 .114-.01.05-.014.1-.028.04-.014.066-.025.028-.014.05-.014.014 0 .025.008.014.006.02.025.008.02.014.053.006.033.006.083zm2.694.183q0 .022-.01.04-.01.014-.036.025-.025.01-.07.017-.044.006-.1.006-.07 0-.114-.006-.044-.006-.07-.017-.025-.01-.036-.025-.01-.017-.01-.04v-1.46q0-.213-.033-.343-.033-.13-.097-.224-.064-.094-.166-.144-.1-.05-.233-.05-.172 0-.343.122-.172.122-.36.357v1.742q0 .022-.01.04-.01.014-.036.025-.025.01-.07.017-.044.006-.114.006-.066 0-.1-.006-.044-.006-.072-.017-.025-.01-.036-.025-.008-.017-.008-.04v-3.7q0-.022.008-.04.01-.017.036-.028.028-.01.072-.017.044-.006.1-.006.07 0 .114.006.044.006.07.017.025.01.036.028.01.017.01.04v1.493q.197-.208.396-.307.2-.102.402-.102.25 0 .418.086.172.083.277.224.105.14.15.332.047.188.047.457z"
       id="path1039" />
    <use
       xlink:href="#AS"
       id="use1041" />
    <use
       xlink:href="#AT"
       id="use1043" />
    <use
       xlink:href="#AU"
       id="use1045" />
    <path
       d="M30.566 49.668q0 .033-.022.05-.022.017-.06.025-.04.008-.114.008-.072 0-.116-.008-.042-.008-.06-.025-.02-.017-.02-.05v-.25q-.163.175-.366.27-.2.097-.424.097-.197 0-.357-.053-.158-.05-.27-.147-.11-.097-.175-.238-.06-.14-.06-.32 0-.21.086-.366.086-.155.247-.258.16-.102.393-.152.233-.053.524-.053h.343v-.194q0-.144-.03-.255-.03-.11-.1-.183-.066-.075-.175-.11-.108-.04-.266-.04-.17 0-.305.042-.133.04-.235.09-.1.047-.17.09-.066.04-.1.04-.022 0-.04-.01-.017-.01-.03-.033-.01-.022-.017-.055-.006-.036-.006-.078 0-.07.008-.108.01-.042.047-.078.04-.036.13-.083.09-.05.21-.09.12-.042.26-.066.14-.028.285-.028.27 0 .457.06.188.06.305.18.116.116.17.29.053.174.053.407zm-.454-1.138h-.39q-.188 0-.327.033-.138.03-.23.094-.09.06-.136.15-.042.086-.042.2 0 .194.122.3.125.114.346.114.18 0 .332-.09.155-.09.324-.28z"
       id="path1047" />
    <use
       xlink:href="#AU"
       x="5.672"
       id="use1049" />
    <use
       xlink:href="#AV"
       id="use1051" />
    <path
       d="M38.598 47.336q0 .06-.003.102-.003.042-.01.066-.008.022-.022.036-.01.01-.033.01-.022 0-.055-.01-.03-.014-.072-.025-.04-.014-.1-.025-.05-.01-.108-.01-.07 0-.136.028-.066.028-.14.1-.072.064-.152.17-.08.105-.177.258v1.64q0 .022-.01.04-.01.014-.036.025-.025.01-.07.017-.044.006-.114.006-.066 0-.1-.006-.044-.006-.072-.017-.025-.01-.036-.025-.008-.017-.008-.04v-2.493q0-.022.008-.036.008-.017.033-.028.025-.014.064-.017.04-.006.102-.006.06 0 .1.006.042.003.064.017.022.01.03.028.01.014.01.036v.363q.102-.15.2-.244.1-.094.172-.147.08-.055.158-.075.08-.022.16-.022.036 0 .08.006.047.003.097.014.05.01.1.025.042.014.058.028.017.014.022.028.006.01.008.03.006.02.006.058.003.036.003.1zm.587 2.004q0 .086-.008.158-.008.072-.028.136-.02.064-.053.125-.03.064-.078.133l-.38.57q-.014.02-.033.033-.017.014-.044.025-.025.01-.06.014-.033.006-.086.006-.047 0-.08-.006-.03-.003-.044-.014-.014-.008-.017-.025 0-.017.01-.04l.368-.762v-.355q0-.075.014-.12.017-.044.05-.066.033-.022.083-.03.05-.008.122-.008.07 0 .12.008.05.008.08.03.033.022.047.066.017.044.017.12zm5.67-2.173q0 .02-.006.047-.006.028-.02.07l-.734 2.368q-.008.03-.028.05-.017.02-.05.03-.03.01-.086.014-.055.006-.138.006-.086 0-.144-.006-.058-.006-.094-.017-.033-.01-.05-.03-.017-.02-.025-.047l-.524-1.8-.006-.025-.006.025-.485 1.8q-.008.03-.028.05-.017.02-.053.03-.036.01-.094.014-.055.006-.138.006-.086 0-.14-.006-.053-.006-.1-.017-.033-.01-.05-.03-.017-.02-.025-.047l-.728-2.368q-.014-.042-.02-.07-.006-.028-.006-.047 0-.025.01-.04.01-.017.036-.025.028-.01.072-.014.044-.003.108-.003.078 0 .125.006.047.003.072.014.025.008.036.028.01.017.02.042l.606 2.08.006-.025.55-2.055q.006-.025.017-.042.014-.02.04-.028.025-.01.066-.014.044-.006.114-.006.066 0 .108.006.044.003.07.014.025.008.036.025.01.017.017.04l.596 2.06.006.025.003-.025.593-2.055q.006-.025.017-.042.014-.02.04-.028.028-.01.072-.014.047-.006.12-.006.066 0 .105.003.042.003.064.014.025.01.033.025.01.014.01.04zM47.47 48.3q0 .108-.055.155-.053.044-.122.044H45.66q0 .208.042.374.042.166.138.285.097.12.252.183.155.064.38.064.177 0 .316-.028.138-.03.238-.066.102-.036.166-.064.066-.03.1-.03.02 0 .033.01.017.008.025.028.008.02.01.055.006.033.006.083 0 .036-.003.064-.003.025-.008.047-.003.02-.014.036-.008.017-.025.033-.014.014-.1.05-.075.033-.194.066-.12.033-.277.058-.155.028-.332.028-.307 0-.54-.086-.23-.086-.388-.255-.158-.17-.238-.424-.08-.255-.08-.593 0-.32.083-.576.083-.258.238-.435.158-.18.38-.274.222-.097.496-.097.294 0 .5.094.208.094.34.255.133.158.194.374.064.213.064.457zm-.46-.136q.008-.36-.16-.565-.166-.205-.496-.205-.17 0-.296.064-.127.064-.213.17-.086.105-.133.247-.047.138-.053.3zm4.548 1.492q0 .022-.01.04-.008.017-.033.028-.022.008-.06.014-.04.006-.094.006-.058 0-.097-.006-.04-.006-.064-.014-.025-.01-.036-.028-.01-.017-.01-.04v-.33q-.197.213-.4.332-.2.12-.463.12-.274 0-.468-.105-.194-.108-.316-.288-.12-.183-.175-.427-.055-.247-.055-.518 0-.32.07-.58.07-.26.205-.443.136-.183.335-.28.202-.1.465-.1.22 0 .4.097.183.094.36.28v-1.45q0-.02.008-.036.01-.02.04-.028.028-.01.07-.017.044-.008.1-.008.07 0 .114.008.044.006.07.017.025.008.036.028.014.017.014.036zm-.46-1.753q-.186-.23-.36-.35-.172-.122-.36-.122-.175 0-.296.083-.122.083-.2.22-.075.136-.1.307-.033.172-.033.35 0 .188.028.368.03.18.102.32.072.138.2.224.12.083.3.083.1 0 .175-.025.086-.025.174-.083.1-.058.186-.15.097-.094.205-.23z"
       id="path1053" />
    <use
       xlink:href="#AS"
       x="31.388"
       id="use1055" />
    <use
       xlink:href="#AT"
       x="31.404"
       id="use1057" />
    <path
       d="M57.653 49.286q0 .047-.003.083-.003.033-.01.058-.006.022-.017.042-.008.017-.044.053-.033.033-.116.086-.083.05-.188.1-.102.04-.224.064-.122.025-.252.025-.27 0-.476-.1-.208-.1-.35-.258-.138-.172-.213-.418-.072-.25-.072-.573 0-.368.1-.632.1-.266.247-.435.158-.17.368-.25.213-.083.46-.083.12 0 .23.022.114.022.208.058.094.036.166.083.075.047.108.08.033.033.044.053.014.02.022.047.008.025.01.058.003.033.003.083 0 .108-.025.152-.025.042-.06.042-.042 0-.097-.044-.053-.047-.136-.102-.083-.055-.202-.1-.116-.047-.277-.047-.33 0-.507.255-.175.252-.175.734 0 .24.044.424.047.18.136.302.1.122.216.183.13.058.296.058.158 0 .277-.05.12-.05.205-.108.1-.06.147-.108.06-.05.094-.05.02 0 .033.01.014.01.022.04.01.025.014.066.006.04.006.094zm2.697.38q0 .022-.01.04-.008.014-.033.025-.025.01-.066.017-.04.006-.097.006-.064 0-.105-.006-.04-.006-.064-.017-.022-.01-.03-.025-.008-.017-.008-.04v-.33q-.213.235-.42.343-.208.108-.42.108-.25 0-.42-.083-.17-.083-.274-.224-.105-.144-.152-.332-.044-.2-.044-.463v-1.512q0-.022.008-.036.01-.017.04-.028.028-.014.072-.017.044-.006.1-.006.066 0 .1.006.044.003.07.017.028.01.04.028.01.014.01.036v1.45q0 .22.03.352.033.13.097.224.066.1.166.144.1.05.233.05.172 0 .34-.122.172-.122.363-.357v-1.742q0-.022.008-.036.01-.017.04-.028.028-.014.07-.017.044-.006.114-.006.066 0 .1.006.044.003.07.017.025.01.036.028.014.014.014.036z"
       id="path1059" />
    <use
       xlink:href="#AT"
       x="38.954"
       id="use1061" />
    <use
       xlink:href="#AT"
       x="41.138"
       id="use1063" />
    <use
       xlink:href="#AT"
       x="44.61"
       id="use1065" />
    <use
       xlink:href="#AW"
       id="use1067" />
    <path
       d="M75.708 49.666q0 .022-.01.04-.01.014-.036.025-.025.01-.07.017-.044.006-.11.006-.07 0-.114-.006-.044-.006-.072-.017-.025-.01-.036-.025-.01-.017-.01-.04V48.15q0-.158-.028-.288-.028-.13-.09-.224-.06-.094-.155-.144-.094-.05-.222-.05-.158 0-.32.122-.158.122-.35.357v1.742q0 .022-.01.04-.01.014-.04.025-.025.01-.07.017-.044.006-.11.006-.064 0-.11-.006-.044-.006-.072-.017-.025-.01-.036-.025-.008-.017-.008-.04V48.15q0-.158-.03-.288-.03-.13-.09-.224-.06-.094-.155-.144-.09-.05-.22-.05-.158 0-.32.122-.16.122-.35.357v1.742q0 .022-.01.04-.01.014-.036.025-.025.01-.07.017-.044.006-.114.006-.066 0-.11-.006-.044-.006-.072-.017-.025-.01-.036-.025-.008-.017-.008-.04v-2.493q0-.022.008-.036.008-.017.033-.028.025-.014.064-.017.04-.006.102-.006.06 0 .1.006.042.003.064.017.022.01.03.028.01.014.01.036v.33q.21-.235.407-.343.2-.11.402-.11.155 0 .277.036.125.036.22.102.094.064.16.155.066.09.11.2.125-.136.235-.23.114-.094.216-.152.105-.058.202-.083.1-.028.2-.028.24 0 .404.086.163.083.263.224.102.14.144.332.044.188.044.4z"
       id="path1069" />
    <use
       xlink:href="#AV"
       x="42.216"
       id="use1071" />
    <use
       xlink:href="#AW"
       x="-58.593"
       y="6.78"
       id="use1073" />
    <path
       d="M14.8 52.928q0 .053-.006.086-.005.03-.014.05-.006.02-.017.028-.01.005-.028.005-.02 0-.05-.01-.028-.014-.07-.028-.042-.017-.1-.028-.055-.014-.13-.014-.102 0-.175.033-.072.033-.116.105-.044.07-.064.183-.02.1-.02.27v.27h.557q.022 0 .036.01.017.008.028.033.014.022.02.058.008.036.008.1 0 .1-.025.144-.025.044-.066.044h-.557v2.185q0 .022-.01.04-.01.014-.04.025-.025.01-.07.017-.044.005-.1.005-.066 0-.1-.005-.044-.005-.072-.017-.025-.01-.036-.025-.01-.017-.01-.04V54.26H13.2q-.044 0-.066-.044-.022-.044-.022-.144 0-.053.005-.1.006-.036.017-.058.01-.025.028-.033.017-.01.04-.01h.352v-.258q0-.26.047-.446.05-.188.15-.307.1-.12.25-.175.152-.058.357-.058.097 0 .188.02.1.017.14.04.05.02.066.036.017.017.028.044.01.025.014.064.005.036.005.1zm2.9 3.335q0 .08-.01.127-.01.047-.033.07-.022.022-.066.042-.044.02-.102.03-.055.014-.12.022-.064.008-.127.008-.194 0-.332-.05-.138-.053-.227-.155-.1-.105-.13-.263-.04-.16-.04-.377V54.26h-.35q-.042 0-.066-.044-.025-.044-.025-.144 0-.053.005-.1.008-.036.02-.058.01-.025.028-.033.02-.01.042-.01h.346v-.593q0-.02.008-.036.01-.017.036-.028.028-.014.072-.02.044-.006.1-.006.07 0 .114.006.044.005.07.02.025.01.036.028.01.017.01.036v.593h.64q.022 0 .04.01.017.008.028.033.014.022.02.058.005.036.005.1 0 .1-.025.144-.025.044-.066.044h-.64v1.4q0 .258.075.4.078.13.274.13.064 0 .114-.01.05-.014.1-.028.04-.014.066-.025.028-.014.05-.014.014 0 .025.008.014.005.02.025.008.02.014.053.005.033.005.083zm2.7.183q0 .022-.01.04-.01.014-.036.025-.025.01-.07.017-.044.005-.1.005-.07 0-.114-.005-.044-.005-.07-.017-.025-.01-.036-.025-.01-.017-.01-.04v-1.46q0-.213-.033-.343-.033-.13-.097-.224-.064-.094-.166-.144-.1-.05-.233-.05-.172 0-.343.122-.172.122-.36.357v1.742q0 .022-.01.04-.01.014-.036.025-.025.01-.07.017-.044.005-.114.005-.066 0-.1-.005-.044-.005-.072-.017-.025-.01-.036-.025-.008-.017-.008-.04v-3.7q0-.022.008-.04.01-.017.036-.028.028-.01.072-.017.044-.005.1-.005.07 0 .114.005.044.006.07.017.025.01.036.028.01.017.01.04v1.493q.197-.208.396-.307.2-.102.402-.102.25 0 .418.086.172.083.277.224.105.14.15.332.047.188.047.457zm2.958-1.354q0 .108-.055.155-.053.044-.122.044h-1.634q0 .208.042.374.042.166.138.285.097.12.252.183.155.064.38.064.177 0 .316-.028.138-.03.238-.066.102-.036.166-.064.066-.03.1-.03.02 0 .033.01.017.008.025.028.008.02.01.055.005.033.005.083 0 .036-.003.064-.003.025-.008.047-.003.02-.014.036-.008.017-.025.033-.014.014-.1.05-.075.033-.194.066-.12.033-.277.058-.155.028-.332.028-.307 0-.54-.086-.23-.086-.388-.255-.158-.17-.238-.424-.08-.255-.08-.593 0-.32.083-.576.083-.258.238-.435.158-.18.38-.274.222-.097.496-.097.294 0 .5.094.208.094.34.255.133.158.194.374.064.213.064.457zm-.46-.136q.008-.36-.16-.565-.166-.205-.496-.205-.17 0-.296.064-.127.064-.213.17-.086.105-.133.247-.047.138-.053.3zm3.038 1.26q0 .194-.066.26-.064.064-.23.064-.16 0-.224-.064-.064-.064-.064-.252 0-.194.064-.258.066-.066.233-.066.16 0 .224.064.064.064.064.252zm1.25 0q0 .194-.064.26-.064.064-.23.064-.16 0-.224-.064-.064-.064-.064-.252 0-.194.064-.258.066-.066.23-.066.163 0 .224.064.064.064.064.252zm1.252 0q0 .194-.066.26-.064.064-.23.064-.16 0-.224-.064-.064-.064-.064-.252 0-.194.064-.258.066-.066.233-.066.16 0 .224.064.064.064.064.252z"
       id="path1075" />
  </g>
  <g
     class="D"
     id="g1085">
    <path
       d="m 103.97,17.653002 a 2.88,2.88 0 0 1 2.879,-2.879 h 56.22 a 2.88,2.88 0 0 1 2.879,2.879 2.88,2.88 0 0 1 -2.879,2.879 h -56.22 a 2.88,2.88 0 0 1 -2.879,-2.879 z"
       id="path1079"
       inkscape:connector-curvature="0"
       style="fill:#b4c7e7" />
    <path
       d="m 94.657,17.695002 c 0,-1.612 1.3,-2.92 2.92,-2.92 h 0.762 c 1.612,0 2.92,1.3 2.92,2.92 0,1.62 -1.3,2.92 -2.92,2.92 h -0.762 c -1.612,0 -2.92,-1.3 -2.92,-2.92 z m 74.593,-0.126 c 0,-1.637 1.326,-2.963 2.963,-2.963 h 0.677 c 1.637,0 2.963,1.326 2.963,2.963 0,1.637 -1.326,2.963 -2.963,2.963 h -0.677 c -1.637,0 -2.963,-1.326 -2.963,-2.963 z"
       class="E"
       id="path1081"
       inkscape:connector-curvature="0"
       style="fill:#f2f2f2"
       sodipodi:nodetypes="ssssssssssssss" />
  </g>
  <g
     clip-path="url(#B)"
     transform="matrix(.352778 0 0 -.352778 -.000139 119.38037)"
     class="F G I N"
     id="g1089">
    <path
       d="M256.04 338.4L255.6.025"
       id="path1087" />
  </g>
  <g
     class="D"
     id="g1095">
    <path
       d="M78.486 16.214c0-2.127 1.707-3.852 3.8-3.852s3.8 1.725 3.8 3.852-1.707 3.852-3.8 3.852-3.8-1.725-3.8-3.852z"
       class="E"
       id="path1091" />
    <path
       d="M58.08 15.304a2.94 2.94 0 0 1 2.942-2.942h12.404a2.94 2.94 0 0 1 2.942 2.942v1.82a2.94 2.94 0 0 1-2.942 2.942H61.023a2.94 2.94 0 0 1-2.942-2.942z"
       fill="#b4c7e7"
       id="path1093" />
  </g>
  <g
     clip-path="url(#C)"
     transform="matrix(.352778 0 0 -.352778 -.000139 119.38037)"
     class="F G I N"
     id="g1099">
    <path
       d="M0 269.28h255.13"
       id="path1097" />
  </g>
  <path
     d="M19.558 24.384V34.47m59.267-10.255V34.3"
     class="F G I O"
     id="path1101" />
  <g
     class="D E"
     id="g1109">
    <path
       d="M87.545 29.55c0-1.59-1.27-2.88-2.836-2.88s-2.836 1.288-2.836 2.88 1.27 2.88 2.836 2.88 2.836-1.288 2.836-2.88z"
       id="path1103" />
    <use
       xlink:href="#AX"
       id="use1105" />
    <use
       xlink:href="#AX"
       x="6.604"
       id="use1107" />
  </g>
  <g
     clip-path="url(#D)"
     transform="matrix(.352778 0 0 -.352778 -.000139 119.38037)"
     class="D E"
     id="g1113">
    <path
       d="M0 317.28h510.24v21.12H0z"
       id="path1111" />
  </g>
  <g
     class="D"
     id="g1121">
    <path
       d="M4.796 2.032c1.013 0 1.834.75 1.834 1.683 0 .924-.82 1.68-1.834 1.68s-1.833-.75-1.833-1.68.82-1.683 1.833-1.683z"
       fill="#d56262"
       id="path1115" />
    <path
       d="M10.164 2.032c.983 0 1.783.75 1.783 1.683 0 .924-.8 1.68-1.783 1.68s-1.782-.75-1.782-1.68.798-1.683 1.782-1.683z"
       fill="#ffd248"
       id="path1117" />
    <path
       d="M15.583 2.032c.984 0 1.782.75 1.782 1.683 0 .924-.797 1.68-1.782 1.68s-1.783-.75-1.783-1.68.795-1.683 1.783-1.683z"
       fill="#9cc757"
       id="path1119" />
  </g>
  <g
     clip-path="url(#E)"
     transform="matrix(.352778 0 0 -.352778 -.000139 119.38037)"
     class="F G I N"
     id="g1125">
    <path
       d="M256.08 257.76h254.2"
       id="path1123" />
  </g>
  <path
     d="M10.706 9.955H5.99c-.443 0-.832.364-.832.78v9.895c0 .417.388.78.832.78h7.21c.444 0 .832-.364.832-.78V13.08l-1.94-1.302z"
     fill="#4285f4"
     id="path1127" />
  <path
     d="M7.377 18.288h4.437v-.52H7.378zm0 1.042h3.328v-.52H7.377zm0-3.646v.52h4.437v-.52zm0 1.562h4.437v-.52H7.378z"
     fill="#f1f1f1"
     id="path1129" />
  <path
     d="M10.706 9.955V12.3c0 .417.388.78.832.78h2.496z"
     fill="#a1c2fa"
     id="path1131" />
  <path
     d="M63.16 51.993c1.263 0 2.286-.085 2.286-.19v-8c0-.106-1.023-.19-2.286-.19m4.91 8.382c-1.263 0-2.286-.085-2.286-.19v-8c0-.106 1.023-.19 2.286-.19"
     stroke="#000"
     stroke-width=".762"
     class="F G"
     id="path1147" />
</svg>
